<?xml version="1.0" encoding="utf-8"?>
<!-- Generator: Adobe Illustrator 19.1.0, SVG Export Plug-In . SVG Version: 6.00 Build 0)  -->
<svg version="1.1" id="Layer_1" xmlns="http://www.w3.org/2000/svg" xmlns:xlink="http://www.w3.org/1999/xlink" x="0px" y="0px"
	 viewBox="0 0 200 130" enable-background="new 0 0 200 130" xml:space="preserve">
<metadata><?xpacket begin="﻿" id="W5M0MpCehiHzreSzNTczkc9d"?>
<x:xmpmeta xmlns:x="adobe:ns:meta/" x:xmptk="Adobe XMP Core 5.6-c067 79.157747, 2015/03/30-23:40:42        ">
   <rdf:RDF xmlns:rdf="http://www.w3.org/1999/02/22-rdf-syntax-ns#">
      <rdf:Description rdf:about=""/>
   </rdf:RDF>
</x:xmpmeta>
                                                                                                    
                                                                                                    
                                                                                                    
                                                                                                    
                                                                                                    
                                                                                                    
                                                                                                    
                                                                                                    
                                                                                                    
                                                                                                    
                                                                                                    
                                                                                                    
                                                                                                    
                                                                                                    
                                                                                                    
                                                                                                    
                                                                                                    
                                                                                                    
                                                                                                    
                                                                                                    
                           
<?xpacket end="w"?></metadata>
<g>
	<g>
		<path fill="#231F20" d="M121,22.5h3.2l6.1,27.2h-3.9l-1.1-5.8h-5.3l-1.1,5.8h-3.9L121,22.5z M122.6,30.3L122.6,30.3l-2,9.9h3.9
			L122.6,30.3z"/>
		<path fill="#231F20" d="M143.4,43.5c0,3.6-2.8,6.3-6.3,6.3c-3.5,0-6.3-2.8-6.3-6.3V22.5h3.9v20.7c0,1.9,1,2.8,2.4,2.8
			c1.4,0,2.4-0.9,2.4-2.8V22.5h3.9V43.5z"/>
		<path fill="#231F20" d="M145.6,22.5h5.8c4.4,0,6.8,2.6,6.8,7v12.7c0,5-2.6,7.4-7.2,7.4h-5.4V22.5z M149.5,46h1.8
			c2.2,0,3-1.1,3-3.4V29.5c0-2.1-0.7-3.4-3-3.4h-1.8V46z"/>
		<path fill="#231F20" d="M164.8,22.5h3.2l6.1,27.2h-3.9l-1.1-5.8h-5.3l-1.1,5.8h-3.9L164.8,22.5z M166.4,30.3L166.4,30.3l-2,9.9
			h3.9L166.4,30.3z"/>
		<path fill="#231F20" d="M180.2,35.4l-5.1-13h4.1l2.9,8.1l3-8.1h4.1l-5.2,13l5.6,14.2h-4.1l-3.4-9.2l-3.4,9.2h-4.1L180.2,35.4z"/>
		<path fill="#231F20" d="M129.3,81.1c0,3.6-2.8,6.3-6.3,6.3c-3.5,0-6.3-2.8-6.3-6.3V60h3.9v20.7c0,1.9,1,2.8,2.4,2.8
			c1.4,0,2.4-0.9,2.4-2.8V60h3.9V81.1z"/>
		<path fill="#231F20" d="M131.5,60h3.9v12.4h0.1l5.7-12.4h3.9l-5.3,10.9l6.3,16.3h-4.1l-4.4-12.1l-2.1,3.9v8.1h-3.9V60z"/>
	</g>
	<g>
		<rect x="102.4" y="22.6" fill="#231F20" width="1.8" height="86.6"/>
	</g>
	<g>
		<g>
			<path fill="#231F20" d="M51.7,37.5c1.5,1,2.2,1.8,2.2,1.8l-9.7-6c0,0-0.8,6.7,10.2,12.2l-7.9-3.2c0,0,0.6,2.6,2.8,5.1
				C57.4,51,63.4,53,63.5,53l0.7,0.2l0.1,0.7c1.7,10.4,5.8,15,13.6,15.3c-7.8-15.2-5.7-22-5.7-22s-11.9-7.4-20.5-15
				c-2.3-2-13.1-11.5-13.1-11.5S40.7,29.9,51.7,37.5z"/>
		</g>
		<g>
			<path fill="#231F20" d="M91.2,72.7c-0.7-1.7-4.3-1.9-4.3-1.9c-2.7-0.4-5.6-0.5-8.5-0.4c-9.2-0.1-13.5-5.7-15.2-16.3
				c0,0-38.9-12.3-53.5-33.8c0,0,0.3,0.9,0.9,2.4c3.5,10.1,9,17.9,22.1,22.6c0,0-5-1.5-7.8-2.4c-3.4-1-6.4-3.3-6.4-3.3
				s-0.2,6.8,16.9,11.4c2.3,0.6,3.5,1.2,3.5,1.2l-15-3.3c0,0,0.7,6.8,17.4,9.3l-11.8-1.1c0,0,4.2,6.3,15,6.4l-8.5,1.6
				c0,0,3,6.8,15.8,1.3l-9.8,5.1c0,0,4.2,3.6,12-1.1l1.5-1c-0.5,0.4-1,0.7-1.5,1l-7.1,4.6c0,0,4.4,1.8,8.4-2.3c0,0-4.6,4.9-4.6,4.9
				c-1.1,1-2.2,1.8-3.2,2.4c-0.6,0.4-1.4,0.8-2.3,1.2c-1.5,0.7-2.9,1.1-4.2,1.6c-2.7,0.8-5.9,1.4-9.9,1.4c-2.2-0.1-2.7-0.1-4.9-0.9
				c0,0,3,4,8.8,4c1,0-5.2,0.1-5.2,0.1s1.3,3.4,8.3,2.7l-4.8,0.9c0,0,2.7,2.7,6.9,1.5L37.4,94c0,0,2.2,3.1,6.5-1.2l-2.7,3.4
				c0,0,1.5,0.9,2.8,0c0.3-0.2,4.1-3.6,5.7-4.8c0.5-0.4,1-0.8,1.5-1.1l6.6-4.7l0,0c2.9-2,6.2-3.8,9.8-5.2c2.7-1,4.4-1.7,7.9-2.7
				c6.7-1.8,10.1-2.2,10.1-2.2s5.4-0.8,6.7-0.3c0.4,0.1,0.6,0.5,0.4,1.2C94.5,74.3,93.7,73.5,91.2,72.7z"/>
		</g>
	</g>
	<g>
		<path fill="#231F20" d="M116.8,98.2h1.2v6.6c0,0.4,0.1,0.6,0.6,0.6v1.1c-1.1,0-1.8-0.3-1.8-1.7V98.2z"/>
		<path fill="#231F20" d="M118.9,102.6c0-0.5,0.1-0.9,0.2-1.2c0.3-0.5,0.8-0.9,1.6-0.9s1.3,0.3,1.6,0.9c0.2,0.3,0.2,0.7,0.2,1.2v2
			c0,0.5-0.1,0.9-0.2,1.2c-0.3,0.5-0.8,0.9-1.6,0.9s-1.3-0.3-1.6-0.9c-0.2-0.3-0.2-0.7-0.2-1.2V102.6z M120.1,104.7
			c0,0.4,0.2,0.7,0.6,0.7c0.4,0,0.6-0.2,0.6-0.7v-2.3c0-0.4-0.2-0.7-0.6-0.7c-0.4,0-0.6,0.2-0.6,0.7V104.7z"/>
		<path fill="#231F20" d="M123.1,100.6h1.2v0.6h0c0.2-0.4,0.6-0.6,1.1-0.6c0.6,0,1.2,0.4,1.2,1.4v4.5h-1.2v-4.1
			c0-0.4-0.2-0.7-0.6-0.7c-0.4,0-0.6,0.3-0.6,0.8v4h-1.2V100.6z"/>
		<path fill="#231F20" d="M128.5,107.2c0,0.3,0.2,0.6,0.6,0.6c0.4,0,0.5-0.3,0.5-0.6V106h0c-0.3,0.4-0.6,0.6-1.1,0.6s-0.8-0.2-1-0.6
			c-0.1-0.3-0.2-0.6-0.2-1.3v-2.3c0-0.9,0-1.2,0.2-1.4c0.2-0.3,0.5-0.5,1.1-0.5c0.6,0,0.8,0.3,1.1,0.6v-0.5h1.2v6.6
			c0,0.8-0.5,1.7-1.8,1.7c-0.7,0-1.6-0.4-1.8-1.8H128.5z M128.5,104.7c0,0.4,0.1,0.7,0.6,0.7c0.3,0,0.6-0.3,0.6-0.6v-2.3
			c0-0.4-0.2-0.7-0.6-0.7c-0.4,0-0.6,0.3-0.6,0.8V104.7z"/>
		<path fill="#231F20" d="M136.4,106c-0.3,0.3-0.5,0.6-1.1,0.6c-0.5,0-0.8-0.2-1-0.6c-0.1-0.3-0.2-0.6-0.2-1.3v-2.3
			c0-0.9,0-1.2,0.2-1.4c0.2-0.3,0.5-0.5,1.1-0.5c0.5,0,0.8,0.2,1.1,0.6h0v-2.9h1.2v8.3h-1.2V106z M135.2,104.6
			c0,0.5,0.2,0.8,0.6,0.8c0.4,0,0.6-0.3,0.6-0.7v-2.3c0-0.4-0.3-0.6-0.6-0.6c-0.5,0-0.6,0.3-0.6,0.7V104.6z"/>
		<path fill="#231F20" d="M138.6,98.2h1.2v1.2h-1.2V98.2z M138.6,100.6h1.2v5.9h-1.2V100.6z"/>
		<path fill="#231F20" d="M142.7,102.2c0-0.4-0.3-0.6-0.6-0.6c-0.4,0-0.6,0.3-0.6,0.6c0,0.2,0.1,0.4,0.5,0.6l0.7,0.3
			c0.9,0.3,1.2,1,1.2,1.7c0,1-0.7,1.8-1.8,1.8c-0.9,0-1.7-0.6-1.8-1.8h1.1c0,0.3,0.2,0.7,0.6,0.7c0.3,0,0.7-0.2,0.7-0.6
			c0-0.3-0.1-0.5-0.6-0.7l-0.6-0.2c-0.7-0.3-1.2-0.8-1.2-1.6c0-1,0.8-1.7,1.8-1.7c1,0,1.7,0.7,1.7,1.7H142.7z"/>
		<path fill="#231F20" d="M144.7,98.8h1.2v1.8h0.7v0.9h-0.7v3.3c0,0.5,0.2,0.6,0.7,0.6v1.1h-0.5c-1.1,0-1.4-0.8-1.4-1.4v-3.6h-0.6
			v-0.9h0.6V98.8z"/>
		<path fill="#231F20" d="M149.3,105.9L149.3,105.9c-0.3,0.4-0.6,0.7-1.2,0.7c-0.5,0-1.3-0.3-1.3-1.6c0-1.4,0.4-2,1.9-2
			c0.2,0,0.3,0,0.6,0v-0.6c0-0.4-0.2-0.7-0.6-0.7c-0.3,0-0.6,0.2-0.7,0.6h-1.2c0-0.5,0.2-1,0.5-1.3c0.3-0.3,0.8-0.5,1.3-0.5
			c1,0,1.8,0.6,1.8,1.9v4.1h-1.2V105.9z M149.3,104c-0.1,0-0.2,0-0.3,0c-0.5,0-0.9,0.2-0.9,0.8c0,0.5,0.2,0.8,0.6,0.8
			c0.4,0,0.6-0.3,0.6-0.8V104z"/>
		<path fill="#231F20" d="M151,100.6h1.2v0.6h0c0.2-0.4,0.6-0.6,1.1-0.6c0.6,0,1.2,0.4,1.2,1.4v4.5h-1.2v-4.1c0-0.4-0.2-0.7-0.6-0.7
			c-0.4,0-0.6,0.3-0.6,0.8v4H151V100.6z"/>
		<path fill="#231F20" d="M156.3,104.8c0,0.4,0.2,0.6,0.6,0.6c0.5,0,0.6-0.3,0.6-0.6h1.2c0,0.5-0.2,0.9-0.5,1.3
			c-0.3,0.3-0.7,0.5-1.3,0.5c-0.7,0-1.3-0.3-1.6-0.9c-0.2-0.3-0.2-0.7-0.2-1.2v-2c0-0.5,0.1-0.9,0.2-1.2c0.3-0.5,0.8-0.9,1.6-0.9
			c1.1,0,1.8,0.8,1.8,1.9h-1.2c0-0.5-0.2-0.7-0.6-0.7c-0.4,0-0.6,0.2-0.6,0.7V104.8z"/>
		<path fill="#231F20" d="M160.3,104v0.8c0,0.4,0.2,0.6,0.6,0.6c0.5,0,0.6-0.3,0.6-0.6h1.2c0,0.5-0.2,0.9-0.5,1.3
			c-0.3,0.3-0.7,0.5-1.3,0.5c-0.7,0-1.3-0.3-1.6-0.9c-0.2-0.3-0.2-0.7-0.2-1.2v-2c0-0.5,0.1-0.9,0.2-1.2c0.3-0.5,0.8-0.9,1.6-0.9
			c1.1,0,1.8,0.8,1.8,1.8v1.6H160.3z M160.3,103.1h1.2v-0.7c0-0.4-0.2-0.7-0.6-0.7c-0.4,0-0.6,0.2-0.6,0.7V103.1z"/>
		<path fill="#231F20" d="M167,104.8c0,0.4,0.2,0.6,0.6,0.6c0.5,0,0.6-0.3,0.6-0.6h1.2c0,0.5-0.2,0.9-0.5,1.3
			c-0.3,0.3-0.7,0.5-1.3,0.5c-0.7,0-1.3-0.3-1.6-0.9c-0.2-0.3-0.2-0.7-0.2-1.2v-2c0-0.5,0.1-0.9,0.2-1.2c0.3-0.5,0.8-0.9,1.6-0.9
			c1.1,0,1.8,0.8,1.8,1.9h-1.2c0-0.5-0.2-0.7-0.6-0.7c-0.4,0-0.6,0.2-0.6,0.7V104.8z"/>
		<path fill="#231F20" d="M170.6,100.6l0.8,3.7h0l0.8-3.7h1.2l-1.7,6.9c-0.3,1.1-0.9,1.4-1.6,1.4h-0.3v-1.1h0.3
			c0.5,0,0.6-0.2,0.9-1.5l-1.6-5.7H170.6z"/>
		<path fill="#231F20" d="M174.8,104.8c0,0.4,0.2,0.6,0.6,0.6c0.5,0,0.6-0.3,0.6-0.6h1.2c0,0.5-0.2,0.9-0.5,1.3
			c-0.3,0.3-0.7,0.5-1.3,0.5c-0.7,0-1.3-0.3-1.6-0.9c-0.2-0.3-0.2-0.7-0.2-1.2v-2c0-0.5,0.1-0.9,0.2-1.2c0.3-0.5,0.8-0.9,1.6-0.9
			c1.1,0,1.8,0.8,1.8,1.9H176c0-0.5-0.2-0.7-0.6-0.7c-0.4,0-0.6,0.2-0.6,0.7V104.8z"/>
		<path fill="#231F20" d="M177.6,98.2h1.2v6.6c0,0.4,0.1,0.6,0.6,0.6v1.1c-1.1,0-1.8-0.3-1.8-1.7V98.2z"/>
		<path fill="#231F20" d="M179.8,98.2h1.2v1.2h-1.2V98.2z M179.8,100.6h1.2v5.9h-1.2V100.6z"/>
		<path fill="#231F20" d="M181.8,100.6h1.2v0.6h0c0.2-0.4,0.6-0.6,1.1-0.6c0.6,0,1.2,0.4,1.2,1.4v4.5h-1.2v-4.1
			c0-0.4-0.2-0.7-0.6-0.7c-0.4,0-0.6,0.3-0.6,0.8v4h-1.2V100.6z"/>
		<path fill="#231F20" d="M187.2,107.2c0,0.3,0.2,0.6,0.6,0.6c0.4,0,0.5-0.3,0.5-0.6V106h0c-0.3,0.4-0.6,0.6-1.1,0.6s-0.8-0.2-1-0.6
			c-0.1-0.3-0.2-0.6-0.2-1.3v-2.3c0-0.9,0-1.2,0.2-1.4c0.2-0.3,0.5-0.5,1.1-0.5c0.6,0,0.8,0.3,1.1,0.6v-0.5h1.2v6.6
			c0,0.8-0.5,1.7-1.8,1.7c-0.7,0-1.6-0.4-1.8-1.8H187.2z M187.2,104.7c0,0.4,0.1,0.7,0.6,0.7c0.3,0,0.6-0.3,0.6-0.6v-2.3
			c0-0.4-0.2-0.7-0.6-0.7c-0.4,0-0.6,0.3-0.6,0.8V104.7z"/>
	</g>
</g>
</svg>
