<?xml version="1.0" encoding="utf-8"?>
<!-- Generator: Adobe Illustrator 19.1.0, SVG Export Plug-In . SVG Version: 6.00 Build 0)  -->
<svg version="1.1" id="Layer_1" xmlns="http://www.w3.org/2000/svg" xmlns:xlink="http://www.w3.org/1999/xlink" x="0px" y="0px"
	 viewBox="-23.9 331.8 476.9 130.3" style="enable-background:new -23.9 331.8 476.9 130.3;" xml:space="preserve">
<metadata><?xpacket begin="﻿" id="W5M0MpCehiHzreSzNTczkc9d"?>
<x:xmpmeta xmlns:x="adobe:ns:meta/" x:xmptk="Adobe XMP Core 5.6-c067 79.157747, 2015/03/30-23:40:42        ">
   <rdf:RDF xmlns:rdf="http://www.w3.org/1999/02/22-rdf-syntax-ns#">
      <rdf:Description rdf:about=""/>
   </rdf:RDF>
</x:xmpmeta>
                                                                                                    
                                                                                                    
                                                                                                    
                                                                                                    
                                                                                                    
                                                                                                    
                                                                                                    
                                                                                                    
                                                                                                    
                                                                                                    
                                                                                                    
                                                                                                    
                                                                                                    
                                                                                                    
                                                                                                    
                                                                                                    
                                                                                                    
                                                                                                    
                                                                                                    
                                                                                                    
                           
<?xpacket end="w"?></metadata>
<style type="text/css">
	.st0{display:none;}
	.st1{display:inline;}
	.st2{fill:#EB0029;}
	.st3{fill:#333E48;}
	.st4{fill:#E5022D;}
</style>
<g class="st0">
	<g class="st1">
		<g>
			<path class="st2" d="M31.6,367.3H9.7v-34.9H18v27.5h13.6V367.3z"/>
			<path class="st2" d="M73,349.9c0,5-1.8,9.4-5.3,13.2c-3.5,3.7-7.8,5.6-12.8,5.6s-9.3-1.9-12.8-5.6c-3.5-3.7-5.3-8.1-5.3-13.2
				s1.7-9.5,5.2-13.2s7.8-5.6,12.8-5.6s9.3,1.9,12.9,5.8C71.3,340.5,73,344.9,73,349.9z M64.3,349.9c0-3.1-0.9-5.7-2.8-7.8
				c-1.9-2.1-4.1-3.2-6.5-3.2c-2.6,0-4.9,1-6.7,3.1c-1.8,2.1-2.8,4.7-2.8,7.9c0,3.2,1,5.8,2.9,8c1.8,2,4,3,6.5,3s4.6-1,6.5-3
				C63.4,355.7,64.3,353,64.3,349.9z"/>
			<path class="st2" d="M113,368.6h-0.4l-22.4-20.4v19.1h-7.8v-36.2h0.4l22.4,20.4v-19.1h7.8L113,368.6L113,368.6z"/>
			<path class="st2" d="M154.7,349.9c0,5.1-1.8,9.2-5.3,12.3c-3.7,3.4-9,5.1-15.6,5.1h-9.4v-34.9h9.4c6.7,0,12,1.7,15.7,5.1
				C153,340.7,154.7,344.8,154.7,349.9z M146.2,349.8c0-2.8-0.8-5.1-2.5-6.9c-2-2.2-5.1-3.2-9.2-3.2h-1.8v20.2h1.8
				c4,0,7.1-1.1,9.2-3.2C145.4,354.9,146.2,352.6,146.2,349.8z"/>
			<path class="st2" d="M198,349.9c0,5-1.8,9.4-5.3,13.2c-3.5,3.7-7.8,5.6-12.8,5.6s-9.3-1.9-12.8-5.6c-3.5-3.7-5.3-8.1-5.3-13.2
				s1.7-9.5,5.2-13.2s7.8-5.6,12.8-5.6s9.3,1.9,12.9,5.8C196.2,340.5,198,344.9,198,349.9z M189.3,349.9c0-3.1-0.9-5.7-2.8-7.8
				c-1.9-2.1-4.1-3.2-6.5-3.2c-2.6,0-4.9,1-6.7,3.1c-1.8,2.1-2.8,4.7-2.8,7.9c0,3.2,1,5.8,2.9,8c1.8,2,4,3,6.5,3s4.6-1,6.5-3
				C188.3,355.7,189.3,353,189.3,349.9z"/>
			<path class="st2" d="M237.9,368.6h-0.4L215,348.2v19.1h-7.8v-36.2h0.4l22.4,20.4v-19.1h7.8v36.2H237.9z"/>
		</g>
		<g>
			<path class="st2" d="M31.6,461.5H9.7v-34.8H18v27.5h13.6V461.5z"/>
			<path class="st2" d="M73,444c0,5-1.8,9.4-5.3,13.2c-3.5,3.7-7.8,5.6-12.8,5.6s-9.3-1.9-12.8-5.6c-3.5-3.7-5.3-8.1-5.3-13.2
				c0-5.1,1.7-9.5,5.2-13.2c3.5-3.7,7.8-5.6,12.8-5.6s9.3,1.9,12.9,5.8C71.3,434.7,73,439.1,73,444z M64.3,444
				c0-3.1-0.9-5.7-2.8-7.8S57.4,433,55,433c-2.6,0-4.9,1-6.7,3.1c-1.8,2.1-2.8,4.7-2.8,7.9c0,3.2,1,5.8,2.9,8c1.8,2,4,3,6.5,3
				s4.6-1,6.5-3C63.4,449.8,64.3,447.2,64.3,444z"/>
			<path class="st2" d="M113,462.8h-0.4l-22.4-20.4v19.1h-7.8v-36.2h0.4l22.4,20.4v-19.1h7.8L113,462.8L113,462.8z"/>
			<path class="st2" d="M154.7,444c0,5.1-1.8,9.2-5.3,12.3c-3.7,3.4-9,5.1-15.6,5.1h-9.4v-34.8h9.4c6.7,0,12,1.7,15.7,5.1
				C153,434.9,154.7,439,154.7,444z M146.2,444c0-2.8-0.8-5.1-2.5-6.9c-2-2.2-5.1-3.2-9.2-3.2h-1.8v20.2h1.8c4,0,7.1-1.1,9.2-3.2
				C145.4,449.1,146.2,446.8,146.2,444z"/>
			<path class="st2" d="M198,444c0,5-1.8,9.4-5.3,13.2c-3.5,3.7-7.8,5.6-12.8,5.6s-9.3-1.9-12.8-5.6c-3.5-3.7-5.3-8.1-5.3-13.2
				c0-5.1,1.7-9.5,5.2-13.2c3.5-3.7,7.8-5.6,12.8-5.6s9.3,1.9,12.9,5.8C196.2,434.7,198,439.1,198,444z M189.3,444
				c0-3.1-0.9-5.7-2.8-7.8c-1.9-2.1-4.1-3.2-6.5-3.2c-2.6,0-4.9,1-6.7,3.1s-2.8,4.7-2.8,7.9c0,3.2,1,5.8,2.9,8c1.8,2,4,3,6.5,3
				s4.6-1,6.5-3C188.3,449.8,189.3,447.2,189.3,444z"/>
			<path class="st2" d="M237.9,462.8h-0.4L215,442.4v19.1h-7.8v-36.2h0.4l22.4,20.4v-19.1h7.8v36.2H237.9z"/>
		</g>
		<g>
			<path class="st3" d="M3.8,414.4h-21.9v-34.9H3.5v7.3H-9.8v6.3H1.6v7.1H-9.8v6.9H3.8C3.8,407.1,3.8,414.4,3.8,414.4z"/>
			<path class="st3" d="M40.1,396.9c0,5.1-1.8,9.2-5.3,12.3c-3.7,3.4-9,5.1-15.6,5.1H9.8v-34.8h9.4c6.7,0,12,1.7,15.7,5.1
				C38.4,387.8,40.1,391.9,40.1,396.9z M31.6,396.9c0-2.8-0.8-5.1-2.5-6.9c-2-2.2-5.1-3.2-9.2-3.2h-1.8V407h1.8c4,0,7.1-1.1,9.2-3.2
				C30.8,402,31.6,399.7,31.6,396.9z"/>
			<path class="st3" d="M53.3,414.4H45v-34.9h8.3V414.4z"/>
			<path class="st3" d="M91,415.7h-0.4l-22.4-20.4v19.1h-7.8v-36.2h0.4l22.4,20.4v-19.1H91V415.7z"/>
			<path class="st3" d="M122.2,404.3c0,3.1-1.2,5.6-3.7,7.4c-2.5,1.8-5.9,2.7-10.3,2.7H98.1v-34.9h11.1c3.7,0,6.7,0.8,8.7,2.3
				c2.1,1.6,3.1,3.7,3.1,6.4c0,3.6-1.8,6.1-5.5,7.5c2,0.7,3.6,1.7,4.7,3.1C121.6,400.4,122.2,402.2,122.2,404.3z M113.7,389.3
				c0-2.6-1.7-3.9-5.2-3.9h-2.9v8h3.2c1.7,0,3-0.5,3.9-1.4C113.3,391.3,113.7,390.4,113.7,389.3z M114.6,403.4
				c0-2.9-1.9-4.3-5.6-4.3h-3.4v9.1h2.9c2.1,0,3.7-0.5,4.8-1.5C114.1,405.7,114.6,404.7,114.6,403.4z"/>
			<path class="st3" d="M156.3,400.7c0,4.3-1.2,7.9-3.7,10.6c-2.6,3-6.2,4.4-10.8,4.4s-8.2-1.4-10.9-4.1c-2.7-2.8-4-6.4-4-10.9
				v-21.2h8.3v20.4c0,2.5,0.5,4.4,1.6,5.8c1.2,1.6,2.9,2.4,5.3,2.4c4.6,0,6.9-2.7,6.9-8v-20.6h7.3L156.3,400.7L156.3,400.7z"/>
			<path class="st3" d="M191.4,414.4H182l-9.5-13.6h-1.4v13.6H163v-34.9h11.5c3.7,0,6.8,1,9.2,3s3.6,4.4,3.6,7.4
				c0,2.2-0.6,4.1-1.7,5.8c-1.2,1.8-3,3-5.2,3.7L191.4,414.4z M179.3,390.6c0-3.1-1.8-4.6-5.4-4.6h-2.7v9.5h3c1.8,0,3.1-0.5,4-1.6
				C178.9,392.9,179.3,391.8,179.3,390.6z"/>
			<path class="st3" d="M223.2,412c-1.2,1-3.1,1.8-5.8,2.6c-2.7,0.8-5.2,1.1-7.4,1.1c-5.1,0-9.5-1.8-13.2-5.5s-5.5-8.1-5.5-13.3
				c0-5,1.8-9.4,5.5-13.2c3.7-3.7,8.1-5.6,13.4-5.6c4.3,0,8.1,1.3,11.2,3.8l-0.9,8.6c-3-3.1-6.3-4.6-10-4.6c-3,0-5.5,1-7.5,3
				c-2.1,2.1-3.1,4.8-3.1,8.1c0,3.3,1,6,3.1,8c2.1,2.1,4.6,3.1,7.7,3.1c1.4,0,2.8-0.2,4.3-0.7v-5.2h-6.7v-7h14.9L223.2,412
				L223.2,412z"/>
			<path class="st3" d="M259.5,414.4h-8.3v-14.7h-13.3v14.7h-8.3v-34.9h8.3v12.7h13.3v-12.7h8.3V414.4z"/>
		</g>
	</g>
</g>
<g>
	<rect x="280.6" y="349.8" class="st3" width="3" height="94.2"/>
</g>
<g>
	<g>
		<path class="st4" d="M341.2,413.6l-1.2,7.8h-35.3v-2l19.8-22.1c3.9-4.3,5.8-8,5.8-11.1c0-2.2-0.7-4.1-2.2-5.5
			c-1.6-1.5-3.7-2.3-6.4-2.3c-4,0-7.1,2.5-9.4,7.4l-7.1-3.6c1.4-3.6,3.6-6.4,6.5-8.5c3-2.1,6.4-3.1,10.3-3.1c4.7,0,8.6,1.4,11.8,4.1
			c3.3,2.9,5,6.7,5,11.3c0,5-2.8,10.5-8.4,16.3l-10.8,11.3L341.2,413.6L341.2,413.6z"/>
		<path class="st4" d="M381.9,396.8c0,9.7-2,16.7-6,21.2c-3,3.4-6.8,5.1-11.3,5.1c-5.3,0-9.5-2.3-12.6-6.8
			c-3.2-4.7-4.8-11.3-4.8-19.8c0-8,1.6-14.3,4.8-19c3.2-4.7,7.4-7,12.6-7c4.7,0,8.6,1.9,11.8,5.7C380,381,381.9,387.8,381.9,396.8z
			 M373.5,396.8c0-7-1.1-12.1-3.2-15.2c-1.5-2.1-3.4-3.2-5.7-3.2c-2.2,0-4.2,1.2-5.8,3.6c-2.1,3.2-3.2,8-3.2,14.3
			c0,7,1.1,12.2,3.4,15.4c1.5,2.3,3.4,3.5,5.7,3.5c2.2,0,4.1-1.1,5.6-3.2C372.4,409,373.5,403.9,373.5,396.8z"/>
		<path class="st4" d="M405.6,421.4h-8.3v-42.3h-7.1l1.3-6.7h14.1V421.4z"/>
		<path class="st4" d="M453,372.4l-22.3,49h-9l19-41.1h-23.2v-7.9H453z"/>
	</g>
</g>
<g>
	<g>
		<g>
			<path class="st4" d="M25.3,367.6H3.7v-34.5h8.2v27.2h13.4V367.6z"/>
			<path class="st4" d="M67.6,350.4c0,5-1.7,9.3-5.2,13c-3.5,3.7-7.7,5.6-12.6,5.6c-5,0-9.2-1.9-12.7-5.6c-3.5-3.7-5.2-8.1-5.2-13
				c0-5,1.7-9.4,5.2-13.1c3.4-3.7,7.7-5.5,12.7-5.5s9.2,1.9,12.7,5.7C65.9,341.1,67.6,345.4,67.6,350.4z M59,350.4
				c0-3.1-0.9-5.6-2.8-7.7s-4-3.2-6.4-3.2c-2.6,0-4.8,1-6.6,3.1c-1.8,2.1-2.7,4.6-2.7,7.8c0,3.1,1,5.7,2.9,7.9c1.8,2,3.9,3,6.4,3
				c2.4,0,4.6-1,6.4-3C58.1,356.1,59,353.5,59,350.4z"/>
			<path class="st4" d="M108.3,368.9h-0.4l-22.2-20.2v18.9H78v-35.8h0.4l22.2,20.2v-18.9h7.7L108.3,368.9L108.3,368.9z"/>
			<path class="st4" d="M150.9,350.4c0,5-1.7,9.1-5.2,12.2c-3.7,3.3-8.9,5-15.5,5h-9.3v-34.5h9.3c6.7,0,11.8,1.7,15.6,5
				C149.2,341.3,150.9,345.3,150.9,350.4z M142.5,350.3c0-2.8-0.8-5-2.5-6.8c-2-2.1-5-3.2-9.1-3.2h-1.8v20h1.8c4,0,7-1.1,9.1-3.2
				C141.7,355.3,142.5,353.1,142.5,350.3z"/>
			<path class="st4" d="M189.3,367.6H180l-9.4-13.5h-1.4v13.5h-8.1v-34.5h11.4c3.7,0,6.7,1,9.1,3c2.4,2,3.6,4.4,3.6,7.3
				c0,2.2-0.6,4.1-1.7,5.7c-1.2,1.7-2.9,3-5.2,3.7L189.3,367.6z M177.3,344.1c0-3.1-1.8-4.6-5.4-4.6h-2.7v9.4h3
				c1.7,0,3.1-0.5,3.9-1.6C177,346.4,177.3,345.3,177.3,344.1z"/>
			<path class="st4" d="M231.3,367.6h-8.7l-2.2-5.1h-14.3l-2.3,5.1h-8.1l17.7-35.3h0.5L231.3,367.6z M217.9,356.5l-4.5-10.7
				l-4.7,10.7H217.9z"/>
		</g>
		<g>
			<path class="st4" d="M25.3,460.8H3.7v-34.5h8.2v27.2h13.4V460.8z"/>
			<path class="st4" d="M67.6,443.5c0,5-1.7,9.3-5.2,13c-3.5,3.7-7.7,5.6-12.6,5.6c-5,0-9.2-1.9-12.7-5.6s-5.2-8.1-5.2-13
				c0-5,1.7-9.4,5.2-13.1c3.4-3.7,7.7-5.5,12.7-5.5s9.2,1.9,12.7,5.7C65.9,434.3,67.6,438.6,67.6,443.5z M59,443.5
				c0-3.1-0.9-5.6-2.8-7.7s-4-3.2-6.4-3.2c-2.6,0-4.8,1-6.6,3.1c-1.8,2-2.7,4.6-2.7,7.8c0,3.1,1,5.7,2.9,7.9c1.8,2,3.9,3,6.4,3
				c2.4,0,4.6-1,6.4-3C58.1,449.3,59,446.7,59,443.5z"/>
			<path class="st4" d="M108.3,462.1h-0.4l-22.3-20.2v18.9h-7.7V425h0.4l22.2,20.2v-18.9h7.7L108.3,462.1L108.3,462.1z"/>
			<path class="st4" d="M150.9,443.5c0,5-1.7,9.1-5.2,12.2c-3.7,3.3-8.9,5-15.5,5h-9.3v-34.5h9.3c6.7,0,11.8,1.7,15.6,5
				C149.2,434.4,150.9,438.5,150.9,443.5z M142.5,443.5c0-2.8-0.8-5-2.5-6.8c-2-2.1-5-3.2-9.1-3.2h-1.8v20h1.8c4,0,7-1.1,9.1-3.2
				C141.7,448.5,142.5,446.2,142.5,443.5z"/>
			<path class="st4" d="M189.3,460.8H180l-9.4-13.5h-1.4v13.5h-8.1v-34.5h11.4c3.7,0,6.7,1,9.1,3c2.4,2,3.6,4.4,3.6,7.3
				c0,2.2-0.6,4.1-1.7,5.7c-1.2,1.7-2.9,3-5.2,3.7L189.3,460.8z M177.3,437.2c0-3.1-1.8-4.6-5.4-4.6h-2.7v9.4h3
				c1.7,0,3.1-0.5,3.9-1.6C177,439.5,177.3,438.5,177.3,437.2z"/>
			<path class="st4" d="M231.3,460.8h-8.7l-2.2-5.1h-14.3l-2.3,5.1h-8.1l17.7-35.3h0.5L231.3,460.8z M217.9,449.7l-4.5-10.7
				l-4.7,10.7H217.9z"/>
		</g>
		<g>
			<path class="st3" d="M-2.3,414.2h-21.6v-34.5h21.4v7.2h-13.2v6.2h11.3v7h-11.3v6.8h13.4C-2.3,406.9-2.3,414.2-2.3,414.2z"/>
			<path class="st3" d="M33.6,396.9c0,5-1.7,9.1-5.2,12.2c-3.7,3.3-8.9,5-15.5,5H3.6v-34.4H13c6.7,0,11.8,1.7,15.6,5
				C31.9,387.9,33.6,391.9,33.6,396.9z M25.3,396.9c0-2.8-0.8-5-2.5-6.8c-2-2.1-5-3.2-9.1-3.2h-1.8v20h1.8c4,0,7-1.1,9.1-3.2
				C24.4,401.9,25.3,399.7,25.3,396.9z"/>
			<path class="st3" d="M46.7,414.2h-8.2v-34.5h8.2V414.2z"/>
			<path class="st3" d="M91.9,414.2h-7.7l-3-15.9l-9.5,17.2h-0.4l-10.1-17.6L58,414.2h-7.2l7.2-35.8h0.4l13.1,22.9L84,378.4h0.4
				L91.9,414.2z"/>
			<path class="st3" d="M119.9,404.2c0,3.1-1.2,5.5-3.7,7.3c-2.4,1.8-5.9,2.7-10.2,2.7h-9.9v-34.5h11c3.7,0,6.6,0.8,8.6,2.3
				c2.1,1.5,3.1,3.6,3.1,6.3c0,3.5-1.8,6-5.4,7.4c2,0.7,3.5,1.7,4.7,3.1C119.3,400.3,119.9,402.1,119.9,404.2z M111.5,389.4
				c0-2.6-1.7-3.8-5.1-3.8h-2.9v7.9h3.2c1.7,0,3-0.5,3.8-1.4C111.1,391.4,111.5,390.5,111.5,389.4z M112.4,403.3
				c0-2.9-1.9-4.3-5.6-4.3h-3.3v9h2.9c2.1,0,3.7-0.5,4.7-1.5C111.9,405.6,112.4,404.6,112.4,403.3z"/>
			<path class="st3" d="M153.6,400.6c0,4.3-1.2,7.8-3.6,10.5c-2.6,2.9-6.2,4.4-10.7,4.4c-4.6,0-8.2-1.4-10.8-4.1
				c-2.6-2.7-3.9-6.3-3.9-10.8v-20.9h8.2v20.2c0,2.4,0.5,4.3,1.6,5.8c1.2,1.6,2.9,2.4,5.2,2.4c4.6,0,6.9-2.6,6.9-7.9v-20.5h7.2
				L153.6,400.6L153.6,400.6z"/>
			<path class="st3" d="M188.4,414.2h-9.3l-9.4-13.5h-1.4v13.5h-8.1v-34.5h11.4c3.7,0,6.7,1,9.1,3c2.4,2,3.6,4.4,3.6,7.3
				c0,2.2-0.6,4.1-1.7,5.7c-1.2,1.7-2.9,3-5.2,3.7L188.4,414.2z M176.4,390.6c0-3.1-1.8-4.6-5.4-4.6h-2.7v9.4h3
				c1.7,0,3.1-0.5,3.9-1.6C176,393,176.4,391.9,176.4,390.6z"/>
			<path class="st3" d="M219.8,411.9c-1.1,1-3.1,1.8-5.7,2.6c-2.7,0.8-5.1,1.1-7.4,1.1c-5.1,0-9.4-1.8-13-5.4s-5.5-8-5.5-13.2
				c0-5,1.8-9.3,5.4-13c3.6-3.7,8-5.6,13.3-5.6c4.3,0,8,1.2,11.1,3.7l-0.9,8.5c-3-3.1-6.2-4.6-9.8-4.6c-3,0-5.5,1-7.4,3
				c-2.1,2.1-3.1,4.7-3.1,8c0,3.2,1,5.9,3.1,7.9c2,2,4.6,3.1,7.6,3.1c1.4,0,2.8-0.2,4.3-0.7v-5.2h-6.6v-6.9h14.7v16.7H219.8z"/>
			<path class="st3" d="M259.5,396.9c0,5-1.7,9.3-5.2,13c-3.5,3.7-7.7,5.6-12.6,5.6c-5,0-9.2-1.9-12.7-5.6c-3.5-3.7-5.2-8.1-5.2-13
				c0-5,1.7-9.4,5.2-13.1c3.4-3.7,7.7-5.5,12.7-5.5s9.2,1.9,12.7,5.7C257.8,387.7,259.5,392,259.5,396.9z M251,396.9
				c0-3.1-0.9-5.6-2.8-7.7s-4-3.2-6.4-3.2c-2.6,0-4.8,1-6.6,3.1c-1.8,2-2.7,4.6-2.7,7.8c0,3.1,1,5.7,2.9,7.9c1.8,2,3.9,3,6.4,3
				c2.4,0,4.6-1,6.4-3C250,402.7,251,400.1,251,396.9z"/>
		</g>
	</g>
</g>
</svg>
