<?xml version="1.0" encoding="utf-8"?>
<!-- Generator: Adobe Illustrator 19.1.0, SVG Export Plug-In . SVG Version: 6.00 Build 0)  -->
<svg version="1.1" id="Layer_1" xmlns="http://www.w3.org/2000/svg" xmlns:xlink="http://www.w3.org/1999/xlink" x="0px" y="0px"
	 viewBox="0 0 560.5 204.1" enable-background="new 0 0 560.5 204.1" xml:space="preserve">
<metadata><?xpacket begin="﻿" id="W5M0MpCehiHzreSzNTczkc9d"?>
<x:xmpmeta xmlns:x="adobe:ns:meta/" x:xmptk="Adobe XMP Core 5.6-c067 79.157747, 2015/03/30-23:40:42        ">
   <rdf:RDF xmlns:rdf="http://www.w3.org/1999/02/22-rdf-syntax-ns#">
      <rdf:Description rdf:about=""/>
   </rdf:RDF>
</x:xmpmeta>
                                                                                                    
                                                                                                    
                                                                                                    
                                                                                                    
                                                                                                    
                                                                                                    
                                                                                                    
                                                                                                    
                                                                                                    
                                                                                                    
                                                                                                    
                                                                                                    
                                                                                                    
                                                                                                    
                                                                                                    
                                                                                                    
                                                                                                    
                                                                                                    
                                                                                                    
                                                                                                    
                           
<?xpacket end="w"?></metadata>
<g>
	
		<rect x="80.6" y="56.3" transform="matrix(0.7071 -0.7071 0.7071 0.7071 -35.1307 119.2813)" fill="#333E48" width="91.5" height="91.5"/>
	<polygon fill="#E40B2F" points="126.4,166.8 146.7,187.1 211.5,122.4 231.8,102 146.7,17 126.4,37.3 191.1,102 	"/>
	<polygon fill="#E40B2F" points="41.4,122.4 41.4,122.4 106.1,187.1 126.4,166.8 61.7,102 126.4,37.3 106.1,17 41.4,81.7 21.1,102 	
		"/>
	<polygon fill="#FFFFFF" points="139.9,68.3 126,54.4 79.5,100.9 126.2,147.6 172.7,101.1 158.9,87.2 127.9,118.2 124.1,114.4 
		154.3,84.2 142.9,72.8 112.8,103 109,99.2 	"/>
</g>
<g>
	<g>
		<g>
			<path fill="#E40B2F" d="M302.6,72.4h-21.9V37.5h8.3V65h13.6V72.4z"/>
			<path fill="#E40B2F" d="M343,55c0,5-1.8,9.4-5.3,13.2c-3.5,3.7-7.8,5.6-12.8,5.6c-5,0-9.3-1.9-12.8-5.6
				c-3.5-3.7-5.3-8.1-5.3-13.2c0-5.1,1.7-9.5,5.2-13.2c3.5-3.7,7.8-5.6,12.8-5.6c5,0,9.3,1.9,12.9,5.8C341.3,45.6,343,50,343,55z
				 M334.3,55c0-3.1-0.9-5.7-2.8-7.8c-1.9-2.1-4.1-3.2-6.5-3.2c-2.6,0-4.9,1-6.7,3.1c-1.8,2.1-2.8,4.7-2.8,7.9c0,3.2,1,5.8,2.9,8
				c1.8,2,4,3,6.5,3c2.5,0,4.6-1,6.5-3C333.4,60.8,334.3,58.1,334.3,55z"/>
			<path fill="#E40B2F" d="M381.9,73.7h-0.4L359,53.3v19.1h-7.8V36.2h0.4l22.4,20.4V37.5h7.8V73.7z"/>
			<path fill="#E40B2F" d="M422.6,55c0,5.1-1.8,9.2-5.3,12.3c-3.7,3.4-9,5.1-15.6,5.1h-9.4V37.5h9.4c6.7,0,12,1.7,15.7,5.1
				C420.9,45.8,422.6,49.9,422.6,55z M414.1,54.9c0-2.8-0.8-5.1-2.5-6.9c-2-2.2-5.1-3.2-9.2-3.2h-1.8V65h1.8c4,0,7.1-1.1,9.2-3.2
				C413.3,60,414.1,57.7,414.1,54.9z"/>
			<path fill="#E40B2F" d="M459.1,72.4h-9.4l-9.5-13.6h-1.4v13.6h-8.2V37.5h11.5c3.7,0,6.8,1,9.2,3c2.4,2,3.6,4.4,3.6,7.4
				c0,2.2-0.6,4.1-1.7,5.8c-1.2,1.8-3,3-5.2,3.7L459.1,72.4z M447,48.6c0-3.1-1.8-4.6-5.4-4.6h-2.7v9.5h3c1.8,0,3.1-0.5,4-1.6
				C446.6,50.9,447,49.8,447,48.6z"/>
			<path fill="#E40B2F" d="M487.3,72.4h-21.9V37.5H487v7.3h-13.3v6.3h11.4v7.1h-11.4V65h13.6V72.4z"/>
			<path fill="#E40B2F" d="M517.8,62c0,3.4-1.1,6.1-3.3,8.3c-2.3,2.3-5.4,3.4-9.1,3.4c-3.7,0-6.9-0.6-9.8-1.8l-0.6-9.1
				c3.5,2.4,6.9,3.6,10,3.6c3.2,0,4.8-1.2,4.8-3.7c0-1.1-0.6-2.1-1.7-3c-0.6-0.5-2-1.3-4.1-2.4l-2.5-1.3c-4.6-2.5-6.9-5.7-6.9-9.8
				c0-2.8,1.1-5.2,3.2-7.1c2.2-1.9,4.9-2.9,8.3-2.9c1.7,0,3.5,0.3,5.5,0.8c1.5,0.4,2.6,0.8,3.4,1.2l0.1,8c-3.3-2.2-6.2-3.3-8.8-3.3
				c-2.5,0-3.8,1.1-3.8,3.3c0,1.2,1.5,2.6,4.6,4.2l3.1,1.6C515.3,54.5,517.8,57.9,517.8,62z"/>
		</g>
		<g>
			<path fill="#E40B2F" d="M302.6,166.6h-21.9v-34.8h8.3v27.5h13.6V166.6z"/>
			<path fill="#E40B2F" d="M343,149.1c0,5-1.8,9.4-5.3,13.2c-3.5,3.7-7.8,5.6-12.8,5.6c-5,0-9.3-1.9-12.8-5.6
				c-3.5-3.7-5.3-8.1-5.3-13.2c0-5.1,1.7-9.5,5.2-13.2c3.5-3.7,7.8-5.6,12.8-5.6c5,0,9.3,1.9,12.9,5.8
				C341.3,139.8,343,144.2,343,149.1z M334.3,149.1c0-3.1-0.9-5.7-2.8-7.8s-4.1-3.2-6.5-3.2c-2.6,0-4.9,1-6.7,3.1
				c-1.8,2.1-2.8,4.7-2.8,7.9c0,3.2,1,5.8,2.9,8c1.8,2,4,3,6.5,3c2.5,0,4.6-1,6.5-3C333.4,154.9,334.3,152.3,334.3,149.1z"/>
			<path fill="#E40B2F" d="M381.9,167.9h-0.4L359,147.5v19.1h-7.8v-36.2h0.4l22.4,20.4v-19.1h7.8V167.9z"/>
			<path fill="#E40B2F" d="M422.6,149.1c0,5.1-1.8,9.2-5.3,12.3c-3.7,3.4-9,5.1-15.6,5.1h-9.4v-34.8h9.4c6.7,0,12,1.7,15.7,5.1
				C420.9,140,422.6,144.1,422.6,149.1z M414.1,149.1c0-2.8-0.8-5.1-2.5-6.9c-2-2.2-5.1-3.2-9.2-3.2h-1.8v20.2h1.8
				c4,0,7.1-1.1,9.2-3.2C413.3,154.2,414.1,151.9,414.1,149.1z"/>
			<path fill="#E40B2F" d="M459.1,166.6h-9.4l-9.5-13.6h-1.4v13.6h-8.2v-34.8h11.5c3.7,0,6.8,1,9.2,3c2.4,2,3.6,4.4,3.6,7.4
				c0,2.2-0.6,4.1-1.7,5.8c-1.2,1.8-3,3-5.2,3.7L459.1,166.6z M447,142.8c0-3.1-1.8-4.6-5.4-4.6h-2.7v9.5h3c1.8,0,3.1-0.5,4-1.6
				C446.6,145.1,447,144,447,142.8z"/>
			<path fill="#E40B2F" d="M487.3,166.6h-21.9v-34.8H487v7.3h-13.3v6.3h11.4v7.1h-11.4v6.9h13.6V166.6z"/>
			<path fill="#E40B2F" d="M517.8,156.2c0,3.4-1.1,6.1-3.3,8.3c-2.3,2.3-5.4,3.4-9.1,3.4c-3.7,0-6.9-0.6-9.8-1.8L495,157
				c3.5,2.4,6.9,3.6,10,3.6c3.2,0,4.8-1.2,4.8-3.7c0-1.1-0.6-2.1-1.7-3c-0.6-0.5-2-1.3-4.1-2.4l-2.5-1.3c-4.6-2.5-6.9-5.7-6.9-9.8
				c0-2.8,1.1-5.2,3.2-7.1c2.2-1.9,4.9-2.9,8.3-2.9c1.7,0,3.5,0.3,5.5,0.8c1.5,0.4,2.6,0.8,3.4,1.2l0.1,8c-3.3-2.2-6.2-3.3-8.8-3.3
				c-2.5,0-3.8,1.1-3.8,3.3c0,1.2,1.5,2.6,4.6,4.2l3.1,1.6C515.3,148.7,517.8,152.1,517.8,156.2z"/>
		</g>
		<g>
			<path fill="#FFFFFF" d="M274.7,119.5h-21.9V84.6h21.6v7.3h-13.3v6.3h11.4v7.1h-11.4v6.9h13.6V119.5z"/>
			<path fill="#FFFFFF" d="M311,102c0,5.1-1.8,9.2-5.3,12.3c-3.7,3.4-9,5.1-15.6,5.1h-9.4V84.6h9.4c6.7,0,12,1.7,15.7,5.1
				C309.3,92.9,311,97,311,102z M302.6,102c0-2.8-0.8-5.1-2.5-6.9c-2-2.2-5.1-3.2-9.2-3.2H289v20.2h1.8c4,0,7.1-1.1,9.2-3.2
				C301.7,107.1,302.6,104.8,302.6,102z"/>
			<path fill="#FFFFFF" d="M324.2,119.5h-8.3V84.6h8.3V119.5z"/>
			<path fill="#FFFFFF" d="M369.9,119.5h-7.8l-3-16.1l-9.6,17.4h-0.4l-10.2-17.8l-3.2,16.5h-7.3l7.3-36.2h0.4l13.3,23.2l12.6-23.2
				h0.4L369.9,119.5z"/>
			<path fill="#FFFFFF" d="M398.3,109.4c0,3.1-1.2,5.6-3.7,7.4c-2.5,1.8-5.9,2.7-10.3,2.7h-10.1V84.6h11.1c3.7,0,6.7,0.8,8.7,2.3
				c2.1,1.6,3.1,3.7,3.1,6.4c0,3.6-1.8,6.1-5.5,7.5c2,0.7,3.6,1.7,4.7,3.1C397.7,105.5,398.3,107.3,398.3,109.4z M389.7,94.4
				c0-2.6-1.7-3.9-5.2-3.9h-2.9v8h3.2c1.7,0,3-0.5,3.9-1.4C389.4,96.4,389.7,95.5,389.7,94.4z M390.6,108.5c0-2.9-1.9-4.3-5.6-4.3
				h-3.4v9.1h2.9c2.1,0,3.7-0.5,4.8-1.5C390.2,110.8,390.6,109.8,390.6,108.5z"/>
			<path fill="#FFFFFF" d="M432.3,105.8c0,4.3-1.2,7.9-3.7,10.6c-2.6,3-6.2,4.4-10.8,4.4c-4.6,0-8.2-1.4-10.9-4.1
				c-2.7-2.8-4-6.4-4-10.9V84.6h8.3V105c0,2.5,0.5,4.4,1.6,5.8c1.2,1.6,2.9,2.4,5.3,2.4c4.6,0,6.9-2.7,6.9-8V84.6h7.3V105.8z"/>
			<path fill="#FFFFFF" d="M467.4,119.5h-9.4l-9.5-13.6h-1.4v13.6h-8.2V84.6h11.5c3.7,0,6.8,1,9.2,3c2.4,2,3.6,4.4,3.6,7.4
				c0,2.2-0.6,4.1-1.7,5.8c-1.2,1.8-3,3-5.2,3.7L467.4,119.5z M455.3,95.7c0-3.1-1.8-4.6-5.4-4.6h-2.7v9.5h3c1.8,0,3.1-0.5,4-1.6
				C455,98,455.3,96.9,455.3,95.7z"/>
			<path fill="#FFFFFF" d="M499.2,117.1c-1.2,1-3.1,1.8-5.8,2.6c-2.7,0.8-5.2,1.1-7.4,1.1c-5.1,0-9.5-1.8-13.2-5.5
				c-3.7-3.7-5.5-8.1-5.5-13.3c0-5,1.8-9.4,5.5-13.2c3.7-3.7,8.1-5.6,13.4-5.6c4.3,0,8.1,1.3,11.2,3.8l-0.9,8.6
				c-3-3.1-6.3-4.6-10-4.6c-3,0-5.5,1-7.5,3c-2.1,2.1-3.1,4.8-3.1,8.1c0,3.3,1,6,3.1,8c2.1,2.1,4.6,3.1,7.7,3.1
				c1.4,0,2.8-0.2,4.3-0.7v-5.2h-6.7v-7h14.9V117.1z"/>
			<path fill="#FFFFFF" d="M539.4,102c0,5-1.8,9.4-5.3,13.2c-3.5,3.8-7.8,5.6-12.8,5.6c-5,0-9.3-1.9-12.8-5.6
				c-3.5-3.7-5.3-8.1-5.3-13.2c0-5.1,1.7-9.5,5.2-13.2c3.5-3.7,7.8-5.6,12.8-5.6c5,0,9.3,1.9,12.9,5.8
				C537.7,92.7,539.4,97.1,539.4,102z M530.7,102c0-3.1-0.9-5.7-2.8-7.8c-1.9-2.1-4.1-3.2-6.5-3.2c-2.6,0-4.9,1-6.7,3.1
				c-1.8,2.1-2.8,4.7-2.8,7.9c0,3.2,1,5.8,2.9,8c1.8,2,4,3,6.5,3c2.5,0,4.6-1,6.5-3C529.8,107.9,530.7,105.2,530.7,102z"/>
		</g>
	</g>
</g>
</svg>
