<?xml version="1.0" encoding="utf-8"?>
<!-- Generator: Adobe Illustrator 19.1.0, SVG Export Plug-In . SVG Version: 6.00 Build 0)  -->
<svg version="1.1" id="Layer_1" xmlns="http://www.w3.org/2000/svg" xmlns:xlink="http://www.w3.org/1999/xlink" x="0px" y="0px"
	 viewBox="0 0 557.4 204.1" enable-background="new 0 0 557.4 204.1" xml:space="preserve">
<metadata><?xpacket begin="﻿" id="W5M0MpCehiHzreSzNTczkc9d"?>
<x:xmpmeta xmlns:x="adobe:ns:meta/" x:xmptk="Adobe XMP Core 5.6-c067 79.157747, 2015/03/30-23:40:42        ">
   <rdf:RDF xmlns:rdf="http://www.w3.org/1999/02/22-rdf-syntax-ns#">
      <rdf:Description rdf:about=""/>
   </rdf:RDF>
</x:xmpmeta>
                                                                                                    
                                                                                                    
                                                                                                    
                                                                                                    
                                                                                                    
                                                                                                    
                                                                                                    
                                                                                                    
                                                                                                    
                                                                                                    
                                                                                                    
                                                                                                    
                                                                                                    
                                                                                                    
                                                                                                    
                                                                                                    
                                                                                                    
                                                                                                    
                                                                                                    
                                                                                                    
                           
<?xpacket end="w"?></metadata>
<g>
	
		<rect x="80.6" y="56.3" transform="matrix(0.7071 -0.7071 0.7071 0.7071 -35.1307 119.2813)" fill="#333E48" width="91.5" height="91.5"/>
	<polygon fill="#E5022D" points="126.4,166.8 146.7,187.1 211.5,122.4 231.8,102 146.7,17 126.4,37.3 191.1,102 	"/>
	<polygon fill="#E5022D" points="41.4,122.4 41.4,122.4 106.1,187.1 126.4,166.8 61.7,102 126.4,37.3 106.1,17 41.4,81.7 21.1,102 	
		"/>
	<polygon fill="#FFFFFF" points="139.9,68.3 126,54.4 79.5,100.9 126.2,147.6 172.7,101.1 158.9,87.2 127.9,118.2 124.1,114.4 
		154.3,84.2 142.9,72.8 112.8,103 109,99.2 	"/>
</g>
<g>
	<g>
		<g>
			<path fill="#E5022D" d="M302.1,72.7h-21.7V38.2h8.2v27.2h13.4V72.7z"/>
			<path fill="#E5022D" d="M344.4,55.5c0,5-1.7,9.3-5.2,13c-3.5,3.7-7.7,5.6-12.6,5.6c-5,0-9.2-1.9-12.7-5.6
				c-3.5-3.7-5.2-8.1-5.2-13c0-5,1.7-9.4,5.2-13.1c3.4-3.7,7.7-5.5,12.7-5.5c5,0,9.2,1.9,12.7,5.7C342.7,46.2,344.4,50.5,344.4,55.5
				z M335.8,55.5c0-3.1-0.9-5.6-2.8-7.7c-1.9-2.1-4-3.2-6.4-3.2c-2.6,0-4.8,1-6.6,3.1s-2.7,4.6-2.7,7.8c0,3.1,1,5.7,2.9,7.9
				c1.8,2,3.9,3,6.4,3c2.4,0,4.6-1,6.4-3C334.9,61.2,335.8,58.6,335.8,55.5z"/>
			<path fill="#E5022D" d="M385,74h-0.4l-22.2-20.2v18.9h-7.7V36.9h0.4l22.2,20.2V38.2h7.7V74z"/>
			<path fill="#E5022D" d="M427.6,55.5c0,5-1.7,9.1-5.2,12.2c-3.7,3.3-8.9,5-15.5,5h-9.3V38.2h9.3c6.7,0,11.8,1.7,15.6,5
				C425.9,46.4,427.6,50.4,427.6,55.5z M419.3,55.4c0-2.8-0.8-5-2.5-6.8c-2-2.1-5-3.2-9.1-3.2h-1.8v20h1.8c4,0,7-1.1,9.1-3.2
				C418.4,60.4,419.3,58.2,419.3,55.4z"/>
			<path fill="#E5022D" d="M466.1,72.7h-9.3l-9.4-13.5h-1.4v13.5H438V38.2h11.4c3.7,0,6.7,1,9.1,3c2.4,2,3.6,4.4,3.6,7.3
				c0,2.2-0.6,4.1-1.7,5.7c-1.2,1.7-2.9,3-5.2,3.7L466.1,72.7z M454.1,49.2c0-3.1-1.8-4.6-5.4-4.6h-2.7V54h3c1.7,0,3.1-0.5,3.9-1.6
				C453.7,51.5,454.1,50.4,454.1,49.2z"/>
			<path fill="#E5022D" d="M508,72.7h-8.7l-2.2-5.1h-14.3l-2.3,5.1h-8.1l17.7-35.3h0.5L508,72.7z M494.7,61.6l-4.5-10.7l-4.7,10.7
				H494.7z"/>
		</g>
		<g>
			<path fill="#E5022D" d="M302.1,165.9h-21.7v-34.5h8.2v27.2h13.4V165.9z"/>
			<path fill="#E5022D" d="M344.4,148.6c0,5-1.7,9.3-5.2,13c-3.5,3.7-7.7,5.6-12.6,5.6c-5,0-9.2-1.9-12.7-5.6
				c-3.5-3.7-5.2-8.1-5.2-13c0-5,1.7-9.4,5.2-13.1c3.4-3.7,7.7-5.5,12.7-5.5c5,0,9.2,1.9,12.7,5.7
				C342.7,139.4,344.4,143.7,344.4,148.6z M335.8,148.6c0-3.1-0.9-5.6-2.8-7.7c-1.9-2.1-4-3.2-6.4-3.2c-2.6,0-4.8,1-6.6,3.1
				c-1.8,2-2.7,4.6-2.7,7.8c0,3.1,1,5.7,2.9,7.9c1.8,2,3.9,3,6.4,3c2.4,0,4.6-1,6.4-3C334.9,154.4,335.8,151.8,335.8,148.6z"/>
			<path fill="#E5022D" d="M385,167.2h-0.4L362.4,147v18.9h-7.7v-35.8h0.4l22.2,20.2v-18.9h7.7V167.2z"/>
			<path fill="#E5022D" d="M427.6,148.6c0,5-1.7,9.1-5.2,12.2c-3.7,3.3-8.9,5-15.5,5h-9.3v-34.5h9.3c6.7,0,11.8,1.7,15.6,5
				C425.9,139.5,427.6,143.6,427.6,148.6z M419.3,148.6c0-2.8-0.8-5-2.5-6.8c-2-2.1-5-3.2-9.1-3.2h-1.8v20h1.8c4,0,7-1.1,9.1-3.2
				C418.4,153.6,419.3,151.3,419.3,148.6z"/>
			<path fill="#E5022D" d="M466.1,165.9h-9.3l-9.4-13.5h-1.4v13.5H438v-34.5h11.4c3.7,0,6.7,1,9.1,3c2.4,2,3.6,4.4,3.6,7.3
				c0,2.2-0.6,4.1-1.7,5.7c-1.2,1.7-2.9,3-5.2,3.7L466.1,165.9z M454.1,142.3c0-3.1-1.8-4.6-5.4-4.6h-2.7v9.4h3
				c1.7,0,3.1-0.5,3.9-1.6C453.7,144.6,454.1,143.6,454.1,142.3z"/>
			<path fill="#E5022D" d="M508,165.9h-8.7l-2.2-5.1h-14.3l-2.3,5.1h-8.1l17.7-35.3h0.5L508,165.9z M494.7,154.8l-4.5-10.7
				l-4.7,10.7H494.7z"/>
		</g>
		<g>
			<path fill="#333E48" d="M274.5,119.3h-21.7V84.8h21.4V92h-13.1v6.2h11.3v7h-11.3v6.8h13.4V119.3z"/>
			<path fill="#333E48" d="M310.4,102c0,5-1.7,9.1-5.2,12.2c-3.7,3.3-8.9,5-15.5,5h-9.3V84.8h9.3c6.7,0,11.8,1.7,15.6,5
				C308.7,93,310.4,97,310.4,102z M302,102c0-2.8-0.8-5-2.5-6.8c-2-2.1-5-3.2-9.1-3.2h-1.8v20h1.8c4,0,7-1.1,9.1-3.2
				C301.2,107,302,104.8,302,102z"/>
			<path fill="#333E48" d="M323.5,119.3h-8.2V84.8h8.2V119.3z"/>
			<path fill="#333E48" d="M368.7,119.3h-7.7l-3-15.9l-9.5,17.2h-0.4L338,102.9l-3.2,16.3h-7.2l7.2-35.8h0.4l13.1,22.9l12.5-22.9
				h0.4L368.7,119.3z"/>
			<path fill="#333E48" d="M396.7,109.3c0,3.1-1.2,5.5-3.7,7.3c-2.4,1.8-5.9,2.7-10.2,2.7h-9.9V84.8h11c3.7,0,6.6,0.8,8.6,2.3
				c2.1,1.5,3.1,3.6,3.1,6.3c0,3.5-1.8,6-5.4,7.4c2,0.7,3.5,1.7,4.7,3.1C396.1,105.4,396.7,107.2,396.7,109.3z M388.2,94.5
				c0-2.6-1.7-3.8-5.1-3.8h-2.9v7.9h3.2c1.7,0,3-0.5,3.8-1.4C387.9,96.5,388.2,95.6,388.2,94.5z M389.1,108.4c0-2.9-1.9-4.3-5.6-4.3
				h-3.3v9h2.9c2.1,0,3.7-0.5,4.7-1.5C388.7,110.7,389.1,109.7,389.1,108.4z"/>
			<path fill="#333E48" d="M430.4,105.7c0,4.3-1.2,7.8-3.6,10.5c-2.6,2.9-6.2,4.4-10.7,4.4c-4.6,0-8.2-1.4-10.8-4.1
				c-2.6-2.7-3.9-6.3-3.9-10.8V84.8h8.2V105c0,2.4,0.5,4.3,1.6,5.8c1.2,1.6,2.9,2.4,5.2,2.4c4.6,0,6.9-2.6,6.9-7.9V84.8h7.2V105.7z"
				/>
			<path fill="#333E48" d="M465.1,119.3h-9.3l-9.4-13.5h-1.4v13.5h-8.1V84.8h11.4c3.7,0,6.7,1,9.1,3s3.6,4.4,3.6,7.3
				c0,2.2-0.6,4.1-1.7,5.7c-1.2,1.7-2.9,3-5.2,3.7L465.1,119.3z M453.2,95.7c0-3.1-1.8-4.6-5.4-4.6h-2.7v9.4h3
				c1.7,0,3.1-0.5,3.9-1.6C452.8,98.1,453.2,97,453.2,95.7z"/>
			<path fill="#333E48" d="M496.6,117c-1.1,1-3.1,1.8-5.7,2.6c-2.7,0.8-5.1,1.1-7.4,1.1c-5.1,0-9.4-1.8-13-5.4
				c-3.6-3.6-5.5-8-5.5-13.2c0-5,1.8-9.3,5.4-13c3.6-3.7,8-5.6,13.3-5.6c4.3,0,8,1.2,11.1,3.7l-0.9,8.5c-3-3.1-6.2-4.6-9.8-4.6
				c-3,0-5.5,1-7.4,3c-2.1,2.1-3.1,4.7-3.1,8c0,3.2,1,5.9,3.1,7.9c2,2,4.6,3.1,7.6,3.1c1.4,0,2.8-0.2,4.3-0.7v-5.2h-6.6v-6.9h14.7
				V117z"/>
			<path fill="#333E48" d="M536.3,102c0,5-1.7,9.3-5.2,13c-3.5,3.7-7.7,5.6-12.6,5.6c-5,0-9.2-1.9-12.7-5.6c-3.5-3.7-5.2-8.1-5.2-13
				c0-5,1.7-9.4,5.2-13.1c3.4-3.7,7.7-5.5,12.7-5.5c5,0,9.2,1.9,12.7,5.7C534.6,92.8,536.3,97.1,536.3,102z M527.8,102
				c0-3.1-0.9-5.6-2.8-7.7c-1.9-2.1-4-3.2-6.4-3.2c-2.6,0-4.8,1-6.6,3.1c-1.8,2-2.7,4.6-2.7,7.8c0,3.1,1,5.7,2.9,7.9
				c1.8,2,3.9,3,6.4,3c2.4,0,4.6-1,6.4-3C526.8,107.8,527.8,105.2,527.8,102z"/>
		</g>
	</g>
</g>
</svg>
