<?xml version="1.0" encoding="utf-8"?>
<!-- Generator: Adobe Illustrator 19.1.0, SVG Export Plug-In . SVG Version: 6.00 Build 0)  -->
<svg version="1.1" id="Layer_1" xmlns="http://www.w3.org/2000/svg" xmlns:xlink="http://www.w3.org/1999/xlink" x="0px" y="0px"
	 viewBox="-29 294.9 551.6 204.1" style="enable-background:new -29 294.9 551.6 204.1;" xml:space="preserve">
<metadata><?xpacket begin="﻿" id="W5M0MpCehiHzreSzNTczkc9d"?>
<x:xmpmeta xmlns:x="adobe:ns:meta/" x:xmptk="Adobe XMP Core 5.6-c067 79.157747, 2015/03/30-23:40:42        ">
   <rdf:RDF xmlns:rdf="http://www.w3.org/1999/02/22-rdf-syntax-ns#">
      <rdf:Description rdf:about=""/>
   </rdf:RDF>
</x:xmpmeta>
                                                                                                    
                                                                                                    
                                                                                                    
                                                                                                    
                                                                                                    
                                                                                                    
                                                                                                    
                                                                                                    
                                                                                                    
                                                                                                    
                                                                                                    
                                                                                                    
                                                                                                    
                                                                                                    
                                                                                                    
                                                                                                    
                                                                                                    
                                                                                                    
                                                                                                    
                                                                                                    
                           
<?xpacket end="w"?></metadata>
<style type="text/css">
	.st0{fill:#333E48;}
	.st1{fill:#E42127;}
	.st2{fill:#FFFFFF;}
</style>
<g>
	
		<rect x="51.6" y="351.2" transform="matrix(-0.7071 0.7071 -0.7071 -0.7071 446.9431 608.8676)" class="st0" width="91.5" height="91.5"/>
	<polygon class="st1" points="97.4,461.7 117.7,482 182.5,417.3 202.8,396.9 117.7,311.9 97.4,332.2 162.1,396.9 	"/>
	<polygon class="st1" points="12.4,417.3 12.4,417.3 77.1,482 97.4,461.7 32.7,396.9 97.4,332.2 77.1,311.9 12.4,376.6 -7.9,396.9 	
		"/>
	<polygon class="st2" points="110.9,363.2 97,349.3 50.5,395.8 97.2,442.5 143.7,396 129.9,382.1 98.9,413.1 95.1,409.3 
		125.3,379.1 113.9,367.7 83.8,397.9 80,394.1 	"/>
</g>
<g>
	<g>
		<g>
			<path class="st1" d="M273.5,367.3h-21.9v-34.9h8.3v27.5h13.6V367.3z"/>
			<path class="st1" d="M315,349.9c0,5-1.8,9.4-5.3,13.2c-3.5,3.7-7.8,5.6-12.8,5.6s-9.3-1.9-12.8-5.6c-3.5-3.7-5.3-8.1-5.3-13.2
				s1.7-9.5,5.2-13.2c3.5-3.7,7.8-5.6,12.8-5.6s9.3,1.9,12.9,5.8C313.2,340.5,315,344.9,315,349.9z M306.3,349.9
				c0-3.1-0.9-5.7-2.8-7.8c-1.9-2.1-4.1-3.2-6.5-3.2c-2.6,0-4.9,1-6.7,3.1c-1.8,2.1-2.8,4.7-2.8,7.9s1,5.8,2.9,8c1.8,2,4,3,6.5,3
				s4.6-1,6.5-3C305.3,355.7,306.3,353,306.3,349.9z"/>
			<path class="st1" d="M354.9,368.6h-0.4L332,348.2v19.1h-7.8v-36.2h0.4l22.4,20.4v-19.1h7.8v36.2H354.9z"/>
			<path class="st1" d="M396.6,349.9c0,5.1-1.8,9.2-5.3,12.3c-3.7,3.4-9,5.1-15.6,5.1h-9.4v-34.9h9.4c6.7,0,12,1.7,15.7,5.1
				C394.9,340.7,396.6,344.8,396.6,349.9z M388.2,349.8c0-2.8-0.8-5.1-2.5-6.9c-2-2.2-5.1-3.2-9.2-3.2h-1.8v20.2h1.8
				c4,0,7.1-1.1,9.2-3.2C387.3,354.9,388.2,352.6,388.2,349.8z"/>
			<path class="st1" d="M439.9,349.9c0,5-1.8,9.4-5.3,13.2c-3.5,3.7-7.8,5.6-12.8,5.6s-9.3-1.9-12.8-5.6c-3.5-3.7-5.3-8.1-5.3-13.2
				s1.7-9.5,5.2-13.2c3.5-3.7,7.8-5.6,12.8-5.6s9.3,1.9,12.9,5.8C438.2,340.5,439.9,344.9,439.9,349.9z M431.3,349.9
				c0-3.1-0.9-5.7-2.8-7.8c-1.9-2.1-4.1-3.2-6.5-3.2c-2.6,0-4.9,1-6.7,3.1c-1.8,2.1-2.8,4.7-2.8,7.9s1,5.8,2.9,8c1.8,2,4,3,6.5,3
				s4.6-1,6.5-3C430.3,355.7,431.3,353,431.3,349.9z"/>
			<path class="st1" d="M479.9,368.6h-0.4L457,348.2v19.1h-7.8v-36.2h0.4l22.4,20.4v-19.1h7.8v36.2H479.9z"/>
		</g>
		<g>
			<path class="st1" d="M273.5,461.5h-21.9v-34.8h8.3v27.5h13.6V461.5z"/>
			<path class="st1" d="M315,444c0,5-1.8,9.4-5.3,13.2c-3.5,3.7-7.8,5.6-12.8,5.6s-9.3-1.9-12.8-5.6s-5.3-8.1-5.3-13.2
				c0-5.1,1.7-9.5,5.2-13.2c3.5-3.7,7.8-5.6,12.8-5.6s9.3,1.9,12.9,5.8C313.2,434.7,315,439.1,315,444z M306.3,444
				c0-3.1-0.9-5.7-2.8-7.8c-1.9-2.1-4.1-3.2-6.5-3.2c-2.6,0-4.9,1-6.7,3.1c-1.8,2.1-2.8,4.7-2.8,7.9s1,5.8,2.9,8c1.8,2,4,3,6.5,3
				s4.6-1,6.5-3C305.3,449.8,306.3,447.2,306.3,444z"/>
			<path class="st1" d="M354.9,462.8h-0.4L332,442.4v19.1h-7.8v-36.2h0.4l22.4,20.4v-19.1h7.8v36.2H354.9z"/>
			<path class="st1" d="M396.6,444c0,5.1-1.8,9.2-5.3,12.3c-3.7,3.4-9,5.1-15.6,5.1h-9.4v-34.8h9.4c6.7,0,12,1.7,15.7,5.1
				C394.9,434.9,396.6,439,396.6,444z M388.2,444c0-2.8-0.8-5.1-2.5-6.9c-2-2.2-5.1-3.2-9.2-3.2h-1.8v20.2h1.8c4,0,7.1-1.1,9.2-3.2
				C387.3,449.1,388.2,446.8,388.2,444z"/>
			<path class="st1" d="M439.9,444c0,5-1.8,9.4-5.3,13.2c-3.5,3.7-7.8,5.6-12.8,5.6s-9.3-1.9-12.8-5.6s-5.3-8.1-5.3-13.2
				c0-5.1,1.7-9.5,5.2-13.2c3.5-3.7,7.8-5.6,12.8-5.6s9.3,1.9,12.9,5.8C438.2,434.7,439.9,439.1,439.9,444z M431.3,444
				c0-3.1-0.9-5.7-2.8-7.8c-1.9-2.1-4.1-3.2-6.5-3.2c-2.6,0-4.9,1-6.7,3.1c-1.8,2.1-2.8,4.7-2.8,7.9s1,5.8,2.9,8c1.8,2,4,3,6.5,3
				s4.6-1,6.5-3C430.3,449.8,431.3,447.2,431.3,444z"/>
			<path class="st1" d="M479.9,462.8h-0.4L457,442.4v19.1h-7.8v-36.2h0.4l22.4,20.4v-19.1h7.8v36.2H479.9z"/>
		</g>
		<g>
			<path class="st2" d="M245.7,414.4h-21.9v-34.9h21.6v7.3h-13.3v6.3h11.4v7.1h-11.4v6.9h13.6L245.7,414.4L245.7,414.4z"/>
			<path class="st2" d="M282,396.9c0,5.1-1.8,9.2-5.3,12.3c-3.7,3.4-9,5.1-15.6,5.1h-9.4v-34.8h9.4c6.7,0,12,1.7,15.7,5.1
				C280.3,387.8,282,391.9,282,396.9z M273.6,396.9c0-2.8-0.8-5.1-2.5-6.9c-2-2.2-5.1-3.2-9.2-3.2H260V407h1.8c4,0,7.1-1.1,9.2-3.2
				C272.7,402,273.6,399.7,273.6,396.9z"/>
			<path class="st2" d="M295.2,414.4h-8.3v-34.9h8.3V414.4z"/>
			<path class="st2" d="M333,415.7h-0.4l-22.4-20.4v19.1h-7.8v-36.2h0.4l22.4,20.4v-19.1h7.8V415.7z"/>
			<path class="st2" d="M364.2,404.3c0,3.1-1.2,5.6-3.7,7.4c-2.5,1.8-5.9,2.7-10.3,2.7h-10.1v-34.9h11.1c3.7,0,6.7,0.8,8.7,2.3
				c2.1,1.6,3.1,3.7,3.1,6.4c0,3.6-1.8,6.1-5.5,7.5c2,0.7,3.6,1.7,4.7,3.1C363.6,400.4,364.2,402.2,364.2,404.3z M355.6,389.3
				c0-2.6-1.7-3.9-5.2-3.9h-2.9v8h3.2c1.7,0,3-0.5,3.9-1.4C355.3,391.3,355.6,390.4,355.6,389.3z M356.5,403.4
				c0-2.9-1.9-4.3-5.6-4.3h-3.4v9.1h2.9c2.1,0,3.7-0.5,4.8-1.5C356.1,405.7,356.5,404.7,356.5,403.4z"/>
			<path class="st2" d="M398.3,400.7c0,4.3-1.2,7.9-3.7,10.6c-2.6,3-6.2,4.4-10.8,4.4c-4.6,0-8.2-1.4-10.9-4.1
				c-2.7-2.8-4-6.4-4-10.9v-21.2h8.3v20.4c0,2.5,0.5,4.4,1.6,5.8c1.2,1.6,2.9,2.4,5.3,2.4c4.6,0,6.9-2.7,6.9-8v-20.6h7.3
				L398.3,400.7L398.3,400.7z"/>
			<path class="st2" d="M433.4,414.4H424l-9.5-13.6h-1.4v13.6H405v-34.9h11.5c3.7,0,6.8,1,9.2,3c2.4,2,3.6,4.4,3.6,7.4
				c0,2.2-0.6,4.1-1.7,5.8c-1.2,1.8-3,3-5.2,3.7L433.4,414.4z M421.3,390.6c0-3.1-1.8-4.6-5.4-4.6h-2.7v9.5h3c1.8,0,3.1-0.5,4-1.6
				C420.9,392.9,421.3,391.8,421.3,390.6z"/>
			<path class="st2" d="M465.1,412c-1.2,1-3.1,1.8-5.8,2.6c-2.7,0.8-5.2,1.1-7.4,1.1c-5.1,0-9.5-1.8-13.2-5.5
				c-3.7-3.7-5.5-8.1-5.5-13.3c0-5,1.8-9.4,5.5-13.2c3.7-3.7,8.1-5.6,13.4-5.6c4.3,0,8.1,1.3,11.2,3.8l-0.9,8.6
				c-3-3.1-6.3-4.6-10-4.6c-3,0-5.5,1-7.5,3c-2.1,2.1-3.1,4.8-3.1,8.1s1,6,3.1,8c2.1,2.1,4.6,3.1,7.7,3.1c1.4,0,2.8-0.2,4.3-0.7
				v-5.2h-6.7v-7h14.9V412z"/>
			<path class="st2" d="M501.5,414.4h-8.3v-14.7h-13.3v14.7h-8.3v-34.9h8.3v12.7h13.3v-12.7h8.3V414.4z"/>
		</g>
	</g>
</g>
</svg>
