<?xml version="1.0" encoding="utf-8"?>
<!-- Generator: Adobe Illustrator 19.1.0, SVG Export Plug-In . SVG Version: 6.00 Build 0)  -->
<svg version="1.1" id="Layer_1" xmlns="http://www.w3.org/2000/svg" xmlns:xlink="http://www.w3.org/1999/xlink" x="0px" y="0px"
	 viewBox="-22.9 331.1 480 131.7" style="enable-background:new -22.9 331.1 480 131.7;" xml:space="preserve">
<metadata><?xpacket begin="﻿" id="W5M0MpCehiHzreSzNTczkc9d"?>
<x:xmpmeta xmlns:x="adobe:ns:meta/" x:xmptk="Adobe XMP Core 5.6-c067 79.157747, 2015/03/30-23:40:42        ">
   <rdf:RDF xmlns:rdf="http://www.w3.org/1999/02/22-rdf-syntax-ns#">
      <rdf:Description rdf:about=""/>
   </rdf:RDF>
</x:xmpmeta>
                                                                                                    
                                                                                                    
                                                                                                    
                                                                                                    
                                                                                                    
                                                                                                    
                                                                                                    
                                                                                                    
                                                                                                    
                                                                                                    
                                                                                                    
                                                                                                    
                                                                                                    
                                                                                                    
                                                                                                    
                                                                                                    
                                                                                                    
                                                                                                    
                                                                                                    
                                                                                                    
                           
<?xpacket end="w"?></metadata>
<style type="text/css">
	.st0{display:none;}
	.st1{display:inline;}
	.st2{fill:#EB0029;}
	.st3{fill:#333E48;}
	.st4{fill:#E5022D;}
</style>
<g class="st0">
	<g class="st1">
		<g>
			<path class="st2" d="M35.7,367.3H13.8v-34.9h8.3v27.5h13.6V367.3z"/>
			<path class="st2" d="M77.1,349.9c0,5-1.8,9.4-5.3,13.2c-3.5,3.7-7.8,5.6-12.8,5.6s-9.3-1.9-12.8-5.6s-5.3-8.1-5.3-13.2
				c0-5.1,1.7-9.5,5.2-13.2c3.5-3.7,7.8-5.6,12.8-5.6s9.3,1.9,12.9,5.8C75.3,340.5,77.1,344.9,77.1,349.9z M68.4,349.9
				c0-3.1-0.9-5.7-2.8-7.8s-4.1-3.2-6.5-3.2c-2.6,0-4.9,1-6.7,3.1c-1.8,2.1-2.8,4.7-2.8,7.9c0,3.2,1,5.8,2.9,8c1.8,2,4,3,6.5,3
				s4.6-1,6.5-3C67.4,355.7,68.4,353,68.4,349.9z"/>
			<path class="st2" d="M117,368.6h-0.4l-22.4-20.4v19.1h-7.8v-36.2h0.4l22.4,20.4v-19.1h7.8V368.6z"/>
			<path class="st2" d="M158.8,349.9c0,5.1-1.8,9.2-5.3,12.3c-3.7,3.4-9,5.1-15.6,5.1h-9.4v-34.9h9.4c6.7,0,12,1.7,15.7,5.1
				C157,340.7,158.8,344.8,158.8,349.9z M150.3,349.8c0-2.8-0.8-5.1-2.5-6.9c-2-2.2-5.1-3.2-9.2-3.2h-1.8v20.2h1.8
				c4,0,7.1-1.1,9.2-3.2C149.4,354.9,150.3,352.6,150.3,349.8z"/>
			<path class="st2" d="M202,349.9c0,5-1.8,9.4-5.3,13.2c-3.5,3.7-7.8,5.6-12.8,5.6s-9.3-1.9-12.8-5.6s-5.3-8.1-5.3-13.2
				c0-5.1,1.7-9.5,5.2-13.2c3.5-3.7,7.8-5.6,12.8-5.6s9.3,1.9,12.9,5.8C200.3,340.5,202,344.9,202,349.9z M193.4,349.9
				c0-3.1-0.9-5.7-2.8-7.8c-1.9-2.1-4.1-3.2-6.5-3.2c-2.6,0-4.9,1-6.7,3.1s-2.8,4.7-2.8,7.9c0,3.2,1,5.8,2.9,8c1.8,2,4,3,6.5,3
				s4.6-1,6.5-3C192.4,355.7,193.4,353,193.4,349.9z"/>
			<path class="st2" d="M242,368.6h-0.4l-22.4-20.4v19.1h-7.8v-36.2h0.4l22.4,20.4v-19.1h7.8V368.6z"/>
		</g>
		<g>
			<path class="st2" d="M35.7,461.5H13.8v-34.8h8.3v27.5h13.6V461.5z"/>
			<path class="st2" d="M77.1,444c0,5-1.8,9.4-5.3,13.2c-3.5,3.7-7.8,5.6-12.8,5.6s-9.3-1.9-12.8-5.6c-3.5-3.7-5.3-8.1-5.3-13.2
				c0-5.1,1.7-9.5,5.2-13.2s7.8-5.6,12.8-5.6s9.3,1.9,12.9,5.8C75.3,434.7,77.1,439.1,77.1,444z M68.4,444c0-3.1-0.9-5.7-2.8-7.8
				s-4.1-3.2-6.5-3.2c-2.6,0-4.9,1-6.7,3.1c-1.8,2.1-2.8,4.7-2.8,7.9c0,3.2,1,5.8,2.9,8c1.8,2,4,3,6.5,3s4.6-1,6.5-3
				C67.4,449.8,68.4,447.2,68.4,444z"/>
			<path class="st2" d="M117,462.8h-0.4l-22.4-20.4v19.1h-7.8v-36.2h0.4l22.4,20.4v-19.1h7.8V462.8z"/>
			<path class="st2" d="M158.8,444c0,5.1-1.8,9.2-5.3,12.3c-3.7,3.4-9,5.1-15.6,5.1h-9.4v-34.8h9.4c6.7,0,12,1.7,15.7,5.1
				C157,434.9,158.8,439,158.8,444z M150.3,444c0-2.8-0.8-5.1-2.5-6.9c-2-2.2-5.1-3.2-9.2-3.2h-1.8v20.2h1.8c4,0,7.1-1.1,9.2-3.2
				C149.4,449.1,150.3,446.8,150.3,444z"/>
			<path class="st2" d="M202,444c0,5-1.8,9.4-5.3,13.2c-3.5,3.7-7.8,5.6-12.8,5.6s-9.3-1.9-12.8-5.6c-3.5-3.7-5.3-8.1-5.3-13.2
				c0-5.1,1.7-9.5,5.2-13.2s7.8-5.6,12.8-5.6s9.3,1.9,12.9,5.8C200.3,434.7,202,439.1,202,444z M193.4,444c0-3.1-0.9-5.7-2.8-7.8
				c-1.9-2.1-4.1-3.2-6.5-3.2c-2.6,0-4.9,1-6.7,3.1c-1.8,2.1-2.8,4.7-2.8,7.9c0,3.2,1,5.8,2.9,8c1.8,2,4,3,6.5,3s4.6-1,6.5-3
				C192.4,449.8,193.4,447.2,193.4,444z"/>
			<path class="st2" d="M242,462.8h-0.4l-22.4-20.4v19.1h-7.8v-36.2h0.4l22.4,20.4v-19.1h7.8V462.8z"/>
		</g>
		<g>
			<path class="st3" d="M7.9,414.4H-14v-34.9H7.6v7.3H-5.7v6.3H5.7v7.1H-5.7v6.9H7.9V414.4z"/>
			<path class="st3" d="M44.2,396.9c0,5.1-1.8,9.2-5.3,12.3c-3.7,3.4-9,5.1-15.6,5.1h-9.4v-34.8h9.4c6.7,0,12,1.7,15.7,5.1
				C42.4,387.8,44.2,391.9,44.2,396.9z M35.7,396.9c0-2.8-0.8-5.1-2.5-6.9c-2-2.2-5.1-3.2-9.2-3.2h-1.8V407H24c4,0,7.1-1.1,9.2-3.2
				C34.8,402,35.7,399.7,35.7,396.9z"/>
			<path class="st3" d="M57.4,414.4H49v-34.9h8.3L57.4,414.4L57.4,414.4z"/>
			<path class="st3" d="M95.1,415.7h-0.4l-22.4-20.4v19.1h-7.8v-36.2h0.4l22.4,20.4v-19.1h7.8V415.7z"/>
			<path class="st3" d="M126.3,404.3c0,3.1-1.2,5.6-3.7,7.4s-5.9,2.7-10.3,2.7h-10.1v-34.9h11.1c3.7,0,6.7,0.8,8.7,2.3
				c2.1,1.6,3.1,3.7,3.1,6.4c0,3.6-1.8,6.1-5.5,7.5c2,0.7,3.6,1.7,4.7,3.1C125.7,400.4,126.3,402.2,126.3,404.3z M117.8,389.3
				c0-2.6-1.7-3.9-5.2-3.9h-2.9v8h3.2c1.7,0,3-0.5,3.9-1.4C117.4,391.3,117.8,390.4,117.8,389.3z M118.6,403.4
				c0-2.9-1.9-4.3-5.6-4.3h-3.4v9.1h2.9c2.1,0,3.7-0.5,4.8-1.5C118.2,405.7,118.6,404.7,118.6,403.4z"/>
			<path class="st3" d="M160.4,400.7c0,4.3-1.2,7.9-3.7,10.6c-2.6,3-6.2,4.4-10.8,4.4s-8.2-1.4-10.9-4.1c-2.7-2.8-4-6.4-4-10.9
				v-21.2h8.3v20.4c0,2.5,0.5,4.4,1.6,5.8c1.2,1.6,2.9,2.4,5.3,2.4c4.6,0,6.9-2.7,6.9-8v-20.6h7.3L160.4,400.7L160.4,400.7z"/>
			<path class="st3" d="M195.5,414.4h-9.4l-9.5-13.6h-1.4v13.6H167v-34.9h11.5c3.7,0,6.8,1,9.2,3s3.6,4.4,3.6,7.4
				c0,2.2-0.6,4.1-1.7,5.8c-1.2,1.8-3,3-5.2,3.7L195.5,414.4z M183.4,390.6c0-3.1-1.8-4.6-5.4-4.6h-2.7v9.5h3c1.8,0,3.1-0.5,4-1.6
				C183,392.9,183.4,391.8,183.4,390.6z"/>
			<path class="st3" d="M227.3,412c-1.2,1-3.1,1.8-5.8,2.6c-2.7,0.8-5.2,1.1-7.4,1.1c-5.1,0-9.5-1.8-13.2-5.5
				c-3.7-3.7-5.5-8.1-5.5-13.3c0-5,1.8-9.4,5.5-13.2c3.7-3.7,8.1-5.6,13.4-5.6c4.3,0,8.1,1.3,11.2,3.8l-0.9,8.6
				c-3-3.1-6.3-4.6-10-4.6c-3,0-5.5,1-7.5,3c-2.1,2-3.1,4.7-3.1,8c0,3.3,1,6,3.1,8c2.1,2.1,4.6,3.1,7.7,3.1c1.4,0,2.8-0.2,4.3-0.7
				v-5.2h-6.7v-7h14.9V412z"/>
			<path class="st3" d="M263.6,414.4h-8.3v-14.7H242v14.7h-8.3v-34.9h8.3v12.7h13.3v-12.7h8.3L263.6,414.4L263.6,414.4z"/>
		</g>
	</g>
</g>
<g>
	<rect x="284.7" y="349.8" class="st3" width="3" height="94.2"/>
</g>
<g>
	<g>
		<path class="st4" d="M345.3,413.6l-1.2,7.8h-35.3v-2l19.8-22.1c3.9-4.3,5.8-8,5.8-11.1c0-2.2-0.7-4.1-2.2-5.5
			c-1.6-1.5-3.7-2.3-6.4-2.3c-4,0-7.1,2.5-9.4,7.4l-7.1-3.6c1.4-3.6,3.6-6.4,6.5-8.5c3-2.1,6.4-3.1,10.3-3.1c4.7,0,8.6,1.4,11.8,4.1
			c3.3,2.9,5,6.7,5,11.3c0,5-2.8,10.5-8.4,16.3l-10.8,11.3H345.3L345.3,413.6z"/>
		<path class="st4" d="M386,396.8c0,9.7-2,16.7-6,21.2c-3,3.4-6.8,5.1-11.3,5.1c-5.3,0-9.5-2.3-12.6-6.8c-3.2-4.7-4.8-11.3-4.8-19.8
			c0-8,1.6-14.3,4.8-19c3.2-4.7,7.4-7,12.6-7c4.7,0,8.6,1.9,11.8,5.7C384.1,381,386,387.8,386,396.8z M377.6,396.8
			c0-7-1.1-12.1-3.2-15.2c-1.5-2.1-3.4-3.2-5.7-3.2c-2.2,0-4.2,1.2-5.8,3.6c-2.1,3.2-3.2,8-3.2,14.3c0,7,1.1,12.2,3.4,15.4
			c1.5,2.3,3.4,3.5,5.7,3.5c2.2,0,4.1-1.1,5.6-3.2C376.4,409,377.6,403.9,377.6,396.8z"/>
		<path class="st4" d="M409.7,421.4h-8.3v-42.3h-7.1l1.3-6.7h14.1V421.4z"/>
		<path class="st4" d="M457.1,372.4l-22.3,49h-9l19-41.1h-23.2v-7.9H457.1z"/>
	</g>
</g>
<g>
	<g>
		<g>
			<path class="st4" d="M26.9,367.3H5v-34.9h8.3v27.5h13.6V367.3z"/>
			<path class="st4" d="M67.2,349.9c0,5-1.8,9.4-5.3,13.2c-3.5,3.7-7.8,5.6-12.8,5.6s-9.3-1.9-12.8-5.6S31,355,31,349.9
				c0-5.1,1.7-9.5,5.2-13.2c3.5-3.7,7.8-5.6,12.8-5.6s9.3,1.9,12.9,5.8C65.5,340.5,67.2,344.9,67.2,349.9z M58.6,349.9
				c0-3.1-0.9-5.7-2.8-7.8c-2-2.2-4.1-3.2-6.6-3.2c-2.6,0-4.9,1-6.7,3.1c-1.8,2.1-2.8,4.7-2.8,7.9c0,3.2,1,5.8,2.9,8
				c1.8,2,4,3,6.5,3s4.6-1,6.5-3C57.6,355.7,58.6,353,58.6,349.9z"/>
			<path class="st4" d="M106.1,368.6h-0.4l-22.4-20.4v19.1h-7.8v-36.2h0.4l22.4,20.4v-19.1h7.8V368.6z"/>
			<path class="st4" d="M146.8,349.9c0,5.1-1.8,9.2-5.3,12.3c-3.7,3.4-9,5.1-15.6,5.1h-9.4v-34.9h9.4c6.7,0,12,1.7,15.7,5.1
				C145.1,340.7,146.8,344.8,146.8,349.9z M138.4,349.8c0-2.8-0.8-5.1-2.5-6.9c-2-2.2-5.1-3.2-9.2-3.2h-1.8v20.2h1.8
				c4,0,7.1-1.1,9.2-3.2C137.5,354.9,138.4,352.6,138.4,349.8z"/>
			<path class="st4" d="M183.3,367.3h-9.4l-9.5-13.6H163v13.6h-8.2v-34.9h11.5c3.7,0,6.8,1,9.2,3s3.6,4.4,3.6,7.4
				c0,2.2-0.6,4.1-1.7,5.8c-1.2,1.8-3,3-5.2,3.7L183.3,367.3z M171.2,343.5c0-3.1-1.8-4.6-5.4-4.6h-2.7v9.5h3c1.8,0,3.1-0.5,4-1.6
				C170.8,345.8,171.2,344.7,171.2,343.5z"/>
			<path class="st4" d="M211.5,367.3h-21.9v-34.9h21.6v7.3h-13.3v6.3h11.4v7.1h-11.4v6.8h13.6L211.5,367.3L211.5,367.3z"/>
			<path class="st4" d="M242.1,356.9c0,3.4-1.1,6.1-3.3,8.3c-2.3,2.3-5.4,3.4-9.1,3.4s-6.9-0.6-9.8-1.8l-0.6-9.1
				c3.5,2.4,6.9,3.6,10,3.6c3.2,0,4.8-1.2,4.8-3.7c0-1.1-0.6-2.1-1.7-3c-0.6-0.5-2-1.3-4.1-2.4l-2.5-1.3c-4.6-2.5-6.9-5.7-6.9-9.8
				c0-2.8,1.1-5.2,3.2-7.1c2.2-1.9,4.9-2.9,8.3-2.9c1.7,0,3.5,0.3,5.5,0.8c1.5,0.4,2.6,0.8,3.4,1.2l0.1,8c-3.3-2.2-6.2-3.3-8.8-3.3
				c-2.5,0-3.8,1.1-3.8,3.3c0,1.2,1.5,2.6,4.6,4.2l3.1,1.6C239.5,349.4,242.1,352.8,242.1,356.9z"/>
		</g>
		<g>
			<path class="st4" d="M26.9,461.5H5v-34.8h8.3v27.5h13.6V461.5z"/>
			<path class="st4" d="M67.2,444c0,5-1.8,9.4-5.3,13.2c-3.5,3.7-7.8,5.6-12.8,5.6s-9.3-1.9-12.8-5.6c-3.5-3.7-5.3-8.1-5.3-13.2
				c0-5.1,1.7-9.5,5.2-13.2s7.8-5.6,12.8-5.6s9.3,1.9,12.9,5.8C65.5,434.7,67.2,439.1,67.2,444z M58.6,444c0-3.1-0.9-5.7-2.8-7.8
				s-4.1-3.2-6.5-3.2c-2.6,0-4.9,1-6.7,3.1c-1.8,2.1-2.8,4.7-2.8,7.9c0,3.2,1,5.8,2.9,8c1.8,2,4,3,6.5,3s4.6-1,6.5-3
				C57.6,449.8,58.6,447.2,58.6,444z"/>
			<path class="st4" d="M106.1,462.8h-0.4l-22.4-20.4v19.1h-7.8v-36.2h0.4l22.4,20.4v-19.1h7.8V462.8z"/>
			<path class="st4" d="M146.8,444c0,5.1-1.8,9.2-5.3,12.3c-3.7,3.4-9,5.1-15.6,5.1h-9.4v-34.8h9.4c6.7,0,12,1.7,15.7,5.1
				C145.1,434.9,146.8,439,146.8,444z M138.4,444c0-2.8-0.8-5.1-2.5-6.9c-2-2.2-5.1-3.2-9.2-3.2h-1.8v20.2h1.8c4,0,7.1-1.1,9.2-3.2
				C137.5,449.1,138.4,446.8,138.4,444z"/>
			<path class="st4" d="M183.3,461.5h-9.4l-9.5-13.6H163v13.6h-8.2v-34.8h11.5c3.7,0,6.8,1,9.2,3s3.6,4.4,3.6,7.4
				c0,2.2-0.6,4.1-1.7,5.8c-1.2,1.8-3,3-5.2,3.7L183.3,461.5z M171.2,437.7c0-3.1-1.8-4.6-5.4-4.6h-2.7v9.5h3c1.8,0,3.1-0.5,4-1.6
				C170.8,440,171.2,438.9,171.2,437.7z"/>
			<path class="st4" d="M211.5,461.5h-21.9v-34.8h21.6v7.3h-13.3v6.3h11.4v7.1h-11.4v6.9h13.6L211.5,461.5L211.5,461.5z"/>
			<path class="st4" d="M242.1,451.1c0,3.4-1.1,6.1-3.3,8.3c-2.3,2.3-5.4,3.4-9.1,3.4s-6.9-0.6-9.8-1.8l-0.6-9.1
				c3.5,2.4,6.9,3.6,10,3.6c3.2,0,4.8-1.2,4.8-3.7c0-1.1-0.6-2.1-1.7-3c-0.6-0.5-2-1.3-4.1-2.4l-2.5-1.3c-4.6-2.5-6.9-5.7-6.9-9.8
				c0-2.8,1.1-5.2,3.2-7.1c2.2-1.9,4.9-2.9,8.3-2.9c1.7,0,3.5,0.3,5.5,0.8c1.5,0.4,2.6,0.8,3.4,1.2l0.1,8c-3.3-2.2-6.2-3.3-8.8-3.3
				c-2.5,0-3.8,1.1-3.8,3.3c0,1.2,1.5,2.6,4.6,4.2l3.1,1.6C239.5,443.6,242.1,447,242.1,451.1z"/>
		</g>
		<g>
			<path class="st3" d="M-1,414.4h-21.9v-34.9h21.6v7.3h-13.3v6.3h11.4v7.1h-11.4v6.9H-1V414.4z"/>
			<path class="st3" d="M35.3,396.9c0,5.1-1.8,9.2-5.3,12.3c-3.7,3.4-9,5.1-15.6,5.1H5v-34.8h9.4c6.7,0,12,1.7,15.7,5.1
				C33.5,387.8,35.3,391.9,35.3,396.9z M26.8,396.9c0-2.8-0.8-5.1-2.5-6.9c-2-2.2-5.1-3.2-9.2-3.2h-1.8V407h1.8c4,0,7.1-1.1,9.2-3.2
				C25.9,402,26.8,399.7,26.8,396.9z"/>
			<path class="st3" d="M48.5,414.4h-8.3v-34.9h8.3V414.4z"/>
			<path class="st3" d="M94.1,414.4h-7.8l-3-16.1l-9.6,17.4h-0.4l-10.2-17.8l-3.2,16.5h-7.3l7.3-36.2h0.4l13.3,23.2l12.6-23.2h0.4
				L94.1,414.4z"/>
			<path class="st3" d="M122.5,404.3c0,3.1-1.2,5.6-3.7,7.4s-5.9,2.7-10.3,2.7H98.4v-34.9h11.1c3.7,0,6.7,0.8,8.7,2.3
				c2.1,1.6,3.1,3.7,3.1,6.4c0,3.6-1.8,6.1-5.5,7.5c2,0.7,3.6,1.7,4.7,3.1C121.9,400.4,122.5,402.2,122.5,404.3z M113.9,389.3
				c0-2.6-1.7-3.9-5.2-3.9h-2.9v8h3.2c1.7,0,3-0.5,3.9-1.4C113.6,391.3,113.9,390.4,113.9,389.3z M114.8,403.4
				c0-2.9-1.9-4.3-5.6-4.3h-3.4v9.1h2.9c2.1,0,3.7-0.5,4.8-1.5C114.4,405.7,114.8,404.7,114.8,403.4z"/>
			<path class="st3" d="M156.6,400.7c0,4.3-1.2,7.9-3.7,10.6c-2.6,3-6.2,4.4-10.8,4.4s-8.2-1.4-10.9-4.1c-2.7-2.8-4-6.4-4-10.9
				v-21.2h8.3v20.4c0,2.5,0.5,4.4,1.6,5.8c1.2,1.6,2.9,2.4,5.3,2.4c4.6,0,6.9-2.7,6.9-8v-20.6h7.3L156.6,400.7L156.6,400.7z"/>
			<path class="st3" d="M191.7,414.4h-9.4l-9.5-13.6h-1.4v13.6h-8.2v-34.9h11.5c3.7,0,6.8,1,9.2,3s3.6,4.4,3.6,7.4
				c0,2.2-0.6,4.1-1.7,5.8c-1.2,1.8-3,3-5.2,3.7L191.7,414.4z M179.6,390.6c0-3.1-1.8-4.6-5.4-4.6h-2.7v9.5h3c1.8,0,3.1-0.5,4-1.6
				C179.2,392.9,179.6,391.8,179.6,390.6z"/>
			<path class="st3" d="M223.4,412c-1.2,1-3.1,1.8-5.8,2.6c-2.7,0.8-5.2,1.1-7.4,1.1c-5.1,0-9.5-1.8-13.2-5.5
				c-3.7-3.7-5.5-8.1-5.5-13.3c0-5,1.8-9.4,5.5-13.2c3.7-3.7,8.1-5.6,13.4-5.6c4.3,0,8.1,1.3,11.2,3.8l-0.9,8.6
				c-3-3.1-6.3-4.6-10-4.6c-3,0-5.5,1-7.5,3c-2.1,2.1-3.1,4.8-3.1,8.1c0,3.3,1,6,3.1,8c2.1,2.1,4.6,3.1,7.7,3.1
				c1.4,0,2.8-0.2,4.3-0.7v-5.2h-6.7v-7h14.9L223.4,412L223.4,412z"/>
			<path class="st3" d="M263.6,396.9c0,5-1.8,9.4-5.3,13.2s-7.8,5.6-12.8,5.6s-9.3-1.9-12.8-5.6s-5.3-8.1-5.3-13.2
				c0-5.1,1.7-9.5,5.2-13.2s7.8-5.6,12.8-5.6s9.3,1.9,12.9,5.8C261.9,387.6,263.6,392,263.6,396.9z M255,396.9
				c0-3.1-0.9-5.7-2.8-7.8s-4.1-3.2-6.5-3.2c-2.6,0-4.9,1-6.7,3.1c-1.8,2.1-2.8,4.7-2.8,7.9c0,3.2,1,5.8,2.9,8c1.8,2,4,3,6.5,3
				s4.6-1,6.5-3C254,402.8,255,400.1,255,396.9z"/>
		</g>
	</g>
</g>
</svg>
