<?xml version="1.0" encoding="utf-8"?>
<!-- Generator: Adobe Illustrator 19.1.0, SVG Export Plug-In . SVG Version: 6.00 Build 0)  -->
<svg version="1.1" id="Layer_1" xmlns="http://www.w3.org/2000/svg" xmlns:xlink="http://www.w3.org/1999/xlink" x="0px" y="0px"
	 viewBox="-26.9 331.1 471.1 131.7" style="enable-background:new -26.9 331.1 471.1 131.7;" xml:space="preserve">
<metadata><?xpacket begin="﻿" id="W5M0MpCehiHzreSzNTczkc9d"?>
<x:xmpmeta xmlns:x="adobe:ns:meta/" x:xmptk="Adobe XMP Core 5.6-c067 79.157747, 2015/03/30-23:40:42        ">
   <rdf:RDF xmlns:rdf="http://www.w3.org/1999/02/22-rdf-syntax-ns#">
      <rdf:Description rdf:about=""/>
   </rdf:RDF>
</x:xmpmeta>
                                                                                                    
                                                                                                    
                                                                                                    
                                                                                                    
                                                                                                    
                                                                                                    
                                                                                                    
                                                                                                    
                                                                                                    
                                                                                                    
                                                                                                    
                                                                                                    
                                                                                                    
                                                                                                    
                                                                                                    
                                                                                                    
                                                                                                    
                                                                                                    
                                                                                                    
                                                                                                    
                           
<?xpacket end="w"?></metadata>
<style type="text/css">
	.st0{fill:#EB0029;}
	.st1{fill:#333E48;}
</style>
<g>
	<g>
		<g>
			<path class="st0" d="M22.8,367.3H0.9v-34.9h8.3v27.5h13.6V367.3z"/>
			<path class="st0" d="M64.2,349.9c0,5-1.8,9.4-5.3,13.2c-3.5,3.7-7.8,5.6-12.8,5.6s-9.3-1.9-12.8-5.6S28,355,28,349.9
				c0-5.1,1.7-9.5,5.2-13.2c3.5-3.7,7.8-5.6,12.8-5.6s9.3,1.9,12.9,5.8C62.5,340.5,64.2,344.9,64.2,349.9z M55.5,349.9
				c0-3.1-0.9-5.7-2.8-7.8c-1.9-2.2-4.1-3.2-6.5-3.2c-2.6,0-4.9,1-6.7,3.1c-1.8,2.1-2.8,4.7-2.8,7.9c0,3.2,1,5.8,2.9,8
				c1.8,2,4,3,6.5,3s4.6-1,6.5-3C54.5,355.7,55.5,353,55.5,349.9z"/>
			<path class="st0" d="M104.1,368.6h-0.4l-22.4-20.4v19.1h-7.8v-36.2h0.4l22.4,20.4v-19.1h7.8L104.1,368.6L104.1,368.6z"/>
			<path class="st0" d="M145.9,349.9c0,5.1-1.8,9.2-5.3,12.3c-3.7,3.4-9,5.1-15.6,5.1h-9.4v-34.9h9.4c6.7,0,12,1.7,15.7,5.1
				C144.2,340.7,145.9,344.8,145.9,349.9z M137.4,349.8c0-2.8-0.8-5.1-2.5-6.9c-2-2.2-5.1-3.2-9.2-3.2h-1.8v20.2h1.8
				c4,0,7.1-1.1,9.2-3.2C136.6,354.9,137.4,352.6,137.4,349.8z"/>
			<path class="st0" d="M189.1,349.9c0,5-1.8,9.4-5.3,13.2c-3.5,3.7-7.8,5.6-12.8,5.6s-9.3-1.9-12.8-5.6c-3.4-3.8-5.2-8.2-5.2-13.2
				c0-5.1,1.7-9.5,5.2-13.2c3.5-3.7,7.8-5.6,12.8-5.6s9.3,1.9,12.9,5.8C187.4,340.5,189.1,344.9,189.1,349.9z M180.5,349.9
				c0-3.1-0.9-5.7-2.8-7.8c-1.9-2.1-4.1-3.2-6.5-3.2c-2.6,0-4.9,1-6.7,3.1s-2.8,4.7-2.8,7.9c0,3.2,1,5.8,2.9,8c1.8,2,4,3,6.5,3
				s4.6-1,6.5-3C179.5,355.7,180.5,353,180.5,349.9z"/>
			<path class="st0" d="M229.1,368.6h-0.4l-22.4-20.4v19.1h-7.8v-36.2h0.4l22.4,20.4v-19.1h7.8V368.6z"/>
		</g>
		<g>
			<path class="st0" d="M22.8,461.5H0.9v-34.8h8.3v27.5h13.6V461.5z"/>
			<path class="st0" d="M64.2,444c0,5-1.8,9.4-5.3,13.2c-3.5,3.7-7.8,5.6-12.8,5.6s-9.3-1.9-12.8-5.6c-3.5-3.7-5.3-8.1-5.3-13.2
				c0-5.1,1.7-9.5,5.2-13.2s7.8-5.6,12.8-5.6s9.3,1.9,12.9,5.8C62.5,434.7,64.2,439.1,64.2,444z M55.5,444c0-3.1-0.9-5.7-2.8-7.8
				s-4.1-3.2-6.5-3.2c-2.6,0-4.9,1-6.7,3.1c-1.8,2.1-2.8,4.7-2.8,7.9c0,3.2,1,5.8,2.9,8c1.8,2,4,3,6.5,3s4.6-1,6.5-3
				C54.5,449.8,55.5,447.2,55.5,444z"/>
			<path class="st0" d="M104.1,462.8h-0.4l-22.4-20.4v19.1h-7.8v-36.2h0.4l22.4,20.4v-19.1h7.8L104.1,462.8L104.1,462.8z"/>
			<path class="st0" d="M145.9,444c0,5.1-1.8,9.2-5.3,12.3c-3.7,3.4-9,5.1-15.6,5.1h-9.4v-34.8h9.4c6.7,0,12,1.7,15.7,5.1
				C144.2,434.9,145.9,439,145.9,444z M137.4,444c0-2.8-0.8-5.1-2.5-6.9c-2-2.2-5.1-3.2-9.2-3.2h-1.8v20.2h1.8c4,0,7.1-1.1,9.2-3.2
				C136.6,449.1,137.4,446.8,137.4,444z"/>
			<path class="st0" d="M189.1,444c0,5-1.8,9.4-5.3,13.2c-3.5,3.7-7.8,5.6-12.8,5.6s-9.3-1.9-12.8-5.6c-3.5-3.7-5.3-8.1-5.3-13.2
				c0-5.1,1.7-9.5,5.2-13.2s7.8-5.6,12.8-5.6s9.3,1.9,12.9,5.8C187.4,434.7,189.1,439.1,189.1,444z M180.5,444
				c0-3.1-0.9-5.7-2.8-7.8c-1.9-2.1-4.1-3.2-6.5-3.2c-2.6,0-4.9,1-6.7,3.1c-1.8,2.1-2.8,4.7-2.8,7.9c0,3.2,1,5.8,2.9,8
				c1.8,2,4,3,6.5,3s4.6-1,6.5-3C179.5,449.8,180.5,447.2,180.5,444z"/>
			<path class="st0" d="M229.1,462.8h-0.4l-22.4-20.4v19.1h-7.8v-36.2h0.4l22.4,20.4v-19.1h7.8V462.8z"/>
		</g>
		<g>
			<path class="st1" d="M-5,414.4h-21.9v-34.9h21.6v7.3h-13.3v6.3h11.4v7.1h-11.4v6.9H-5V414.4z"/>
			<path class="st1" d="M31.3,396.9c0,5.1-1.8,9.2-5.3,12.3c-3.7,3.4-9,5.1-15.6,5.1H1v-34.8h9.4c6.7,0,12,1.7,15.7,5.1
				C29.5,387.8,31.3,391.9,31.3,396.9z M22.8,396.9c0-2.8-0.8-5.1-2.5-6.9c-2-2.2-5.1-3.2-9.2-3.2H9.3V407h1.8c4,0,7.1-1.1,9.2-3.2
				C21.9,402,22.8,399.7,22.8,396.9z"/>
			<path class="st1" d="M44.5,414.4h-8.3v-34.9h8.3V414.4z"/>
			<path class="st1" d="M82.2,415.7h-0.4l-22.4-20.4v19.1h-7.8v-36.2H52l22.4,20.4v-19.1h7.8V415.7z"/>
			<path class="st1" d="M113.4,404.3c0,3.1-1.2,5.6-3.7,7.4s-5.9,2.7-10.3,2.7H89.3v-34.9h11.1c3.7,0,6.7,0.8,8.7,2.3
				c2.1,1.6,3.1,3.7,3.1,6.4c0,3.6-1.8,6.1-5.5,7.5c2,0.7,3.6,1.7,4.7,3.1C112.8,400.4,113.4,402.2,113.4,404.3z M104.9,389.3
				c0-2.6-1.7-3.9-5.2-3.9h-2.9v8h3.2c1.7,0,3-0.5,3.9-1.4C104.5,391.3,104.9,390.4,104.9,389.3z M105.8,403.4
				c0-2.9-1.9-4.3-5.6-4.3h-3.4v9.1h2.9c2.1,0,3.7-0.5,4.8-1.5C105.3,405.7,105.8,404.7,105.8,403.4z"/>
			<path class="st1" d="M147.5,400.7c0,4.3-1.2,7.9-3.7,10.6c-2.6,3-6.2,4.4-10.8,4.4s-8.2-1.4-10.9-4.1c-2.7-2.8-4-6.4-4-10.9
				v-21.2h8.3v20.4c0,2.5,0.5,4.4,1.6,5.8c1.2,1.6,2.9,2.4,5.3,2.4c4.6,0,6.9-2.7,6.9-8v-20.6h7.3L147.5,400.7L147.5,400.7z"/>
			<path class="st1" d="M182.6,414.4h-9.4l-9.5-13.6h-1.4v13.6h-8.2v-34.9h11.5c3.7,0,6.8,1,9.2,3s3.6,4.4,3.6,7.4
				c0,2.2-0.6,4.1-1.7,5.8c-1.2,1.8-3,3-5.2,3.7L182.6,414.4z M170.5,390.6c0-3.1-1.8-4.6-5.4-4.6h-2.7v9.5h3c1.8,0,3.1-0.5,4-1.6
				C170.1,392.9,170.5,391.8,170.5,390.6z"/>
			<path class="st1" d="M214.4,412c-1.2,1-3.1,1.8-5.8,2.6c-2.7,0.8-5.2,1.1-7.4,1.1c-5.1,0-9.5-1.8-13.2-5.5
				c-3.7-3.7-5.5-8.1-5.5-13.3c0-5,1.8-9.4,5.5-13.2c3.7-3.7,8.1-5.6,13.4-5.6c4.3,0,8.1,1.3,11.2,3.8l-0.9,8.6
				c-3-3.1-6.3-4.6-10-4.6c-3,0-5.5,1-7.5,3c-2.1,2.1-3.1,4.8-3.1,8.1c0,3.3,1,6,3.1,8c2.1,2.1,4.6,3.1,7.7,3.1
				c1.4,0,2.8-0.2,4.3-0.7v-5.2h-6.7v-7h14.9L214.4,412L214.4,412z"/>
			<path class="st1" d="M250.7,414.4h-8.3v-14.7h-13.3v14.7h-8.3v-34.9h8.3v12.7h13.3v-12.7h8.3V414.4z"/>
		</g>
	</g>
</g>
<g>
	<rect x="271.8" y="349.8" class="st1" width="3" height="94.2"/>
</g>
<g>
	<g>
		<path class="st0" d="M332.4,413.6l-1.2,7.8h-35.3v-2l19.8-22.1c3.9-4.3,5.8-8,5.8-11.1c0-2.2-0.7-4.1-2.2-5.5
			c-1.6-1.5-3.7-2.3-6.4-2.3c-4,0-7.1,2.5-9.4,7.4l-7.1-3.6c1.4-3.6,3.6-6.4,6.5-8.5c3-2.1,6.4-3.1,10.3-3.1c4.7,0,8.6,1.4,11.8,4.1
			c3.3,2.9,5,6.7,5,11.3c0,5-2.8,10.5-8.4,16.3l-10.8,11.3H332.4L332.4,413.6z"/>
		<path class="st0" d="M373.1,396.8c0,9.7-2,16.7-6,21.2c-3,3.4-6.8,5.1-11.3,5.1c-5.3,0-9.5-2.3-12.6-6.8
			c-3.2-4.7-4.8-11.3-4.8-19.8c0-8,1.6-14.3,4.8-19c3.2-4.7,7.4-7,12.6-7c4.7,0,8.6,1.9,11.8,5.7C371.2,381,373.1,387.8,373.1,396.8
			z M364.7,396.8c0-7-1.1-12.1-3.2-15.2c-1.5-2.1-3.4-3.2-5.7-3.2c-2.2,0-4.2,1.2-5.8,3.6c-2.1,3.2-3.2,8-3.2,14.3
			c0,7,1.1,12.2,3.4,15.4c1.5,2.3,3.4,3.5,5.7,3.5c2.2,0,4.1-1.1,5.6-3.2C363.6,409,364.7,403.9,364.7,396.8z"/>
		<path class="st0" d="M396.8,421.4h-8.3v-42.3h-7.1l1.3-6.7h14.1V421.4z"/>
		<path class="st0" d="M444.2,372.4l-22.3,49h-9l19-41.1h-23.2v-7.9H444.2z"/>
	</g>
</g>
</svg>
