<?xml version="1.0" encoding="utf-8"?>
<!-- Generator: Adobe Illustrator 19.1.0, SVG Export Plug-In . SVG Version: 6.00 Build 0)  -->
<svg version="1.1" id="Layer_1" xmlns="http://www.w3.org/2000/svg" xmlns:xlink="http://www.w3.org/1999/xlink" x="0px" y="0px"
	 viewBox="-200 178.9 557.4 204.1" enable-background="new -200 178.9 557.4 204.1" xml:space="preserve">
<metadata><?xpacket begin="﻿" id="W5M0MpCehiHzreSzNTczkc9d"?>
<x:xmpmeta xmlns:x="adobe:ns:meta/" x:xmptk="Adobe XMP Core 5.6-c067 79.157747, 2015/03/30-23:40:42        ">
   <rdf:RDF xmlns:rdf="http://www.w3.org/1999/02/22-rdf-syntax-ns#">
      <rdf:Description rdf:about=""/>
   </rdf:RDF>
</x:xmpmeta>
                                                                                                    
                                                                                                    
                                                                                                    
                                                                                                    
                                                                                                    
                                                                                                    
                                                                                                    
                                                                                                    
                                                                                                    
                                                                                                    
                                                                                                    
                                                                                                    
                                                                                                    
                                                                                                    
                                                                                                    
                                                                                                    
                                                                                                    
                                                                                                    
                                                                                                    
                                                                                                    
                           
<?xpacket end="w"?></metadata>
<g>
	
		<rect x="-119.4" y="235.2" transform="matrix(-0.7071 0.7071 -0.7071 -0.7071 73.0035 531.7585)" fill="#333E48" width="91.5" height="91.5"/>
	<polygon fill="#E5022D" points="-73.6,345.7 -53.3,366 11.5,301.3 31.8,280.9 -53.3,195.9 -73.6,216.2 -8.9,280.9 	"/>
	<polygon fill="#E5022D" points="-158.6,301.3 -158.6,301.3 -93.9,366 -73.6,345.7 -138.3,280.9 -73.6,216.2 -93.9,195.9 
		-158.6,260.6 -178.9,280.9 	"/>
	<polygon fill="#FFFFFF" points="-60.1,247.2 -74,233.3 -120.5,279.8 -73.8,326.5 -27.3,280 -41.1,266.1 -72.1,297.1 -75.9,293.3 
		-45.7,263.1 -57.1,251.7 -87.2,281.9 -91,278.1 	"/>
</g>
<g>
	<g>
		<g>
			<path fill="#E5022D" d="M102.1,251.6H80.4v-34.5h8.2v27.2H102v7.3H102.1z"/>
			<path fill="#E5022D" d="M144.4,234.4c0,5-1.7,9.3-5.2,13s-7.7,5.6-12.6,5.6c-5,0-9.2-1.9-12.7-5.6s-5.2-8.1-5.2-13
				c0-5,1.7-9.4,5.2-13.1c3.4-3.7,7.7-5.5,12.7-5.5s9.2,1.9,12.7,5.7C142.7,225.1,144.4,229.4,144.4,234.4z M135.8,234.4
				c0-3.1-0.9-5.6-2.8-7.7c-1.9-2.1-4-3.2-6.4-3.2c-2.6,0-4.8,1-6.6,3.1s-2.7,4.6-2.7,7.8c0,3.1,1,5.7,2.9,7.9c1.8,2,3.9,3,6.4,3
				c2.4,0,4.6-1,6.4-3C134.9,240.1,135.8,237.5,135.8,234.4z"/>
			<path fill="#E5022D" d="M185,252.9h-0.4l-22.2-20.2v18.9h-7.7v-35.8h0.4l22.2,20.2v-18.9h7.7V252.9z"/>
			<path fill="#E5022D" d="M227.6,234.4c0,5-1.7,9.1-5.2,12.2c-3.7,3.3-8.9,5-15.5,5h-9.3v-34.5h9.3c6.7,0,11.8,1.7,15.6,5
				C225.9,225.3,227.6,229.3,227.6,234.4z M219.3,234.3c0-2.8-0.8-5-2.5-6.8c-2-2.1-5-3.2-9.1-3.2h-1.8v20h1.8c4,0,7-1.1,9.1-3.2
				C218.4,239.3,219.3,237.1,219.3,234.3z"/>
			<path fill="#E5022D" d="M266.1,251.6h-9.3l-9.4-13.5H246v13.5h-8v-34.5h11.4c3.7,0,6.7,1,9.1,3s3.6,4.4,3.6,7.3
				c0,2.2-0.6,4.1-1.7,5.7c-1.2,1.7-2.9,3-5.2,3.7L266.1,251.6z M254.1,228.1c0-3.1-1.8-4.6-5.4-4.6H246v9.4h3
				c1.7,0,3.1-0.5,3.9-1.6C253.7,230.4,254.1,229.3,254.1,228.1z"/>
			<path fill="#E5022D" d="M308,251.6h-8.7l-2.2-5.1h-14.3l-2.3,5.1h-8.1l17.7-35.3h0.5L308,251.6z M294.7,240.5l-4.5-10.7
				l-4.7,10.7H294.7z"/>
		</g>
		<g>
			<path fill="#E5022D" d="M102.1,344.8H80.4v-34.5h8.2v27.2H102v7.3H102.1z"/>
			<path fill="#E5022D" d="M144.4,327.5c0,5-1.7,9.3-5.2,13s-7.7,5.6-12.6,5.6c-5,0-9.2-1.9-12.7-5.6s-5.2-8.1-5.2-13
				c0-5,1.7-9.4,5.2-13.1c3.4-3.7,7.7-5.5,12.7-5.5s9.2,1.9,12.7,5.7C142.7,318.3,144.4,322.6,144.4,327.5z M135.8,327.5
				c0-3.1-0.9-5.6-2.8-7.7c-1.9-2.1-4-3.2-6.4-3.2c-2.6,0-4.8,1-6.6,3.1c-1.8,2-2.7,4.6-2.7,7.8c0,3.1,1,5.7,2.9,7.9
				c1.8,2,3.9,3,6.4,3c2.4,0,4.6-1,6.4-3C134.9,333.3,135.8,330.7,135.8,327.5z"/>
			<path fill="#E5022D" d="M185,346.1h-0.4l-22.2-20.2v18.9h-7.7V309h0.4l22.2,20.2v-18.9h7.7V346.1z"/>
			<path fill="#E5022D" d="M227.6,327.5c0,5-1.7,9.1-5.2,12.2c-3.7,3.3-8.9,5-15.5,5h-9.3v-34.5h9.3c6.7,0,11.8,1.7,15.6,5
				C225.9,318.4,227.6,322.5,227.6,327.5z M219.3,327.5c0-2.8-0.8-5-2.5-6.8c-2-2.1-5-3.2-9.1-3.2h-1.8v20h1.8c4,0,7-1.1,9.1-3.2
				C218.4,332.5,219.3,330.2,219.3,327.5z"/>
			<path fill="#E5022D" d="M266.1,344.8h-9.3l-9.4-13.5H246v13.5h-8v-34.5h11.4c3.7,0,6.7,1,9.1,3s3.6,4.4,3.6,7.3
				c0,2.2-0.6,4.1-1.7,5.7c-1.2,1.7-2.9,3-5.2,3.7L266.1,344.8z M254.1,321.2c0-3.1-1.8-4.6-5.4-4.6H246v9.4h3
				c1.7,0,3.1-0.5,3.9-1.6C253.7,323.5,254.1,322.5,254.1,321.2z"/>
			<path fill="#E5022D" d="M308,344.8h-8.7l-2.2-5.1h-14.3l-2.3,5.1h-8.1l17.7-35.3h0.5L308,344.8z M294.7,333.7l-4.5-10.7
				l-4.7,10.7H294.7z"/>
		</g>
		<g>
			<path fill="#FFFFFF" d="M74.5,298.2H52.8v-34.5h21.4v7.2H61.1v6.2h11.3v7H61.1v6.8h13.4V298.2z"/>
			<path fill="#FFFFFF" d="M110.4,280.9c0,5-1.7,9.1-5.2,12.2c-3.7,3.3-8.9,5-15.5,5h-9.3v-34.4h9.3c6.7,0,11.8,1.7,15.6,5
				C108.7,271.9,110.4,275.9,110.4,280.9z M102,280.9c0-2.8-0.8-5-2.5-6.8c-2-2.1-5-3.2-9.1-3.2h-1.8v20h1.8c4,0,7-1.1,9.1-3.2
				C101.2,285.9,102,283.7,102,280.9z"/>
			<path fill="#FFFFFF" d="M123.5,298.2h-8.2v-34.5h8.2V298.2z"/>
			<path fill="#FFFFFF" d="M168.7,298.2H161l-3-15.9l-9.5,17.2h-0.4L138,281.8l-3.2,16.3h-7.2l7.2-35.8h0.4l13.1,22.9l12.5-22.9h0.4
				L168.7,298.2z"/>
			<path fill="#FFFFFF" d="M196.7,288.2c0,3.1-1.2,5.5-3.7,7.3c-2.4,1.8-5.9,2.7-10.2,2.7h-9.9v-34.5h11c3.7,0,6.6,0.8,8.6,2.3
				c2.1,1.5,3.1,3.6,3.1,6.3c0,3.5-1.8,6-5.4,7.4c2,0.7,3.5,1.7,4.7,3.1C196.1,284.3,196.7,286.1,196.7,288.2z M188.2,273.4
				c0-2.6-1.7-3.8-5.1-3.8h-2.9v7.9h3.2c1.7,0,3-0.5,3.8-1.4C187.9,275.4,188.2,274.5,188.2,273.4z M189.1,287.3
				c0-2.9-1.9-4.3-5.6-4.3h-3.3v9h2.9c2.1,0,3.7-0.5,4.7-1.5C188.7,289.6,189.1,288.6,189.1,287.3z"/>
			<path fill="#FFFFFF" d="M230.4,284.6c0,4.3-1.2,7.8-3.6,10.5c-2.6,2.9-6.2,4.4-10.7,4.4c-4.6,0-8.2-1.4-10.8-4.1
				c-2.6-2.7-3.9-6.3-3.9-10.8v-20.9h8.2v20.2c0,2.4,0.5,4.3,1.6,5.8c1.2,1.6,2.9,2.4,5.2,2.4c4.6,0,6.9-2.6,6.9-7.9v-20.5h7.2v20.9
				H230.4z"/>
			<path fill="#FFFFFF" d="M265.1,298.2h-9.3l-9.4-13.5H245v13.5h-8.1v-34.5h11.4c3.7,0,6.7,1,9.1,3s3.6,4.4,3.6,7.3
				c0,2.2-0.6,4.1-1.7,5.7c-1.2,1.7-2.9,3-5.2,3.7L265.1,298.2z M253.2,274.6c0-3.1-1.8-4.6-5.4-4.6h-2.7v9.4h3
				c1.7,0,3.1-0.5,3.9-1.6C252.8,277,253.2,275.9,253.2,274.6z"/>
			<path fill="#FFFFFF" d="M296.6,295.9c-1.1,1-3.1,1.8-5.7,2.6c-2.7,0.8-5.1,1.1-7.4,1.1c-5.1,0-9.4-1.8-13-5.4s-5.5-8-5.5-13.2
				c0-5,1.8-9.3,5.4-13c3.6-3.7,8-5.6,13.3-5.6c4.3,0,8,1.2,11.1,3.7l-0.9,8.5c-3-3.1-6.2-4.6-9.8-4.6c-3,0-5.5,1-7.4,3
				c-2.1,2.1-3.1,4.7-3.1,8c0,3.2,1,5.9,3.1,7.9c2,2,4.6,3.1,7.6,3.1c1.4,0,2.8-0.2,4.3-0.7v-5.2H282v-6.9h14.7v16.7H296.6z"/>
			<path fill="#FFFFFF" d="M336.3,280.9c0,5-1.7,9.3-5.2,13s-7.7,5.6-12.6,5.6c-5,0-9.2-1.9-12.7-5.6s-5.2-8.1-5.2-13
				c0-5,1.7-9.4,5.2-13.1c3.4-3.7,7.7-5.5,12.7-5.5s9.2,1.9,12.7,5.7C334.6,271.7,336.3,276,336.3,280.9z M327.8,280.9
				c0-3.1-0.9-5.6-2.8-7.7c-1.9-2.1-4-3.2-6.4-3.2c-2.6,0-4.8,1-6.6,3.1c-1.8,2-2.7,4.6-2.7,7.8c0,3.1,1,5.7,2.9,7.9
				c1.8,2,3.9,3,6.4,3c2.4,0,4.6-1,6.4-3C326.8,286.7,327.8,284.1,327.8,280.9z"/>
		</g>
	</g>
</g>
</svg>
