<?xml version="1.0" encoding="utf-8"?>
<!-- Generator: Adobe Illustrator 19.1.0, SVG Export Plug-In . SVG Version: 6.00 Build 0)  -->
<svg version="1.1" id="Layer_1" xmlns="http://www.w3.org/2000/svg" xmlns:xlink="http://www.w3.org/1999/xlink" x="0px" y="0px"
	 viewBox="-23.9 331.1 478.5 131.7" style="enable-background:new -23.9 331.1 478.5 131.7;" xml:space="preserve">
<metadata><?xpacket begin="﻿" id="W5M0MpCehiHzreSzNTczkc9d"?>
<x:xmpmeta xmlns:x="adobe:ns:meta/" x:xmptk="Adobe XMP Core 5.6-c067 79.157747, 2015/03/30-23:40:42        ">
   <rdf:RDF xmlns:rdf="http://www.w3.org/1999/02/22-rdf-syntax-ns#">
      <rdf:Description rdf:about=""/>
   </rdf:RDF>
</x:xmpmeta>
                                                                                                    
                                                                                                    
                                                                                                    
                                                                                                    
                                                                                                    
                                                                                                    
                                                                                                    
                                                                                                    
                                                                                                    
                                                                                                    
                                                                                                    
                                                                                                    
                                                                                                    
                                                                                                    
                                                                                                    
                                                                                                    
                                                                                                    
                                                                                                    
                                                                                                    
                                                                                                    
                           
<?xpacket end="w"?></metadata>
<style type="text/css">
	.st0{display:none;}
	.st1{display:inline;}
	.st2{fill:#EB0029;}
	.st3{fill:#333E48;}
	.st4{fill:#E5022D;}
</style>
<g class="st0">
	<g class="st1">
		<g>
			<path class="st2" d="M33.1,367.3H11.2v-34.9h8.3v27.5h13.6V367.3z"/>
			<path class="st2" d="M74.6,349.9c0,5-1.8,9.4-5.3,13.2c-3.5,3.7-7.8,5.6-12.8,5.6s-9.3-1.9-12.8-5.6s-5.3-8.1-5.3-13.2
				c0-5.1,1.7-9.5,5.2-13.2c3.5-3.7,7.8-5.6,12.8-5.6s9.3,1.9,12.9,5.8C72.8,340.5,74.6,344.9,74.6,349.9z M65.9,349.9
				c0-3.1-0.9-5.7-2.8-7.8s-4.1-3.2-6.5-3.2c-2.6,0-4.9,1-6.7,3.1c-1.8,2.1-2.8,4.7-2.8,7.9c0,3.2,1,5.8,2.9,8c1.8,2,4,3,6.5,3
				s4.6-1,6.5-3C64.9,355.7,65.9,353,65.9,349.9z"/>
			<path class="st2" d="M114.5,368.6h-0.4l-22.4-20.4v19.1h-7.8v-36.2h0.4l22.4,20.4v-19.1h7.8V368.6z"/>
			<path class="st2" d="M156.2,349.9c0,5.1-1.8,9.2-5.3,12.3c-3.7,3.4-9,5.1-15.6,5.1h-9.4v-34.9h9.4c6.7,0,12,1.7,15.7,5.1
				C154.5,340.7,156.2,344.8,156.2,349.9z M147.8,349.8c0-2.8-0.8-5.1-2.5-6.9c-2-2.2-5.1-3.2-9.2-3.2h-1.8v20.2h1.8
				c4,0,7.1-1.1,9.2-3.2C146.9,354.9,147.8,352.6,147.8,349.8z"/>
			<path class="st2" d="M199.5,349.9c0,5-1.8,9.4-5.3,13.2c-3.5,3.7-7.8,5.6-12.8,5.6s-9.3-1.9-12.8-5.6s-5.3-8.1-5.3-13.2
				c0-5.1,1.7-9.5,5.2-13.2c3.5-3.7,7.8-5.6,12.8-5.6s9.3,1.9,12.9,5.8C197.8,340.5,199.5,344.9,199.5,349.9z M190.8,349.9
				c0-3.1-0.9-5.7-2.8-7.8c-1.9-2.1-4.1-3.2-6.5-3.2c-2.6,0-4.9,1-6.7,3.1s-2.8,4.7-2.8,7.9c0,3.2,1,5.8,2.9,8c1.8,2,4,3,6.5,3
				s4.6-1,6.5-3C189.9,355.7,190.8,353,190.8,349.9z"/>
			<path class="st2" d="M239.5,368.6H239l-22.4-20.4v19.1h-7.8v-36.2h0.4l22.4,20.4v-19.1h7.8v36.2H239.5z"/>
		</g>
		<g>
			<path class="st2" d="M33.1,461.5H11.2v-34.8h8.3v27.5h13.6V461.5z"/>
			<path class="st2" d="M74.6,444c0,5-1.8,9.4-5.3,13.2c-3.5,3.7-7.8,5.6-12.8,5.6s-9.3-1.9-12.8-5.6c-3.5-3.7-5.3-8.1-5.3-13.2
				c0-5.1,1.7-9.5,5.2-13.2s7.8-5.6,12.8-5.6s9.3,1.9,12.9,5.8C72.8,434.7,74.6,439.1,74.6,444z M65.9,444c0-3.1-0.9-5.7-2.8-7.8
				S59,433,56.6,433c-2.6,0-4.9,1-6.7,3.1c-1.8,2.1-2.8,4.7-2.8,7.9c0,3.2,1,5.8,2.9,8c1.8,2,4,3,6.5,3s4.6-1,6.5-3
				C64.9,449.8,65.9,447.2,65.9,444z"/>
			<path class="st2" d="M114.5,462.8h-0.4l-22.4-20.4v19.1h-7.8v-36.2h0.4l22.4,20.4v-19.1h7.8V462.8z"/>
			<path class="st2" d="M156.2,444c0,5.1-1.8,9.2-5.3,12.3c-3.7,3.4-9,5.1-15.6,5.1h-9.4v-34.8h9.4c6.7,0,12,1.7,15.7,5.1
				C154.5,434.9,156.2,439,156.2,444z M147.8,444c0-2.8-0.8-5.1-2.5-6.9c-2-2.2-5.1-3.2-9.2-3.2h-1.8v20.2h1.8c4,0,7.1-1.1,9.2-3.2
				C146.9,449.1,147.8,446.8,147.8,444z"/>
			<path class="st2" d="M199.5,444c0,5-1.8,9.4-5.3,13.2c-3.5,3.7-7.8,5.6-12.8,5.6s-9.3-1.9-12.8-5.6c-3.5-3.7-5.3-8.1-5.3-13.2
				c0-5.1,1.7-9.5,5.2-13.2s7.8-5.6,12.8-5.6s9.3,1.9,12.9,5.8C197.8,434.7,199.5,439.1,199.5,444z M190.8,444
				c0-3.1-0.9-5.7-2.8-7.8c-1.9-2.1-4.1-3.2-6.5-3.2c-2.6,0-4.9,1-6.7,3.1c-1.8,2.1-2.8,4.7-2.8,7.9c0,3.2,1,5.8,2.9,8
				c1.8,2,4,3,6.5,3s4.6-1,6.5-3C189.9,449.8,190.8,447.2,190.8,444z"/>
			<path class="st2" d="M239.5,462.8H239l-22.4-20.4v19.1h-7.8v-36.2h0.4l22.4,20.4v-19.1h7.8v36.2H239.5z"/>
		</g>
		<g>
			<path class="st3" d="M5.3,414.4h-21.9v-34.9H5v7.3H-8.3v6.3H3.1v7.1H-8.3v6.9H5.3C5.3,407.1,5.3,414.4,5.3,414.4z"/>
			<path class="st3" d="M41.6,396.9c0,5.1-1.8,9.2-5.3,12.3c-3.7,3.4-9,5.1-15.6,5.1h-9.4v-34.8h9.4c6.7,0,12,1.7,15.7,5.1
				C39.9,387.8,41.6,391.9,41.6,396.9z M33.2,396.9c0-2.8-0.8-5.1-2.5-6.9c-2-2.2-5.1-3.2-9.2-3.2h-1.8V407h1.8c4,0,7.1-1.1,9.2-3.2
				C32.3,402,33.2,399.7,33.2,396.9z"/>
			<path class="st3" d="M54.8,414.4h-8.3v-34.9h8.3V414.4z"/>
			<path class="st3" d="M92.6,415.7h-0.4l-22.4-20.4v19.1H62v-36.2h0.4l22.4,20.4v-19.1h7.8V415.7z"/>
			<path class="st3" d="M123.8,404.3c0,3.1-1.2,5.6-3.7,7.4s-5.9,2.7-10.3,2.7H99.7v-34.9h11.1c3.7,0,6.7,0.8,8.7,2.3
				c2.1,1.6,3.1,3.7,3.1,6.4c0,3.6-1.8,6.1-5.5,7.5c2,0.7,3.6,1.7,4.7,3.1C123.2,400.4,123.8,402.2,123.8,404.3z M115.2,389.3
				c0-2.6-1.7-3.9-5.2-3.9h-2.9v8h3.2c1.7,0,3-0.5,3.9-1.4C114.9,391.3,115.2,390.4,115.2,389.3z M116.1,403.4
				c0-2.9-1.9-4.3-5.6-4.3h-3.4v9.1h2.9c2.1,0,3.7-0.5,4.8-1.5C115.7,405.7,116.1,404.7,116.1,403.4z"/>
			<path class="st3" d="M157.9,400.7c0,4.3-1.2,7.9-3.7,10.6c-2.6,3-6.2,4.4-10.8,4.4s-8.2-1.4-10.9-4.1c-2.7-2.8-4-6.4-4-10.9
				v-21.2h8.3v20.4c0,2.5,0.5,4.4,1.6,5.8c1.2,1.6,2.9,2.4,5.3,2.4c4.6,0,6.9-2.7,6.9-8v-20.6h7.3L157.9,400.7L157.9,400.7z"/>
			<path class="st3" d="M192.9,414.4h-9.4l-9.5-13.6h-1.4v13.6h-8.2v-34.9h11.5c3.7,0,6.8,1,9.2,3s3.6,4.4,3.6,7.4
				c0,2.2-0.6,4.1-1.7,5.8c-1.2,1.8-3,3-5.2,3.7L192.9,414.4z M180.9,390.6c0-3.1-1.8-4.6-5.4-4.6h-2.7v9.5h3c1.8,0,3.1-0.5,4-1.6
				C180.5,392.9,180.9,391.8,180.9,390.6z"/>
			<path class="st3" d="M224.7,412c-1.2,1-3.1,1.8-5.8,2.6c-2.7,0.8-5.2,1.1-7.4,1.1c-5.1,0-9.5-1.8-13.2-5.5
				c-3.7-3.7-5.5-8.1-5.5-13.3c0-5,1.8-9.4,5.5-13.2c3.7-3.7,8.1-5.6,13.4-5.6c4.3,0,8.1,1.3,11.2,3.8l-0.9,8.6
				c-3-3.1-6.3-4.6-10-4.6c-3,0-5.5,1-7.5,3c-2.1,2.1-3.1,4.8-3.1,8.1c0,3.3,1,6,3.1,8c2.1,2.1,4.6,3.1,7.7,3.1
				c1.4,0,2.8-0.2,4.3-0.7v-5.2h-6.7v-7h14.9L224.7,412L224.7,412z"/>
			<path class="st3" d="M261.1,414.4h-8.3v-14.7h-13.3v14.7h-8.3v-34.9h8.3v12.7h13.3v-12.7h8.3V414.4z"/>
		</g>
	</g>
</g>
<g>
	<rect x="282.2" y="349.8" class="st3" width="3" height="94.2"/>
</g>
<g>
	<g>
		<path class="st4" d="M342.8,413.6l-1.2,7.8h-35.3v-2l19.8-22.1c3.9-4.3,5.8-8,5.8-11.1c0-2.2-0.7-4.1-2.2-5.5
			c-1.6-1.5-3.7-2.3-6.4-2.3c-4,0-7.1,2.5-9.4,7.4l-7.1-3.6c1.4-3.6,3.6-6.4,6.5-8.5c3-2.1,6.4-3.1,10.3-3.1c4.7,0,8.6,1.4,11.8,4.1
			c3.3,2.9,5,6.7,5,11.3c0,5-2.8,10.5-8.4,16.3l-10.8,11.3H342.8L342.8,413.6z"/>
		<path class="st4" d="M383.4,396.8c0,9.7-2,16.7-6,21.2c-3,3.4-6.8,5.1-11.3,5.1c-5.3,0-9.5-2.3-12.6-6.8
			c-3.2-4.7-4.8-11.3-4.8-19.8c0-8,1.6-14.3,4.8-19c3.2-4.7,7.4-7,12.6-7c4.7,0,8.6,1.9,11.8,5.7C381.6,381,383.4,387.8,383.4,396.8
			z M375,396.8c0-7-1.1-12.1-3.2-15.2c-1.5-2.1-3.4-3.2-5.7-3.2c-2.2,0-4.2,1.2-5.8,3.6c-2.1,3.2-3.2,8-3.2,14.3
			c0,7,1.1,12.2,3.4,15.4c1.5,2.3,3.4,3.5,5.7,3.5c2.2,0,4.1-1.1,5.6-3.2C373.9,409,375,403.9,375,396.8z"/>
		<path class="st4" d="M407.2,421.4h-8.3v-42.3h-7.1l1.3-6.7h14.1V421.4z"/>
		<path class="st4" d="M454.6,372.4l-22.3,49h-9l19-41.1h-23.2v-7.9H454.6z"/>
	</g>
</g>
<g>
	<g>
		<g>
			<path class="st4" d="M25.8,367.3H3.9v-34.9h8.3v27.5h13.6V367.3z"/>
			<path class="st4" d="M66.2,349.9c0,5-1.8,9.4-5.3,13.2c-3.5,3.7-7.8,5.6-12.8,5.6s-9.3-1.9-12.8-5.6S30,355,30,349.9
				c0-5.1,1.7-9.5,5.2-13.2c3.5-3.7,7.8-5.6,12.8-5.6s9.3,1.9,12.9,5.8C64.5,340.5,66.2,344.9,66.2,349.9z M57.6,349.9
				c0-3.1-0.9-5.7-2.8-7.8c-2-2.2-4.2-3.2-6.6-3.2c-2.6,0-4.9,1-6.7,3.1c-1.8,2.1-2.8,4.7-2.8,7.9c0,3.2,1,5.8,2.9,8
				c1.8,2,4,3,6.5,3s4.6-1,6.5-3C56.6,355.7,57.6,353,57.6,349.9z"/>
			<path class="st4" d="M105.1,368.6h-0.4l-22.4-20.4v19.1h-7.8v-36.2h0.4l22.4,20.4v-19.1h7.8V368.6z"/>
			<path class="st4" d="M145.8,349.9c0,5.1-1.8,9.2-5.3,12.3c-3.7,3.4-9,5.1-15.6,5.1h-9.4v-34.9h9.4c6.7,0,12,1.7,15.7,5.1
				C144.1,340.7,145.8,344.8,145.8,349.9z M137.3,349.8c0-2.8-0.8-5.1-2.5-6.9c-2-2.2-5.1-3.2-9.2-3.2h-1.8v20.2h1.8
				c4,0,7.1-1.1,9.2-3.2C136.5,354.9,137.3,352.6,137.3,349.8z"/>
			<path class="st4" d="M182.3,367.3h-9.4l-9.5-13.6H162v13.6h-8.2v-34.9h11.5c3.7,0,6.8,1,9.2,3s3.6,4.4,3.6,7.4
				c0,2.2-0.6,4.1-1.7,5.8c-1.2,1.8-3,3-5.2,3.7L182.3,367.3z M170.2,343.5c0-3.1-1.8-4.6-5.4-4.6h-2.7v9.5h3c1.8,0,3.1-0.5,4-1.6
				C169.8,345.8,170.2,344.7,170.2,343.5z"/>
			<path class="st4" d="M210.5,367.3h-21.9v-34.9h21.6v7.3h-13.3v6.3h11.4v7.1h-11.4v6.8h13.6L210.5,367.3L210.5,367.3z"/>
			<path class="st4" d="M241,356.9c0,3.4-1.1,6.1-3.3,8.3c-2.3,2.3-5.4,3.4-9.1,3.4s-6.9-0.6-9.8-1.8l-0.6-9.1
				c3.5,2.4,6.9,3.6,10,3.6c3.2,0,4.8-1.2,4.8-3.7c0-1.1-0.6-2.1-1.7-3c-0.6-0.5-2-1.3-4.1-2.4l-2.5-1.3c-4.6-2.5-6.9-5.7-6.9-9.8
				c0-2.8,1.1-5.2,3.2-7.1s4.9-2.9,8.3-2.9c1.7,0,3.5,0.3,5.5,0.8c1.5,0.4,2.6,0.8,3.4,1.2l0.1,8c-3.3-2.2-6.2-3.3-8.8-3.3
				c-2.5,0-3.8,1.1-3.8,3.3c0,1.2,1.5,2.6,4.6,4.2l3.1,1.6C238.5,349.4,241,352.8,241,356.9z"/>
		</g>
		<g>
			<path class="st4" d="M25.8,461.5H3.9v-34.8h8.3v27.5h13.6V461.5z"/>
			<path class="st4" d="M66.2,444c0,5-1.8,9.4-5.3,13.2c-3.5,3.7-7.8,5.6-12.8,5.6s-9.3-1.9-12.8-5.6c-3.5-3.7-5.3-8.1-5.3-13.2
				c0-5.1,1.7-9.5,5.2-13.2s7.8-5.6,12.8-5.6s9.3,1.9,12.9,5.8C64.5,434.7,66.2,439.1,66.2,444z M57.6,444c0-3.1-0.9-5.7-2.8-7.8
				s-4.1-3.2-6.5-3.2c-2.6,0-4.9,1-6.7,3.1c-1.8,2.1-2.8,4.7-2.8,7.9c0,3.2,1,5.8,2.9,8c1.8,2,4,3,6.5,3s4.6-1,6.5-3
				C56.6,449.8,57.6,447.2,57.6,444z"/>
			<path class="st4" d="M105.1,462.8h-0.4l-22.4-20.4v19.1h-7.8v-36.2h0.4l22.4,20.4v-19.1h7.8V462.8z"/>
			<path class="st4" d="M145.8,444c0,5.1-1.8,9.2-5.3,12.3c-3.7,3.4-9,5.1-15.6,5.1h-9.4v-34.8h9.4c6.7,0,12,1.7,15.7,5.1
				C144.1,434.9,145.8,439,145.8,444z M137.3,444c0-2.8-0.8-5.1-2.5-6.9c-2-2.2-5.1-3.2-9.2-3.2h-1.8v20.2h1.8c4,0,7.1-1.1,9.2-3.2
				C136.5,449.1,137.3,446.8,137.3,444z"/>
			<path class="st4" d="M182.3,461.5h-9.4l-9.5-13.6H162v13.6h-8.2v-34.8h11.5c3.7,0,6.8,1,9.2,3s3.6,4.4,3.6,7.4
				c0,2.2-0.6,4.1-1.7,5.8c-1.2,1.8-3,3-5.2,3.7L182.3,461.5z M170.2,437.7c0-3.1-1.8-4.6-5.4-4.6h-2.7v9.5h3c1.8,0,3.1-0.5,4-1.6
				C169.8,440,170.2,438.9,170.2,437.7z"/>
			<path class="st4" d="M210.5,461.5h-21.9v-34.8h21.6v7.3h-13.3v6.3h11.4v7.1h-11.4v6.9h13.6L210.5,461.5L210.5,461.5z"/>
			<path class="st4" d="M241,451.1c0,3.4-1.1,6.1-3.3,8.3c-2.3,2.3-5.4,3.4-9.1,3.4s-6.9-0.6-9.8-1.8l-0.6-9.1
				c3.5,2.4,6.9,3.6,10,3.6c3.2,0,4.8-1.2,4.8-3.7c0-1.1-0.6-2.1-1.7-3c-0.6-0.5-2-1.3-4.1-2.4l-2.5-1.3c-4.6-2.5-6.9-5.7-6.9-9.8
				c0-2.8,1.1-5.2,3.2-7.1c2.2-1.9,4.9-2.9,8.3-2.9c1.7,0,3.5,0.3,5.5,0.8c1.5,0.4,2.6,0.8,3.4,1.2l0.1,8c-3.3-2.2-6.2-3.3-8.8-3.3
				c-2.5,0-3.8,1.1-3.8,3.3c0,1.2,1.5,2.6,4.6,4.2l3.1,1.6C238.5,443.6,241,447,241,451.1z"/>
		</g>
		<g>
			<path class="st3" d="M-2,414.4h-21.9v-34.9h21.6v7.3h-13.3v6.3h11.4v7.1h-11.4v6.9H-2V414.4z"/>
			<path class="st3" d="M34.3,396.9c0,5.1-1.8,9.2-5.3,12.3c-3.7,3.4-9,5.1-15.6,5.1H4v-34.8h9.4c6.7,0,12,1.7,15.7,5.1
				C32.5,387.8,34.3,391.9,34.3,396.9z M25.8,396.9c0-2.8-0.8-5.1-2.5-6.9c-2-2.2-5.1-3.2-9.2-3.2h-1.8V407h1.8c4,0,7.1-1.1,9.2-3.2
				C24.9,402,25.8,399.7,25.8,396.9z"/>
			<path class="st3" d="M47.5,414.4h-8.3v-34.9h8.3V414.4z"/>
			<path class="st3" d="M93.1,414.4h-7.8l-3-16.1l-9.6,17.4h-0.4l-10.2-17.8l-3.2,16.5h-7.3l7.3-36.2h0.4l13.3,23.2l12.6-23.2h0.4
				L93.1,414.4z"/>
			<path class="st3" d="M121.5,404.3c0,3.1-1.2,5.6-3.7,7.4s-5.9,2.7-10.3,2.7H97.4v-34.9h11.1c3.7,0,6.7,0.8,8.7,2.3
				c2.1,1.6,3.1,3.7,3.1,6.4c0,3.6-1.8,6.1-5.5,7.5c2,0.7,3.6,1.7,4.7,3.1C120.9,400.4,121.5,402.2,121.5,404.3z M112.9,389.3
				c0-2.6-1.7-3.9-5.2-3.9h-2.9v8h3.2c1.7,0,3-0.5,3.9-1.4C112.6,391.3,112.9,390.4,112.9,389.3z M113.8,403.4
				c0-2.9-1.9-4.3-5.6-4.3h-3.4v9.1h2.9c2.1,0,3.7-0.5,4.8-1.5C113.4,405.7,113.8,404.7,113.8,403.4z"/>
			<path class="st3" d="M160.5,396.9c0,5-1.8,9.4-5.3,13.2s-7.8,5.6-12.8,5.6s-9.3-1.9-12.8-5.6s-5.3-8.1-5.3-13.2
				c0-5.1,1.7-9.5,5.2-13.2s7.8-5.6,12.8-5.6s9.3,1.9,12.9,5.8C158.7,387.6,160.5,392,160.5,396.9z M151.8,396.9
				c0-3.1-0.9-5.7-2.8-7.8c-1.9-2.1-4.1-3.2-6.5-3.2c-2.6,0-4.9,1-6.7,3.1s-2.8,4.7-2.8,7.9c0,3.2,1,5.8,2.9,8c1.8,2,4,3,6.5,3
				s4.6-1,6.5-3C150.8,402.8,151.8,400.1,151.8,396.9z"/>
			<path class="st3" d="M194.2,400.7c0,4.3-1.2,7.9-3.7,10.6c-2.6,3-6.2,4.4-10.8,4.4s-8.2-1.4-10.9-4.1c-2.7-2.8-4-6.4-4-10.9
				v-21.2h8.3v20.4c0,2.5,0.5,4.4,1.6,5.8c1.2,1.6,2.9,2.4,5.3,2.4c4.6,0,6.9-2.7,6.9-8v-20.6h7.3L194.2,400.7L194.2,400.7z"/>
			<path class="st3" d="M229.3,414.4H220l-9.5-13.6h-1.4v13.6H201v-34.9h11.5c3.7,0,6.8,1,9.2,3s3.6,4.4,3.6,7.4
				c0,2.2-0.6,4.1-1.7,5.8c-1.2,1.8-3,3-5.2,3.7L229.3,414.4z M217.2,390.6c0-3.1-1.8-4.6-5.4-4.6h-2.7v9.5h3c1.8,0,3.1-0.5,4-1.6
				C216.8,392.9,217.2,391.8,217.2,390.6z"/>
			<path class="st3" d="M261.1,412c-1.2,1-3.1,1.8-5.8,2.6c-2.7,0.8-5.2,1.1-7.4,1.1c-5.1,0-9.5-1.8-13.2-5.5
				c-3.7-3.7-5.5-8.1-5.5-13.3c0-5,1.8-9.4,5.5-13.2c3.7-3.7,8.1-5.6,13.4-5.6c4.3,0,8.1,1.3,11.2,3.8l-0.9,8.6
				c-3-3.1-6.3-4.6-10-4.6c-3,0-5.5,1-7.5,3c-2.1,2.1-3.1,4.8-3.1,8.1c0,3.3,1,6,3.1,8c2.1,2.1,4.6,3.1,7.7,3.1
				c1.4,0,2.8-0.2,4.3-0.7v-5.2h-6.7v-7h14.9V412z"/>
		</g>
	</g>
</g>
</svg>
