<?xml version="1.0" encoding="utf-8"?>
<!-- Generator: Adobe Illustrator 19.1.0, SVG Export Plug-In . SVG Version: 6.00 Build 0)  -->
<svg version="1.1" id="Layer_1" xmlns="http://www.w3.org/2000/svg" xmlns:xlink="http://www.w3.org/1999/xlink" x="0px" y="0px"
	 viewBox="0 0 200 160" enable-background="new 0 0 200 160" xml:space="preserve">
<metadata><?xpacket begin="﻿" id="W5M0MpCehiHzreSzNTczkc9d"?>
<x:xmpmeta xmlns:x="adobe:ns:meta/" x:xmptk="Adobe XMP Core 5.6-c067 79.157747, 2015/03/30-23:40:42        ">
   <rdf:RDF xmlns:rdf="http://www.w3.org/1999/02/22-rdf-syntax-ns#">
      <rdf:Description rdf:about=""/>
   </rdf:RDF>
</x:xmpmeta>
                                                                                                    
                                                                                                    
                                                                                                    
                                                                                                    
                                                                                                    
                                                                                                    
                                                                                                    
                                                                                                    
                                                                                                    
                                                                                                    
                                                                                                    
                                                                                                    
                                                                                                    
                                                                                                    
                                                                                                    
                                                                                                    
                                                                                                    
                                                                                                    
                                                                                                    
                                                                                                    
                           
<?xpacket end="w"?></metadata>
<g>
	<g>
		<path fill="#A93427" stroke="#FFFFFF" stroke-width="0.4284" stroke-miterlimit="10" d="M162.6,89.9c0,34.3-27.8,62.2-62.1,62.2
			c-34.3,0-62.2-27.8-62.2-62.1c0-34.3,27.8-62.2,62.1-62.2C134.7,27.8,162.6,55.6,162.6,89.9z"/>
		<g>
			<path fill="#8E2C1F" d="M128.2,26.6c0.1,1.1,0.4,2.2,0.9,3.2c-2.6-2.9-5.8-3.9-5.8-3.9s-2.5-1-5.9-0.8c0.9-0.4,1.8-1,2.5-1.8
				c1.7-1.7,2.7-4,2.7-6.5c0-1.2-0.2-2.3-0.6-3.3c2.4,2.1,4.7,2.9,4.7,2.9s3.7,1.5,8.2,0.5l0,0c-1.8,0.5-3.4,1.5-4.7,2.9
				C128.8,21.7,128,24.1,128.2,26.6z M78.9,16.9c0-1.8,0.5-3.6,1.5-5c-2.7,3.5-6.4,4.6-6.4,4.6s-3,1.2-6.9,0.7
				c1.3,0.6,2.5,1.4,3.5,2.5c1.6,1.9,2.3,4.2,2.1,6.7c-0.1,1.2-0.4,2.3-0.9,3.3c2.6-2.8,5.6-3.8,5.6-3.8s3-1.2,6.9-0.7
				C81.2,23.8,78.9,20.6,78.9,16.9z M37.1,47.9c-1.2-1.4-1.9-3.1-2.1-4.8c0.1,4.4-1.9,7.7-1.9,7.7s-1.5,2.8-4.7,4.9
				c0.9-0.3,1.9-0.5,3-0.5c0.5,0,1.1,0,1.6,0.1c2.4,0.4,4.5,1.8,5.9,3.8c0.5,0.7,0.9,1.6,1.2,2.4c0.4-3.4,1.8-5.7,1.8-5.7
				s1.6-3,5-5.1c-0.9,0.3-1.8,0.5-2.7,0.5C41.4,51.2,38.8,50,37.1,47.9z M26.9,98.7c-0.5,0-1.1,0-1.6-0.1c-1.8-0.3-3.4-1.1-4.7-2.4
				c2.9,3.3,3.5,7.1,3.5,7.1s0.9,3.9-0.9,8.1c-0.7,1.5-0.9,3.2-0.6,5c0.8,4.8,5.4,8,10.2,7.1c4.8-0.8,7.9-5.4,7.1-10.2
				c-0.3-1.7-1.1-3.3-2.2-4.5c-3.1-3.4-3.6-7.3-3.6-7.3s-0.7-3.2,0.5-7C32.9,97,30.1,98.7,26.9,98.7z M174.4,98.6
				c-3.2,0-6-1.6-7.6-4.1c1.1,3.7,0.4,6.8,0.4,6.8s-0.5,4-3.6,7.3c0,0-0.6,0.7-1.2,1.7c-0.3,0.4-0.5,0.9-0.7,1.4
				c-0.2,0.4-0.3,0.9-0.4,1.3c0,0,0,0,0,0c0,0.1,0,0.1,0,0.2c-0.8,4.8,2.3,9.3,7.1,10.2c4.8,0.8,9.3-2.4,10.2-7.1c0-0.1,0-0.1,0-0.2
				c0,0,0,0,0,0c0.1-0.5,0.1-0.9,0.1-1.4c0-0.5-0.1-1-0.2-1.5c-0.2-1.2-0.5-2-0.5-2c-1.8-4.2-0.9-8.1-0.9-8.1s0.4-3.2,2.8-6.3
				c-1.2,0.9-2.5,1.5-4,1.8C175.5,98.5,175,98.6,174.4,98.6z M168.4,55.3c0.5-0.1,1.1-0.1,1.6-0.1c1.4,0,2.7,0.3,3.9,0.9
				c-4.1-2.1-5.9-5.6-5.9-5.6s-1.9-3.1-1.9-7.2c-0.2,1.8-0.9,3.5-2.1,4.9c-1.7,2.1-4.3,3.3-7,3.3c-0.6,0-1.2-0.2-1.7-0.3
				c2.8,2,4.1,4.5,4.1,4.5s1.7,2.8,1.9,6.7C162,58.7,164.7,55.9,168.4,55.3z"/>
			<path fill="#A93427" d="M122.3,16.8c0-4.9-3.9-8.8-8.8-8.8c-0.1,0-0.2,0-0.2,0c0,0,0,0,0,0c0,0,0,0,0,0c0,0,0,0,0,0
				c-0.4,0-0.9,0.1-1.4,0.2c-0.5,0.1-1,0.2-1.5,0.4c-1.1,0.4-1.9,0.8-1.9,0.8c-3.4,2.2-6.9,2.3-7.7,2.3c-0.1,0-0.2,0-0.2,0
				s-0.1,0-0.2,0c-0.8,0-4.3-0.1-7.7-2.3c-1.4-0.9-3-1.4-4.8-1.4c0,0,0,0,0,0c-4.8,0-8.8,3.9-8.8,8.8c0,4.8,3.9,8.8,8.8,8.8
				c0,0,0,0,0,0c1.8,0,3.4-0.5,4.8-1.4c3.4-2.2,6.9-2.3,7.7-2.3c0.1,0,0.2,0,0.2,0s0.1,0,0.2,0c0.8,0,4.3,0.1,7.7,2.3
				c0,0,0.8,0.5,1.9,0.8c0.5,0.2,1,0.3,1.5,0.4c0.5,0.1,0.9,0.2,1.4,0.2c0,0,0,0,0,0c0,0,0,0,0,0c0,0,0,0,0,0c0,0,0,0,0.1,0
				c0,0,0.1,0,0.2,0C118.4,25.6,122.4,21.7,122.3,16.8z M85.2,19.9c-0.8-0.8-1.3-1.9-1.3-3c0-1.2,0.4-2.2,1.3-3.1
				c0.8-0.8,1.9-1.3,3.1-1.3c0,0,0,0,0,0c1.1,0,2.2,0.4,3,1.3c0.8,0.8,1.3,1.9,1.3,3.1c0,2.4-1.9,4.3-4.3,4.3
				C87.1,21.2,86,20.7,85.2,19.9z M113.7,12.5C113.7,12.5,113.7,12.5,113.7,12.5c1.2,0,2.2,0.4,3.1,1.3c0.8,0.8,1.3,1.9,1.3,3.1
				s-0.4,2.2-1.3,3.1c-0.8,0.8-1.9,1.3-3,1.3c0,0,0,0,0,0c0,0,0,0,0,0c-1.2,0-2.2-0.4-3-1.3c-0.8-0.8-1.3-1.9-1.3-3
				c0-1.2,0.4-2.2,1.3-3.1C111.5,13,112.6,12.5,113.7,12.5z M70.4,20c-1.7-2.1-4.2-3.1-6.7-3.1c-2,0-4,0.7-5.6,2
				c-0.1,0-0.1,0.1-0.2,0.2c0,0,0,0,0,0c-0.3,0.3-0.7,0.6-1,1c-0.3,0.4-0.6,0.8-0.8,1.3c-0.6,1-0.9,1.9-0.9,1.9
				c-1.3,4.4-4.5,6.8-4.5,6.8s-2.9,2.7-7.5,3.3c-1.6,0.2-3.2,0.9-4.6,2c-3.7,3.1-4.2,8.6-1.1,12.3c1.7,2.1,4.2,3.1,6.7,3.1
				c2,0,4-0.7,5.6-2.1c1.4-1.1,2.3-2.6,2.8-4.2c1.3-4.4,4.5-6.8,4.5-6.8s2.9-2.7,7.5-3.3c0,0,0.9-0.2,2-0.6c0.5-0.2,0.9-0.4,1.4-0.6
				c0.4-0.2,0.8-0.5,1.2-0.8c0,0,0,0,0,0c0.1,0,0.1-0.1,0.2-0.1C73,29.2,73.5,23.7,70.4,20z M41.4,38.6c1.8-1.5,4.5-1.3,6.1,0.5
				c1.5,1.8,1.3,4.6-0.5,6.1c-1.8,1.5-4.5,1.3-6.1-0.5C39.4,42.9,39.6,40.2,41.4,38.6z M59.4,25.2c0.1-1.1,0.6-2.2,1.5-2.9
				c0.9-0.7,2-1.1,3.1-1c1.1,0.1,2.2,0.6,2.9,1.5c1.5,1.8,1.3,4.5-0.5,6.1c-0.9,0.7-2,1.1-3.1,1c-1.2-0.1-2.2-0.6-2.9-1.5
				C59.7,27.4,59.4,26.3,59.4,25.2z M32.9,55.7c-0.5-0.1-1-0.1-1.5-0.1c-4.2,0-7.9,3-8.6,7.2c0,0.1,0,0.1,0,0.2c0,0,0,0,0,0
				c-0.1,0.5-0.1,0.9-0.1,1.4c0,0.5,0.1,1,0.2,1.5c0.2,1.2,0.5,2,0.5,2c1.8,4.2,0.9,8.1,0.9,8.1s-0.5,4-3.6,7.3
				c-1.1,1.2-1.9,2.7-2.2,4.5c-0.8,4.8,2.3,9.3,7.1,10.2c0.5,0.1,1,0.1,1.5,0.1c4.2,0,7.9-3,8.6-7.2c0.3-1.7,0.1-3.4-0.6-5
				c-1.8-4.2-0.9-8.1-0.9-8.1s0.5-4,3.6-7.3c0,0,0.6-0.7,1.2-1.8c0.3-0.4,0.5-0.9,0.7-1.4c0.2-0.4,0.3-0.9,0.4-1.3c0,0,0,0,0,0
				c0-0.1,0-0.1,0-0.2C40.8,61.1,37.6,56.6,32.9,55.7z M32.1,60c2.3,0.4,3.9,2.7,3.5,5c-0.2,1.1-0.8,2.1-1.8,2.8
				c-0.9,0.7-2.1,0.9-3.2,0.7c-2.3-0.4-3.9-2.7-3.5-5c0.4-2.1,2.2-3.6,4.2-3.6C31.6,59.9,31.9,59.9,32.1,60z M27,85
				c0.2,0,0.5,0,0.7,0.1c2.3,0.4,3.9,2.7,3.5,5c-0.4,2.3-2.7,3.9-5,3.5c-2.3-0.4-3.9-2.7-3.5-5C23.1,86.5,24.9,85,27,85z
				 M183.1,87.9c0-0.1,0-0.1,0-0.2c0,0,0,0,0,0c-0.1-0.4-0.2-0.9-0.4-1.3c-0.2-0.5-0.4-0.9-0.7-1.4c-0.6-1-1.2-1.7-1.2-1.7
				c-3.1-3.4-3.6-7.3-3.6-7.3s-0.9-3.9,0.9-8.1c0.6-1.5,0.9-3.2,0.6-5c-0.8-4.3-4.5-7.2-8.6-7.2c-0.5,0-1,0-1.5,0.1
				c-4.8,0.8-7.9,5.4-7.1,10.2c0.3,1.7,1.1,3.3,2.2,4.5c3.1,3.4,3.6,7.3,3.6,7.3s0.9,3.9-0.9,8.1c0,0-0.3,0.9-0.5,2
				c-0.1,0.5-0.1,1-0.2,1.5c0,0.5,0,0.9,0.1,1.4c0,0,0,0,0,0c0,0.1,0,0.2,0,0.2c0.7,4.3,4.4,7.2,8.6,7.2c0.5,0,1,0,1.5-0.1
				C180.7,97.2,183.9,92.7,183.1,87.9z M173.7,85.3c0.3,0,0.5-0.1,0.8-0.1c2.1,0,3.9,1.5,4.2,3.6c0.2,1.1-0.1,2.3-0.7,3.2
				c-0.7,0.9-1.6,1.6-2.8,1.8c-2.3,0.4-4.6-1.2-5-3.5C169.8,88,171.4,85.7,173.7,85.3z M173.6,66.9c-0.7,0.9-1.7,1.6-2.8,1.8
				c-1.1,0.2-2.3-0.1-3.2-0.7c-0.9-0.7-1.6-1.6-1.8-2.8c-0.4-2.3,1.2-4.6,3.5-5c2.3-0.4,4.6,1.2,5,3.5
				C174.5,64.8,174.2,66,173.6,66.9z M156.9,50.9c2.5,0,5-1.1,6.7-3.1c3.1-3.7,2.6-9.2-1.1-12.3c-0.1-0.1-0.1-0.1-0.2-0.1
				c0,0,0,0,0,0c-0.3-0.3-0.7-0.5-1.2-0.8c-0.4-0.2-0.9-0.5-1.4-0.6c-1.1-0.4-2-0.6-2-0.6c-4.5-0.6-7.5-3.3-7.5-3.3
				s-3.2-2.4-4.5-6.8c-0.5-1.6-1.4-3-2.8-4.2c-1.6-1.4-3.6-2-5.6-2c-2.5,0-5,1.1-6.7,3.1c-3.1,3.7-2.6,9.2,1.1,12.3
				c1.3,1.1,2.9,1.8,4.6,2c4.5,0.6,7.5,3.3,7.5,3.3s3.2,2.4,4.5,6.8c0,0,0.3,0.9,0.9,1.9c0.2,0.4,0.5,0.9,0.9,1.3
				c0.3,0.4,0.6,0.7,1,1c0,0,0,0,0,0c0.1,0.1,0.1,0.1,0.2,0.2C152.9,50.2,154.9,50.9,156.9,50.9z M140.2,22.5
				c1.8,1.5,2.1,4.3,0.5,6.1c-1.5,1.8-4.3,2.1-6.1,0.5c-1.8-1.5-2.1-4.3-0.5-6.1C135.7,21.2,138.4,21,140.2,22.5z M159.8,38.9
				c1.8,1.5,2.1,4.3,0.5,6.1c-0.7,0.9-1.8,1.4-2.9,1.5c-0.1,0-0.3,0-0.4,0c-1,0-2-0.4-2.8-1c-0.9-0.7-1.4-1.8-1.5-2.9
				c-0.1-1.1,0.3-2.3,1-3.1v0c0.7-0.9,1.8-1.4,2.9-1.5c0.1,0,0.3,0,0.4,0C158,37.9,159,38.2,159.8,38.9z"/>
			<path fill="#FFFFFF" d="M122.7,16.8c0-1.2-0.2-2.3-0.6-3.3c-1.3-3.4-4.6-5.9-8.5-5.9h0l0,0c-0.1,0-0.1,0-0.2,0l-0.1,0
				c0,0,0,0,0,0c-0.5,0-1,0.1-1.4,0.2c-0.5,0.1-1,0.2-1.5,0.4c-1.1,0.4-1.9,0.8-2,0.9c-3.3,2.1-6.8,2.3-7.5,2.3l-0.2,0l-0.2,0
				c-0.7,0-4.1-0.1-7.4-2.2c-1.5-1-3.2-1.5-5-1.5c-2.5,0-4.8,1-6.5,2.7c-0.4,0.4-0.8,0.9-1.2,1.4c-1,1.5-1.5,3.2-1.5,5
				c0,3.7,2.3,6.9,5.5,8.4c1.1,0.5,2.4,0.8,3.7,0.8c1.8,0,3.5-0.5,5-1.5c3.3-2.1,6.8-2.2,7.5-2.2l0.2,0l0.2,0c0.7,0,4.1,0.1,7.5,2.2
				c0.1,0,0.9,0.5,2,0.9c0.5,0.2,1,0.3,1.5,0.4c0.5,0.1,1,0.2,1.4,0.2h0.1l0,0l0.1,0c0,0,0,0,0,0c1.4,0,2.8-0.3,4-0.9
				c0.9-0.4,1.8-1,2.5-1.8C121.8,21.6,122.7,19.3,122.7,16.8z M113.4,25.6C113.4,25.6,113.4,25.6,113.4,25.6
				C113.3,25.6,113.3,25.6,113.4,25.6C113.3,25.6,113.3,25.6,113.4,25.6c-0.5,0-1-0.1-1.4-0.2c-0.5-0.1-1-0.2-1.5-0.4
				c-1.1-0.4-1.9-0.8-1.9-0.8c-3.4-2.2-6.9-2.3-7.7-2.3c-0.1,0-0.2,0-0.2,0s-0.1,0-0.2,0c-0.8,0-4.3,0.1-7.7,2.3
				c-1.4,0.9-3,1.4-4.8,1.4c0,0,0,0,0,0c-4.8,0-8.8-3.9-8.8-8.8c0-4.8,3.9-8.8,8.8-8.8c0,0,0,0,0,0c1.8,0,3.4,0.5,4.8,1.4
				c3.4,2.2,6.8,2.3,7.7,2.3c0.1,0,0.2,0,0.2,0s0.1,0,0.2,0c0.8,0,4.3-0.1,7.7-2.3c0,0,0.8-0.5,1.9-0.8c0.5-0.2,1-0.3,1.5-0.4
				c0.5-0.1,0.9-0.2,1.4-0.2c0,0,0,0,0,0c0,0,0,0,0,0c0,0,0,0,0,0c0.1,0,0.1,0,0.2,0c4.8,0,8.8,3.9,8.8,8.8c0,4.8-3.9,8.8-8.8,8.8
				C113.5,25.6,113.5,25.6,113.4,25.6C113.4,25.6,113.4,25.6,113.4,25.6z M109.4,16.8c0-1.2,0.4-2.2,1.3-3.1c0.8-0.8,1.9-1.3,3-1.3
				c0,0,0,0,0,0c1.1,0,2.2,0.4,3,1.3c0.8,0.8,1.3,1.9,1.3,3.1s-0.4,2.2-1.3,3.1c-0.8,0.8-1.9,1.3-3,1.3c0,0,0,0,0,0c0,0,0,0,0,0
				c-1.2,0-2.2-0.4-3-1.3C109.9,19.1,109.4,18,109.4,16.8z M88.2,21.2c-1.2,0-2.2-0.5-3.1-1.3c-0.8-0.8-1.3-1.9-1.3-3
				c0-1.2,0.4-2.2,1.3-3.1c0.8-0.8,1.9-1.3,3.1-1.3c0,0,0,0,0,0c1.1,0,2.2,0.4,3,1.3c0.8,0.8,1.3,1.9,1.3,3.1
				C92.5,19.2,90.6,21.2,88.2,21.2z M70.7,19.7c-1-1.1-2.2-2-3.5-2.5c-1.1-0.5-2.3-0.7-3.5-0.7c-2.1,0-4.2,0.8-5.9,2.1l-0.1,0.1
				l-0.1,0l-0.1,0.1c-0.3,0.3-0.6,0.6-1,1c-0.3,0.4-0.6,0.9-0.9,1.3c-0.6,1-0.9,1.9-1,1.9c-1.3,4.2-4.4,6.6-4.4,6.6
				c-0.1,0-2.9,2.6-7.3,3.2c-1.8,0.2-3.4,0.9-4.8,2.1c-1.9,1.6-3,3.8-3.2,6.2c-0.1,0.6,0,1.3,0,1.9c0.2,1.8,0.9,3.4,2.1,4.8
				c1.7,2.1,4.3,3.3,7,3.3c0.9,0,1.8-0.2,2.7-0.5c1.1-0.4,2.2-0.9,3.2-1.7c1.4-1.1,2.3-2.6,2.9-4.4c1.3-4.2,4.4-6.6,4.4-6.6
				c0.1,0,2.9-2.6,7.3-3.2c0.1,0,1-0.2,2.1-0.6c0.5-0.2,1-0.4,1.4-0.7c0.5-0.3,0.9-0.5,1.2-0.8l0,0l0,0c0,0,0.1-0.1,0.1-0.1
				c1-0.8,1.8-1.9,2.3-3c0.5-1,0.8-2.1,0.9-3.3C73,24,72.2,21.6,70.7,19.7z M69.3,32.3c-0.1,0-0.1,0.1-0.2,0.1c0,0,0,0,0,0
				c-0.3,0.3-0.7,0.5-1.2,0.8c-0.4,0.3-0.9,0.5-1.4,0.6c-1.1,0.4-2,0.6-2,0.6C60,35.1,57,37.8,57,37.8s-3.2,2.4-4.5,6.8
				c-0.5,1.6-1.4,3-2.8,4.2c-1.6,1.4-3.6,2.1-5.6,2.1c-2.5,0-5-1.1-6.7-3.1c-3.1-3.7-2.6-9.2,1.1-12.3c1.4-1.1,2.9-1.8,4.6-2
				c4.5-0.6,7.5-3.3,7.5-3.3s3.2-2.4,4.5-6.8c0,0,0.3-0.9,0.9-1.9c0.2-0.4,0.5-0.9,0.8-1.3c0.3-0.4,0.6-0.7,1-1c0,0,0,0,0,0
				c0.1,0,0.1-0.1,0.2-0.2c1.6-1.4,3.6-2,5.6-2c2.5,0,5,1.1,6.7,3.1C73.5,23.7,73,29.2,69.3,32.3z M60.4,28.3c-0.7-0.9-1.1-2-1-3.2
				c0.1-1.1,0.6-2.2,1.5-2.9c0.9-0.7,2-1.1,3.1-1c1.1,0.1,2.2,0.6,2.9,1.5c1.5,1.8,1.3,4.5-0.5,6.1c-0.9,0.7-2,1.1-3.1,1
				C62.2,29.8,61.2,29.2,60.4,28.3z M40.9,44.7c-1.5-1.8-1.3-4.6,0.5-6.1c1.8-1.5,4.5-1.3,6.1,0.5c1.5,1.8,1.3,4.6-0.5,6.1
				C45.2,46.8,42.5,46.5,40.9,44.7z M32.9,55.4c-0.5-0.1-1.1-0.1-1.6-0.1c-1,0-2,0.2-3,0.5c-3.1,1.1-5.5,3.7-6,7.1l0,0.1l0,0l0,0.1
				c-0.1,0.4-0.1,0.9-0.1,1.5c0,0.5,0.1,1.1,0.2,1.6c0.2,1.2,0.5,2.1,0.5,2.1c1.7,4.1,0.9,7.9,0.9,7.9c0,0.1-0.6,3.9-3.5,7.1
				c-1.2,1.3-2,2.9-2.3,4.7c-0.4,2.4,0.1,4.8,1.5,6.8c0.4,0.5,0.8,1,1.2,1.4c1.3,1.2,2.9,2,4.7,2.4c0.5,0.1,1.1,0.1,1.6,0.1
				c3.2,0,6-1.6,7.6-4.1c0.7-1,1.2-2.2,1.4-3.4c0.3-1.7,0.1-3.5-0.6-5.2c-1.7-4-0.9-7.8-0.9-7.9c0-0.1,0.6-3.9,3.5-7.1
				c0-0.1,0.6-0.8,1.2-1.8c0.3-0.5,0.5-0.9,0.7-1.4c0.2-0.5,0.3-1,0.4-1.4l0,0l0-0.1l0-0.1c0.3-1.6,0.1-3.1-0.3-4.5
				c-0.3-0.8-0.6-1.6-1.2-2.4C37.5,57.1,35.4,55.8,32.9,55.4z M40,65.9c0,0.1,0,0.2,0,0.2c0,0,0,0,0,0c-0.1,0.4-0.2,0.9-0.4,1.3
				c-0.2,0.5-0.4,0.9-0.7,1.4c-0.6,1-1.2,1.8-1.2,1.8c-3.1,3.4-3.6,7.3-3.6,7.3s-0.9,3.9,0.9,8.1c0.6,1.5,0.9,3.2,0.6,5
				c-0.7,4.3-4.4,7.2-8.6,7.2c-0.5,0-1,0-1.5-0.1c-4.8-0.8-8-5.4-7.1-10.2c0.3-1.7,1.1-3.3,2.2-4.5c3.1-3.4,3.6-7.3,3.6-7.3
				s0.9-3.9-0.9-8.1c0,0-0.3-0.9-0.5-2c-0.1-0.5-0.1-1-0.2-1.5c0-0.5,0-0.9,0.1-1.4c0,0,0,0,0,0c0-0.1,0-0.2,0-0.2
				c0.7-4.3,4.4-7.2,8.6-7.2c0.5,0,1,0,1.5,0.1C37.6,56.6,40.8,61.1,40,65.9z M31.4,59.9c0.2,0,0.5,0,0.7,0.1c2.3,0.4,3.9,2.7,3.5,5
				c-0.2,1.1-0.8,2.1-1.8,2.8c-0.9,0.7-2.1,0.9-3.2,0.7c-2.3-0.4-3.9-2.7-3.5-5C27.5,61.4,29.3,59.9,31.4,59.9z M22.7,88.6
				c0.4-2.1,2.2-3.6,4.3-3.6c0.2,0,0.5,0,0.7,0.1c2.3,0.4,3.9,2.7,3.5,5c-0.4,2.3-2.7,3.9-5,3.5C23.9,93.2,22.3,91,22.7,88.6z
				 M183.5,87.8c0-0.1,0-0.1,0-0.2l0-0.1c-0.1-0.4-0.2-0.9-0.4-1.4c-0.2-0.4-0.4-0.9-0.7-1.4c-0.6-1-1.2-1.8-1.2-1.8
				c-3-3.2-3.5-7.1-3.6-7.1c0-0.1-0.8-3.9,0.9-7.9c0.7-1.6,0.9-3.4,0.6-5.2c-0.5-3-2.5-5.5-5.2-6.7c-1.2-0.6-2.5-0.9-3.9-0.9
				c-0.5,0-1.1,0-1.6,0.1c-3.7,0.7-6.4,3.4-7.3,6.8c-0.3,1.2-0.4,2.5-0.1,3.8c0.3,1.8,1.1,3.4,2.3,4.7c3,3.2,3.5,7.1,3.5,7.1
				c0,0.1,0.8,3.9-0.9,7.9c0,0.1-0.3,1-0.5,2.1c-0.1,0.5-0.2,1-0.2,1.6c0,0.5,0,1,0.1,1.5l0,0.1l0,0l0,0.1c0.2,1.3,0.7,2.4,1.4,3.4
				c1.6,2.5,4.5,4.1,7.6,4.1c0.5,0,1.1,0,1.6-0.1c1.5-0.3,2.8-0.9,4-1.8c0.7-0.6,1.4-1.2,1.9-2C183.4,92.7,183.9,90.2,183.5,87.8z
				 M176,98c-0.5,0.1-1,0.1-1.5,0.1c-4.2,0-7.9-3-8.6-7.2c0-0.1,0-0.1,0-0.2c0,0,0,0,0,0c-0.1-0.4-0.1-0.9-0.1-1.4
				c0-0.5,0.1-1,0.2-1.5c0.2-1.2,0.5-2,0.5-2c1.8-4.2,0.9-8.1,0.9-8.1s-0.5-4-3.6-7.3c-1.1-1.2-1.9-2.7-2.2-4.5
				c-0.8-4.8,2.3-9.3,7.1-10.2c0.5-0.1,1-0.1,1.5-0.1c4.2,0,7.9,3,8.6,7.2c0.3,1.7,0.1,3.4-0.6,5c-1.8,4.2-0.9,8.1-0.9,8.1
				s0.5,4,3.6,7.3c0,0,0.6,0.7,1.2,1.7c0.3,0.4,0.5,0.9,0.7,1.4c0.2,0.4,0.3,0.9,0.4,1.3c0,0,0,0,0,0c0,0.1,0,0.1,0,0.2
				C183.9,92.7,180.7,97.2,176,98z M170.2,90.3c-0.4-2.3,1.2-4.6,3.5-5c0.3,0,0.5-0.1,0.8-0.1c2.1,0,3.9,1.5,4.2,3.6
				c0.2,1.1-0.1,2.3-0.7,3.2c-0.7,0.9-1.6,1.6-2.8,1.8C172.9,94.2,170.6,92.6,170.2,90.3z M174.3,63.7c0.2,1.1,0,2.3-0.7,3.2
				c-0.7,0.9-1.7,1.6-2.8,1.8c-1.1,0.2-2.3-0.1-3.2-0.7c-0.9-0.7-1.6-1.6-1.8-2.8c-0.4-2.3,1.2-4.6,3.5-5
				C171.6,59.8,173.9,61.3,174.3,63.7z M163.9,48c1.2-1.4,1.9-3.1,2.1-4.9c0.1-0.6,0.1-1.2,0-1.8c0-0.4-0.1-0.9-0.2-1.3
				c0,0,0-0.1,0-0.1c-0.5-1.9-1.5-3.6-3-4.9c0,0-0.1-0.1-0.1-0.1c0,0-0.1-0.1-0.1-0.1c-0.3-0.3-0.7-0.5-1.2-0.8
				c-0.5-0.3-0.9-0.5-1.4-0.7c-1.1-0.4-2-0.6-2.1-0.6c-4.4-0.6-7.3-3.2-7.3-3.2c-0.1,0-3.1-2.4-4.4-6.6c-0.5-1.7-1.5-3.2-2.9-4.3
				c-1.6-1.4-3.7-2.1-5.9-2.1c-0.8,0-1.6,0.1-2.4,0.3c-1.8,0.5-3.4,1.5-4.7,2.9c-1.6,1.9-2.3,4.3-2.1,6.7c0.1,1.1,0.4,2.2,0.9,3.2
				c0.6,1.1,1.3,2.2,2.3,3c1.3,1.1,3,1.9,4.8,2.1c4.3,0.5,7.2,3.1,7.3,3.2c0.1,0,3.1,2.4,4.4,6.6c0,0.1,0.4,0.9,1,2
				c0.3,0.5,0.6,0.9,0.9,1.3c0.3,0.4,0.7,0.8,1,1.1l0.1,0.1l0,0c0,0,0.1,0.1,0.1,0.1c1.2,1,2.7,1.6,4.2,1.9c0.6,0.1,1.1,0.3,1.7,0.3
				C159.6,51.3,162.2,50.1,163.9,48z M151.1,48.7c-0.4-0.3-0.7-0.6-1-1c-0.3-0.4-0.6-0.8-0.9-1.3c-0.6-1-0.9-1.9-0.9-1.9
				c-1.4-4.4-4.5-6.8-4.5-6.8s-3-2.7-7.5-3.3c-1.6-0.2-3.2-0.8-4.6-2c-3.7-3.1-4.2-8.6-1.1-12.3c1.7-2.1,4.2-3.1,6.7-3.1
				c2,0,4,0.7,5.6,2c1.4,1.1,2.3,2.6,2.8,4.2c1.4,4.4,4.5,6.8,4.5,6.8s3,2.7,7.5,3.3c0,0,0.9,0.2,2,0.6c0.5,0.2,0.9,0.4,1.4,0.6
				c0.4,0.2,0.8,0.5,1.2,0.8c0,0,0,0,0,0c0.1,0,0.1,0.1,0.2,0.1c3.7,3.1,4.2,8.6,1.1,12.3c-1.7,2.1-4.2,3.1-6.7,3.1
				c-2,0-4-0.7-5.6-2C151.2,48.8,151.2,48.7,151.1,48.7C151.1,48.7,151.1,48.7,151.1,48.7z M156.6,37.9c0.1,0,0.3,0,0.4,0
				c1,0,2,0.4,2.8,1c1.8,1.5,2.1,4.3,0.5,6.1c-0.7,0.9-1.8,1.4-2.9,1.5c-0.1,0-0.3,0-0.4,0c-1,0-2-0.4-2.8-1
				c-0.9-0.7-1.4-1.8-1.5-2.9c-0.1-1.1,0.3-2.3,1-3.1v0C154.5,38.6,155.5,38,156.6,37.9z M134.2,23.1c1.5-1.8,4.3-2.1,6.1-0.5
				c1.8,1.5,2.1,4.3,0.5,6.1c-1.5,1.8-4.3,2.1-6.1,0.5C132.9,27.6,132.6,24.9,134.2,23.1z"/>
		</g>
		<g>
			<path fill="#8E2C1F" d="M100.4,28.2C100.4,28.2,100.4,28.2,100.4,28.2c-34.2,0-61.8,27.7-61.8,61.8c0,34.1,27.7,61.8,61.8,61.8
				c0,0,0,0,0,0c34.1,0,61.8-27.7,61.8-61.8C162.2,55.8,134.5,28.2,100.4,28.2z M154.1,114.8l0.3,0.9c-0.5,0.2-1,0.3-1.4,0.4
				c-6,12.1-16.1,21.8-28.5,27.4c-0.2,0.5-0.3,1-0.4,1.4l-0.9-0.3c0.1-0.2,0.1-0.4,0.2-0.6c-7,3-14.7,4.6-22.9,4.6c0,0,0,0,0,0
				c-8.6,0-16.8-1.9-24.1-5.2c0.2,0.7,0.3,1.3,0.6,2l-0.9,0.3c-0.3-0.9-0.5-1.9-0.8-2.8c-11.7-5.6-21.2-14.9-27-26.4
				c-0.8-0.3-1.7-0.4-2.6-0.7l0.3-0.9c0.6,0.2,1.2,0.3,1.7,0.5c-2-4-3.5-8.3-4.5-12.8c-0.1,0-0.2,0-0.3,0l0.1-0.8
				C42.2,98,41.8,94,41.8,90c0-13.4,4.5-25.8,12.1-35.7l-0.1-0.2c0.1-0.1,0.3-0.1,0.4-0.2c10.7-13.8,27.4-22.6,46.2-22.7
				c0,0,0,0,0,0c0,0,0,0,0,0v0v0c8.3,0,16.2,1.8,23.4,4.9l0.1,0c0,0,0,0.1,0,0.1c20.7,9.1,35.1,29.7,35.1,53.7
				c0,4.1-0.4,8.2-1.3,12.1l0.1,0.4c-0.1,0-0.1,0-0.2,0c-1,4.4-2.4,8.6-4.3,12.5C153.6,114.9,153.8,114.9,154.1,114.8z"/>
			<path fill="#FFFFFF" d="M159.1,89.9c0-24-14.5-44.6-35.1-53.7c0,0,0-0.1,0-0.1l-0.1,0c-7.2-3.1-15.1-4.9-23.4-4.9V32v0.1
				c8.1,0,15.7,1.7,22.7,4.7c1,3.2,1.9,6.3,2.7,9.5c-8.4-2.2-17.1-3.3-25.8-3.3l0-10.9c0.1,0,0.2,0,0.3,0l0-0.1l0-0.7c0,0,0,0,0,0
				c0,0,0,0,0,0c-18.8,0-35.5,8.9-46.2,22.7c-0.1,0.1-0.3,0.1-0.4,0.2l0.1,0.2C46.3,64.2,41.7,76.6,41.8,90c0,4,0.4,8,1.2,11.7
				l-0.1,0.8c0.1,0,0.2,0,0.3,0c1,4.5,2.5,8.8,4.5,12.8c-0.6-0.2-1.2-0.3-1.7-0.5l-0.3,0.9c0.8,0.3,1.7,0.5,2.6,0.7
				c5.8,11.5,15.4,20.8,27,26.4c0.3,0.9,0.5,1.9,0.8,2.8l0.9-0.3c-0.2-0.7-0.4-1.3-0.6-2c7.4,3.3,15.5,5.2,24.1,5.2c0,0,0,0,0,0
				c8.1,0,15.8-1.7,22.9-4.6c-0.1,0.2-0.1,0.4-0.2,0.6l0.9,0.3c0.2-0.5,0.3-1,0.4-1.4c12.4-5.6,22.4-15.3,28.5-27.4
				c0.5-0.2,1-0.3,1.4-0.4l-0.3-0.9c-0.2,0.1-0.4,0.1-0.6,0.2c1.9-4,3.4-8.1,4.3-12.5c0.1,0,0.1,0,0.2,0l-0.1-0.4
				C158.7,98.1,159.1,94.1,159.1,89.9z M154.1,68.4c1.6,3.9,2.7,8,3.4,12.3c-8.4-1.3-16.9-2.3-25.4-3c-0.4-5-1-10-1.8-14.9
				c8,1.4,15.9,3.3,23.7,5.8L154.1,68.4z M100.1,106.1l0-14.2l31.6,0c0,4.3-0.2,8.6-0.5,12.9C120.8,105.6,110.5,106.1,100.1,106.1z
				 M131,105.7c-0.4,5.1-1.2,10.2-2.1,15.3c-9.6,1.6-19.2,2.5-28.8,2.5l0-16.5c0,0,0,0,0,0C110.5,107,120.8,106.6,131,105.7z
				 M100.1,91l0-13.8c10.4,0,20.8,0.4,31.1,1.3c0.3,4.2,0.5,8.3,0.5,12.5L100.1,91z M100.1,76.2l0-16.2c9.8,0,19.6,0.9,29.3,2.5
				c0.8,5,1.4,10,1.8,15C120.9,76.7,110.5,76.2,100.1,76.2z M146.3,54.9c3,3.9,5.5,8.1,7.4,12.7c-7.8-2.5-15.7-4.4-23.6-5.8
				c-0.8-4.8-1.8-9.5-3-14.2C133.7,49.3,140.2,51.8,146.3,54.9L146.3,54.9z M124.3,37.3c8.2,3.7,15.4,9.2,21,16.1
				c-5.9-2.9-12.1-5.2-18.4-6.9C126.1,43.4,125.2,40.3,124.3,37.3z M126.1,47.3c1.2,4.7,2.3,9.5,3.1,14.3
				c-9.7-1.6-19.4-2.5-29.1-2.5l0-15.2C108.9,43.9,117.6,45,126.1,47.3z M99.2,123.5c-9.5,0-19-0.9-28.4-2.5
				c-0.9-5.1-1.6-10.2-2-15.3c10.1,0.9,20.3,1.3,30.4,1.4L99.2,123.5z M99.2,106.1c-10.2,0-20.4-0.5-30.5-1.4
				c-0.3-4.3-0.5-8.5-0.5-12.8l31,0L99.2,106.1z M99.2,91l-31,0c0-4.1,0.2-8.3,0.5-12.4c10.2-0.9,20.3-1.4,30.5-1.4L99.2,91z
				 M99.2,76.2c-10.2,0-20.3,0.5-30.5,1.4c0.4-5,1-10,1.9-14.9c9.5-1.7,19-2.6,28.6-2.7L99.2,76.2z M99.2,59.1
				c-9.5,0.1-19,1-28.4,2.6c0.8-4.8,1.9-9.5,3.1-14.3c8.3-2.2,16.8-3.4,25.3-3.5L99.2,59.1z M99.2,32.1l0,10.9
				c-8.4,0.1-16.8,1.2-25,3.4c0.8-3.1,1.6-6.2,2.6-9.2C83.6,34.1,91.2,32.3,99.2,32.1z M75.7,37.7c-0.9,3-1.7,6-2.5,9
				c-6,1.6-11.8,3.8-17.4,6.5C61.1,46.7,67.9,41.4,75.7,37.7z M54.6,54.8c5.9-3,12-5.3,18.3-7.1c-1.2,4.7-2.2,9.4-3,14.2
				c-7.6,1.4-15.2,3.2-22.7,5.6C49,62.9,51.6,58.7,54.6,54.8z M46.7,68.6c7.6-2.5,15.2-4.3,22.9-5.7c-0.8,4.9-1.4,9.9-1.8,14.8
				c-8.2,0.7-16.3,1.7-24.4,3C44,76.5,45.1,72.4,46.7,68.6z M42.5,90c0-2.8,0.3-5.6,0.7-8.4c8.2-1.3,16.4-2.3,24.6-3
				c-0.3,4.1-0.5,8.2-0.5,12.3l-24.7,0C42.6,90.7,42.5,90.3,42.5,90z M42.6,91.9l24.7,0c0,4.2,0.2,8.5,0.5,12.7
				c-8-0.7-16.1-1.7-24.1-2.9C43.1,98.5,42.7,95.3,42.6,91.9z M44,102.7c7.9,1.2,15.9,2.2,23.9,2.9c0.4,5.1,1.1,10.2,2,15.2
				c-7.1-1.3-14.2-3-21.2-5.1C46.6,111.6,45,107.2,44,102.7z M49.1,116.8c6.9,2.1,13.9,3.8,20.9,5c1.2,6.8,2.8,13.5,4.8,20.1
				C63.9,136.4,54.8,127.6,49.1,116.8z M123.6,143c-7.1,3.1-14.9,4.9-23.2,4.9c-8.7,0-17-2-24.4-5.5c-2.1-6.8-3.7-13.6-5-20.4
				c9.4,1.6,18.8,2.4,28.2,2.4l0,23h0.9l0-23c9.6,0,19.1-0.9,28.6-2.5C127.5,129,125.8,136,123.6,143z M124.7,142.5
				c2.1-6.8,3.8-13.8,5-20.7c7.4-1.3,14.8-3.1,22.1-5.3C146,127.8,136.4,137,124.7,142.5z M152.4,115.3c-7.4,2.3-14.9,4.1-22.5,5.5
				c0.9-5,1.6-10.1,2-15.2c8.3-0.7,16.6-1.7,24.9-3C155.9,107.1,154.4,111.3,152.4,115.3z M157.1,101.6c-8.3,1.3-16.7,2.3-25.1,3
				c0.3-4.3,0.5-8.5,0.5-12.8l25.3,0v-0.9l-25.2,0c0-4.1-0.2-8.3-0.5-12.4c8.5,0.7,17,1.7,25.5,3.1c0.4,2.7,0.7,5.5,0.7,8.3
				C158.3,93.9,157.9,97.9,157.1,101.6z"/>
		</g>
	</g>
	<g>
		<path fill="#A93427" d="M16.8,152.4c-3.2,0-5.8-2.6-5.8-5.8l0-49.8c0-3.2,2.6-5.8,5.8-5.8l167.9-0.1c1.6,0,3,0.6,4.1,1.7
			c1.1,1.1,1.7,2.6,1.7,4.1l0,49.8c0,3.2-2.6,5.8-5.8,5.8L16.8,152.4z"/>
		<path fill="#FFFFFF" d="M184.7,91.2c3.1,0,5.6,2.5,5.6,5.6l0,49.8c0,3.1-2.5,5.6-5.6,5.6l-167.9,0.1c-3.1,0-5.6-2.5-5.6-5.6
			l0-49.8c0-3.1,2.5-5.6,5.6-5.6L184.7,91.2C184.7,91.2,184.7,91.2,184.7,91.2 M184.7,90.7L184.7,90.7L16.7,90.8c-3.3,0-6,2.7-6,6
			l0,49.8c0,3.3,2.7,6,6,6l167.9-0.1c3.3,0,6-2.7,6-6l0-49.8c0-1.6-0.6-3.1-1.8-4.3C187.8,91.4,186.3,90.7,184.7,90.7L184.7,90.7z"
			/>
	</g>
	<g>
		<path fill="#8E2C1F" d="M16.8,150.6c-2.2,0-4-1.8-4-4l0-49.8c0-2.2,1.8-4,4-4l167.9-0.1c2.2,0,4,1.8,4,4l0,49.8c0,2.2-1.8,4-4,4
			L16.8,150.6z"/>
		<path fill="#FFFFFF" d="M16.8,150.8L16.8,150.8c-2.3,0-4.2-1.9-4.2-4.2l0-49.8c0-2.3,1.9-4.2,4.2-4.2l167.9-0.1
			c2.3,0,4.2,1.9,4.2,4.2l0,49.8c0,1.1-0.4,2.2-1.2,3c-0.8,0.8-1.8,1.2-3,1.2c0,0,0,0,0,0L16.8,150.8z M184.7,93L16.8,93.1
			c-2.1,0-3.8,1.7-3.8,3.8l0,49.8c0,2.1,1.7,3.8,3.8,3.8l167.9-0.1c0,0,0,0,0,0c1,0,2-0.4,2.7-1.1c0.7-0.7,1.1-1.7,1.1-2.7l0-49.8
			C188.5,94.7,186.8,93,184.7,93z"/>
	</g>
	<path fill="#FFFFFF" d="M92.1,99.3h1.7l0,6.1h3.8v1.5h-5.5L92.1,99.3z M98.4,99.3h5.8v1.5h-4.1v1.5h3.6v1.5h-3.6v1.6h4.1v1.5h-5.8
		L98.4,99.3z M104.7,105.8l1-1.2c0.7,0.6,1.4,0.9,2.3,0.9c0.7,0,1.1-0.3,1.1-0.7v0c0-0.4-0.3-0.6-1.5-1c-1.5-0.4-2.5-0.8-2.5-2.3v0
		c0-1.4,1.1-2.3,2.7-2.3c1.1,0,2.1,0.3,2.8,1l-0.9,1.3c-0.7-0.5-1.3-0.8-2-0.8c-0.6,0-1,0.3-1,0.7v0c0,0.5,0.3,0.7,1.6,1
		c1.5,0.4,2.4,1,2.4,2.3v0c0,1.5-1.2,2.4-2.8,2.4C106.8,107,105.7,106.6,104.7,105.8z M33.1,111.7h5.6c1.6,0,2.8,0.4,3.6,1.2
		c0.7,0.7,1.1,1.7,1.1,2.8v0c0,2-1.1,3.2-2.6,3.8l3,4.4l-3.2,0l-2.6-3.9h-2.1l0,3.9h-2.7L33.1,111.7z M38.6,117.7
		c1.3,0,2.1-0.7,2.1-1.7v0c0-1.2-0.8-1.8-2.1-1.8h-2.7l0,3.5H38.6z M49.4,111.6l2.5,0l5.3,12.4h-2.8l-1.1-2.8l-5.2,0l-1.1,2.8h-2.8
		L49.4,111.6z M52.2,118.9l-1.6-4l-1.6,4L52.2,118.9z M58.4,111.7l2.5,0l5.8,7.6l0-7.6h2.7l0,12.3H67l-6-7.9l0,7.9l-2.7,0
		L58.4,111.7z M71.6,111.7h4.8c3.9,0,6.6,2.7,6.6,6.1v0c0,3.5-2.7,6.2-6.6,6.2h-4.8L71.6,111.7z M74.3,114.1l0,7.4h2.1
		c2.2,0,3.7-1.5,3.7-3.7v0c0-2.2-1.5-3.7-3.7-3.7H74.3z M84.1,117.9L84.1,117.9c0-3.5,2.8-6.4,6.6-6.4c3.8,0,6.5,2.8,6.5,6.4v0
		c0,3.5-2.8,6.4-6.6,6.4C86.8,124.2,84.1,121.4,84.1,117.9z M94.4,117.9L94.4,117.9c0-2.2-1.6-3.9-3.7-3.9c-2.2,0-3.7,1.7-3.7,3.9v0
		c0,2.1,1.6,3.9,3.7,3.9C92.9,121.7,94.4,120,94.4,117.9z M98.9,111.7h2.5l5.8,7.6l0-7.6l2.7,0l0,12.3h-2.3l-6-7.8l0,7.9h-2.7
		L98.9,111.7z M112.1,111.7h2.5l5.8,7.6l0-7.6h2.7l0,12.3h-2.3l-6-7.8l0,7.9h-2.7L112.1,111.7z M125.3,111.7l9.3,0l0,2.4H128v2.5
		h5.8v2.4H128v2.6h6.7l0,2.4l-9.4,0L125.3,111.7z M136.3,118.7l0-7.1h2.7l0,7c0,2,1,3.1,2.7,3.1c1.7,0,2.7-1,2.7-3l0-7.1l2.7,0l0,7
		c0,3.7-2.1,5.6-5.4,5.6C138.3,124.2,136.3,122.3,136.3,118.7z M149.1,111.6l5.6,0c1.6,0,2.8,0.4,3.6,1.3c0.7,0.7,1.1,1.7,1.1,2.8v0
		c0,2-1.1,3.2-2.6,3.8l3,4.4h-3.2l-2.6-3.9h-2.1l0,3.9h-2.7L149.1,111.6z M154.5,117.6c1.3,0,2.1-0.7,2.1-1.7v0
		c0-1.2-0.8-1.8-2.1-1.8l-2.7,0v3.5L154.5,117.6z M160.3,122.2l1.6-1.9c1.1,0.9,2.3,1.5,3.7,1.5c1.1,0,1.8-0.4,1.8-1.2v0
		c0-0.7-0.4-1-2.5-1.6c-2.5-0.6-4.1-1.3-4.1-3.8v0c0-2.2,1.8-3.7,4.3-3.7c1.8,0,3.3,0.6,4.6,1.6l-1.4,2c-1.1-0.8-2.2-1.2-3.2-1.2
		c-1,0-1.6,0.5-1.6,1.1v0c0,0.8,0.5,1.1,2.7,1.6c2.5,0.7,3.9,1.6,3.9,3.7v0c0,2.4-1.9,3.8-4.5,3.8
		C163.6,124.2,161.7,123.5,160.3,122.2z M53.5,128.8h2.9l3.2,5.2l3.2-5.2h2.9l0,12.3h-2.7l0-8.1l-3.5,5.3h-0.1l-3.4-5.2l0,8h-2.7
		L53.5,128.8z M67.6,135L67.6,135c0-3.5,2.8-6.4,6.6-6.4c3.8,0,6.5,2.8,6.5,6.3v0c0,3.5-2.8,6.4-6.6,6.4
		C70.3,141.3,67.6,138.5,67.6,135z M77.8,135L77.8,135c0-2.2-1.6-3.9-3.7-3.9c-2.2,0-3.7,1.7-3.7,3.8v0c0,2.1,1.6,3.9,3.7,3.9
		C76.3,138.8,77.8,137.1,77.8,135z M82.4,128.8h2.5l5.8,7.6l0-7.6h2.7l0,12.3H91l-6-7.8l0,7.9h-2.7L82.4,128.8z M95.6,128.8l4.8,0
		c3.9,0,6.6,2.7,6.6,6.1v0c0,3.5-2.7,6.2-6.6,6.2l-4.8,0L95.6,128.8z M98.3,131.2l0,7.4h2.1c2.2,0,3.7-1.5,3.7-3.7v0
		c0-2.2-1.5-3.7-3.7-3.7H98.3z M108.8,128.8h2.7l0,12.3h-2.7L108.8,128.8z M118.1,128.7h2.5l5.3,12.4h-2.8l-1.1-2.8l-5.2,0l-1.1,2.8
		h-2.8L118.1,128.7z M121,135.9l-1.6-4l-1.6,4H121z M126.5,135.8l0-7.1h2.7l0,7c0,2,1,3.1,2.7,3.1c1.7,0,2.7-1,2.7-3l0-7.1l2.7,0
		l0,7c0,3.7-2.1,5.6-5.4,5.6S126.5,139.4,126.5,135.8z M149.8,128.7l-4.1,6l4.3,6.3h-3.2l-2.8-4.2l-2.8,4.2h-3.1l4.3-6.3l-4.1-6.1
		h3.2l2.6,4l2.6-4H149.8z"/>
</g>
</svg>
